<svg width="23391" height="1741" viewBox="0 0 23391 1741" fill="none" xmlns="http://www.w3.org/2000/svg">
<path d="M15912.4 829.488L15562 719L15581.5 1610.5L23278 1638.5L23258 719L22981.5 410.5L22634 727.117L22362.7 898.057L22001.5 938.619L21750.4 898.057L21508 760.919L21205.7 510.787L20913.1 739.672L20653.3 859.426L20545.1 877.776L20440.8 815.001L20099.9 340.813L19889.4 617.021L19786 673.035L19728.1 724.22L19494.4 655.651L19181.5 140.901L18878.2 689.453L18885 714.562L18853.1 724.22L18655.1 589.014L18385.7 832.385L18290.1 784.097L17981 451.876L17697.1 773.474L17672.9 821.762L17401.6 773.474L17106 611.226L16910 344.676L16884.9 377.512L16689.8 86.8184L16404.9 544.589L16155.7 829.488H15912.4Z" fill="#0D0D0D"/>
<path d="M8203.86 829.488L7821.5 719L7841 1610.5L15569.5 1638.5L15549.5 719L15273 410.5L14925.5 727.117L14654.2 898.057L14293 938.619L14041.9 898.057L13799.5 760.919L13497.2 510.787L13204.6 739.672L12944.8 859.426L12836.6 877.776L12732.3 815.001L12391.4 340.813L12180.9 617.021L12077.5 673.035L12019.6 724.22L11785.9 655.651L11473 140.901L11169.7 689.453L11176.5 714.562L11144.6 724.22L10946.6 589.014L10677.2 832.385L10581.6 784.097L10272.5 451.876L9988.58 773.474L9964.44 821.762L9693.06 773.474L9397.54 611.226L9201.49 344.676L9176.38 377.512L8981.3 86.8184L8696.4 544.589L8447.23 829.488H8203.86Z" fill="#0D0D0D"/>
<path d="M514.858 829.488L164.5 719L184 1610.5L7880.5 1638.5L7860.5 719L7584 410.5L7236.55 727.117L6965.17 898.057L6603.98 938.619L6352.88 898.057L6110.47 760.919L5808.19 510.787L5515.56 739.672L5255.77 859.426L5147.61 877.776L5043.31 815.001L4702.39 340.813L4491.86 617.021L4388.52 673.035L4330.58 724.22L4096.86 655.651L3783.96 140.901L3480.71 689.453L3487.47 714.562L3455.6 724.22L3257.62 589.014L2988.17 832.385L2892.56 784.097L2583.52 451.876L2299.58 773.474L2275.44 821.762L2004.06 773.474L1708.54 611.226L1512.49 344.676L1487.38 377.512L1292.3 86.8184L1007.4 544.589L758.23 829.488H514.858Z" fill="#0D0D0D"/>
<path d="M19474 727.254L19154.4 879.844L19142.8 1064.3L19462.5 1039.19L19474 727.254Z" fill="#59080D" fill-opacity="0.4"/>
<path d="M20097 348.676L19787.9 761.055L19802.4 906.885L20129.8 838.316L20097 348.676Z" fill="#4C080C"/>
<path d="M18568.2 1010.22L18255.3 954.207L18203.1 1165.71L18500.6 1079.76L18568.2 1010.22Z" fill="#59080D" fill-opacity="0.4"/>
<path d="M16817.2 860.529L16515.9 996.701L16508.2 979.317L16588.4 818.035V793.891L16917.7 340.95L16817.2 860.529Z" fill="#4C080C"/>
<path d="M17934.6 849.905L17631.4 903.988L17573.4 1074.93L17887.3 1162.81L17934.6 849.905Z" fill="#4C080C" fill-opacity="0.8"/>
<path d="M22949.8 416.279L22643.7 728.219L22756.7 889.501L23052.2 797.754L22949.8 416.279Z" fill="#59080D" fill-opacity="0.4"/>
<path d="M21195 1123.22L21140 888.536L21524.4 1113.56L21535.9 1150.26L21195 1123.22Z" fill="#59080D" fill-opacity="0.4"/>
<path d="M21260.7 834.453L21200.8 533.136L21235.6 541.828L21505 761.055L21553.3 898.193L21260.7 834.453Z" fill="#4C080C"/>
<path d="M20915.9 742.706C20824.8 788.74 20639.7 880.423 20628.1 878.878L20631 940.687L20752.7 1011.19L20785.6 987.043L20963.3 905.919L20915.9 742.706Z" fill="#4C080C"/>
<path d="M18873.3 715.665L18599.1 955.173L18574 999.598L18850.2 828.658L18873.3 760.09V715.665Z" fill="#59080D" fill-opacity="0.4"/>
<path d="M16680.1 114.962L16610.6 613.294L16331.5 766.85L16416.5 536.999L16680.1 114.962Z" fill="#59080D" fill-opacity="0.4"/>
<path d="M17076.1 1269.05L17165.9 1003.46L17496.2 1223.65L17412.2 1344.37L17076.1 1269.05Z" fill="#59080D" fill-opacity="0.4"/>
<path d="M16288 1333.75L16177.9 1373.35L16500.5 1438.05L16625.1 1373.35L16288 1333.75Z" fill="#59080D" fill-opacity="0.4"/>
<path d="M16251.3 1101.97L15988.6 1157.02L15967.4 1167.64V1150.26L16057.2 959.036L16333.4 770.713L16251.3 1101.97Z" fill="#4C080C" fill-opacity="0.6"/>
<path d="M22360 998.389C22365.2 1010.55 22447.1 1187.39 22478.6 1271.24L22617.3 1627.34" stroke="#700209" stroke-width="33.8894"/>
<path d="M21264.6 834.155L21542.3 898.893L21850.3 967.106" stroke="#700209" stroke-width="23.4619"/>
<path d="M21144.7 875.431L21497.5 1116.13L21822.5 1622.51" stroke="#700209" stroke-width="30.4135"/>
<path d="M20795.4 1027.5L21123.9 863.266" stroke="#700209" stroke-width="27.8067"/>
<path d="M20722 1023.59L20782.8 989.265L20958.3 910.624L21126.9 863.266L21250.7 821.121" stroke="#700209" stroke-width="27.8067"/>
<path d="M20430.4 809.391L20464.8 993.176L20494.3 1231.27L20541.7 1365.96L20580.8 1451.99L20637.5 1617.68" stroke="#700209" stroke-width="25.1998"/>
<path d="M20161.5 1163.93L20498.6 1232.14L20839.7 1188.26L21189.9 1122.22L21531 1157.84L21985 1189.56" stroke="#700209" stroke-width="31.2825"/>
<path d="M19826.9 1099.62L20002.5 1155.67L20158 1173.05L20184.1 1280.8L20214.9 1394.63L20240.6 1615.75" stroke="#700209" stroke-width="38.2342"/>
<path d="M19465.5 1392.9L19822.2 1348.14L20204.9 1392.9L20576.8 1451.55L20962.7 1483.7H21329.8L21710.8 1451.55L22094.5 1334.68L22467.3 1273.85L22826.1 1334.68L23212.8 1451.55" stroke="#700209" stroke-width="28.6756"/>
<path d="M19819.1 1093.54L19859.1 1614.79" stroke="#700209" stroke-width="46.0548"/>
<path d="M19787.4 757.688L19813 1113.96" stroke="#700209" stroke-width="46.0548"/>
<path d="M18850.2 834.591L19159.1 685.564" stroke="#700209" stroke-width="26.9377"/>
<path d="M18580 973.623L18886.3 707.722" stroke="#700209" stroke-width="18.2481"/>
<path d="M18398.4 838.066L18609.5 859.356" stroke="#700209" stroke-width="24.3308"/>
<path d="M19124 1133.51L19174.4 699.033L19166.5 993.61L19142.2 1227.36L19124 1133.51Z" fill="#700209"/>
<path d="M19463.3 1606.1V1405.5V1237.35V1026.63L19482.8 649.502" stroke="#700209" stroke-width="39.1031"/>
<path d="M19115.7 1372.48L19472 1275.59" stroke="#700209" stroke-width="20.855"/>
<path d="M19104.4 1461.98L19466.3 1395.94" stroke="#700209" stroke-width="20.855"/>
<path d="M17892.6 1163.49L17920.9 1172.61L18199.4 1163.49" stroke="#700209" stroke-width="24.3308"/>
<path d="M18288.4 782.887L18204.2 1169.14L18162 1259.51" stroke="#700209" stroke-width="29.5446"/>
<path d="M17618.7 903.751C17627 903.751 17838.9 868.783 17937.6 853.398" stroke="#700209" stroke-width="20.9803"/>
<path d="M17945.2 855.445L18247.2 955.376L18551.3 1009.69L18514.4 1076.6L18485.7 1160.88L18424 1200.86" stroke="#700209" stroke-width="22.5929"/>
<path d="M16150 838.712V811.438H16175.2L16150 838.712Z" fill="#700209"/>
<path d="M16414.5 538.71L16330.5 773.674" stroke="#700209" stroke-width="16.7842"/>
<path d="M16076.6 1312.87L16502.5 991.868" stroke="#700209" stroke-width="20.9803"/>
<path d="M16330.5 773.673L16250.7 1111.45" stroke="#700209" stroke-width="16.7842"/>
<path d="M15969.6 1163.91L16248.6 1107.26" stroke="#700209" stroke-width="16.7842"/>
<path d="M16500.4 998.162L16827.7 849.202" stroke="#700209" stroke-width="29.3724"/>
<path d="M16924 347.746C16925.2 340.888 16920.5 334.402 16913.7 333.259C16906.8 332.116 16900.3 336.749 16899.2 343.607L16924 347.746ZM16827.7 849.202L16839.9 852.412L16840 851.848L16840.1 851.272L16827.7 849.202ZM16727 1231.04L16737.1 1238.53L16738.5 1236.59L16739.2 1234.25L16727 1231.04ZM16655.7 1327.55L16645.5 1320.07L16644.9 1320.95L16644.4 1321.92L16655.7 1327.55ZM16634.7 1369.51L16640.2 1380.81L16644 1378.93L16645.9 1375.14L16634.7 1369.51ZM16494.1 1438.75L16488.5 1427.45L16486.2 1428.61L16484.5 1430.62L16494.1 1438.75ZM16899.2 343.607L16815.3 847.133L16840.1 851.272L16924 347.746L16899.2 343.607ZM16815.5 845.992L16714.8 1227.83L16739.2 1234.25L16839.9 852.412L16815.5 845.992ZM16716.9 1223.56L16645.5 1320.07L16665.8 1335.03L16737.1 1238.53L16716.9 1223.56ZM16644.4 1321.92L16623.4 1363.88L16645.9 1375.14L16666.9 1333.18L16644.4 1321.92ZM16629.1 1358.22L16488.5 1427.45L16499.7 1450.04L16640.2 1380.81L16629.1 1358.22ZM16484.5 1430.62L16335.9 1606.37L16355.1 1622.63L16503.7 1446.88L16484.5 1430.62Z" fill="#700209"/>
<path d="M16410.2 1260.41L16720.7 1226.85" stroke="#700209" stroke-width="29.3724"/>
<path d="M16286.4 1340.14L16628.4 1371.61" stroke="#700209" stroke-width="29.3724"/>
<path d="M15778.1 1284.5L15631.5 1509.5" stroke="#700209" stroke-width="19.3152"/>
<path d="M15877 1624L15548 1481.5" stroke="#700209" stroke-width="31.28"/>
<path d="M16284.3 1340.14L16127 1382.1L15962.5 1625.5" stroke="#700209" stroke-width="29.3724"/>
<path d="M16141.6 1377.9L16500.4 1436.65" stroke="#700209" stroke-width="29.3724"/>
<path d="M16603.2 786.261L16907.4 345.676" stroke="#700209" stroke-width="16.7842"/>
<path d="M16615.8 769.477L16498.3 998.162" stroke="#700209" stroke-width="12.5882"/>
<path d="M16330.5 771.576L16617.9 616.322L16695.5 654.086" stroke="#700209" stroke-width="20.9803"/>
<path d="M16834 849.202L17165.5 1004.46L17073.2 1277.2L16972.5 1371.61L16869.7 1434.55L16730 1608" stroke="#700209" stroke-width="25.1763"/>
<path d="M16624.2 1371.61L16964.1 1375.81" stroke="#700209" stroke-width="25.1763"/>
<path d="M16487.8 1440.85C16491.2 1442.52 16742.4 1437.35 16867.6 1434.55" stroke="#700209" stroke-width="25.1763"/>
<path d="M17236.8 771.575L17165.5 1008.65" stroke="#700209" stroke-width="25.1763"/>
<path d="M16718.6 1224.75L17069 1270.91" stroke="#700209" stroke-width="20.9803"/>
<path d="M17236.8 775.771L17570.4 1077.89" stroke="#700209" stroke-width="20.9803"/>
<path d="M17171.8 1002.36L17499.1 1226.85" stroke="#700209" stroke-width="20.9803"/>
<path d="M17077.4 1273L17421.4 1344.34" stroke="#700209" stroke-width="20.9803"/>
<path d="M17396.3 1367.41L17499.1 1226.85L17572.5 1071.59L17629.1 901.653" stroke="#700209" stroke-width="29.3724"/>
<path d="M16959.9 1377.91L17406.8 1361.12" stroke="#700209" stroke-width="29.3724"/>
<path d="M16859.2 1449.24L17406.8 1359.02" stroke="#700209" stroke-width="29.3724"/>
<path d="M17243.1 1384.2L17120.2 1609.96" stroke="#700209" stroke-width="46.1566"/>
<path d="M17381.6 1363.22L17704.7 1367.41" stroke="#700209" stroke-width="29.3724"/>
<path d="M17249.4 1390.49L17614.5 1440.85" stroke="#700209" stroke-width="29.3724"/>
<path d="M17736.1 1367.41L17606.1 1438.75L17515.2 1607.06" stroke="#700209" stroke-width="33.5684"/>
<path d="M17503.3 1226.85L17828.5 1335.94" stroke="#700209" stroke-width="29.3724"/>
<path d="M17687.9 1367.41H17742.4L17822.2 1338.04" stroke="#700209" stroke-width="29.3724"/>
<path d="M17616.6 1432.45L17996.3 1405.18" stroke="#700209" stroke-width="29.3724"/>
<path d="M17570.4 1073.69L17905.7 1174.79" stroke="#700209" stroke-width="29.3724"/>
<path d="M17813.8 1346.43L17888.3 1182.17" stroke="#700209" stroke-width="29.3724"/>
<path d="M17903.4 1604.16L17979.5 1403.08L18052.9 1300.28" stroke="#700209" stroke-width="29.3724"/>
<path d="M17809.6 1340.14C17817.9 1338.07 17978.1 1314.8 18052.9 1304.47" stroke="#700209" stroke-width="29.3724"/>
<path d="M17971.1 1415.67L18344.6 1373.71" stroke="#700209" stroke-width="16.7842"/>
<path d="M18409.6 1198.71C18412.3 1187.45 18405.4 1176.09 18394.2 1173.34C18382.9 1170.58 18371.6 1177.47 18368.8 1188.73L18409.6 1198.71ZM18368.8 1188.73L18265.5 1610.76L18306.2 1620.74L18409.6 1198.71L18368.8 1188.73Z" fill="#700209"/>
<path d="M18040.4 1308.67L18386.5 1189.08" stroke="#700209" stroke-width="29.3724"/>
<path d="M18402.7 1198.54L18757.9 1319.16" stroke="#700209" stroke-width="29.3724"/>
<path d="M18829.8 835.025L18806.1 1082.08L18783.1 1247.83L18718 1428.26L18678.9 1614.79" stroke="#700209" stroke-width="41.9605"/>
<path d="M18357.2 1375.81L18711.7 1434.55" stroke="#700209" stroke-width="25.1763"/>
<path d="M18728.5 1430.35L19093.6 1466.02" stroke="#700209" stroke-width="25.1763"/>
<path d="M18762.1 1319.16L19108.3 1365.32" stroke="#700209" stroke-width="25.1763"/>
<path d="M18783.1 1241.53L19129.2 1287.69" stroke="#700209" stroke-width="25.1763"/>
<path d="M18772.6 1245.73L18485.1 1222.65" stroke="#700209" stroke-width="25.1763"/>
<path d="M17624.1 902.369L17690 786.262" stroke="#700209" stroke-width="20.9803"/>
<path d="M18209.4 1167.84L18513.1 1074.86" stroke="#700209" stroke-width="24.3308"/>
<path d="M18809.4 832.852C18721.6 888.9 18575.6 982.4 18573.9 984.485L18517.9 1086.15L18805.5 879.776L18809.4 832.852Z" fill="#700209"/>
<path d="M18488.3 1158.71L18791.1 1085.72" stroke="#700209" stroke-width="20.855"/>
<path d="M18818.5 1077.58L19142.2 1068.77" stroke="#700209" stroke-width="20.855"/>
<path d="M19142.6 1066.67L19472.8 1040.53" stroke="#700209" stroke-width="20.855"/>
<path d="M19130.9 1286.01L19469.8 1241.26" stroke="#700209" stroke-width="20.855"/>
<path d="M18835.9 850.232L19132.6 872.825" stroke="#700209" stroke-width="28.6756"/>
<path d="M19143.9 882.817L19469.4 729.881" stroke="#700209" stroke-width="21.724"/>
<path d="M19168.3 699.467L19455 733.356L19498 726.405L19175.7 671.226L19168.3 699.467Z" fill="#700209"/>
<path d="M18806.8 862.397L18818.1 843.714L18858.5 825.032L18880.2 720.322" stroke="#700209" stroke-width="26.9377"/>
<path d="M19669.2 1169.14L19482 1229.53L19474.6 1293.83L19809.6 1134.82L19833.5 1092.67L19669.2 1169.14Z" fill="#700209"/>
<path d="M19462.4 1036.62L19803.9 903.673L20136.7 840.673L20467.4 1008.38L20792.4 1027.93" stroke="#700209" stroke-width="28.6756"/>
<path d="M19812.2 1092.24C19819.8 1093.97 20067.6 1217.51 20190.6 1279.06" stroke="#700209" stroke-width="28.6756"/>
<path d="M20129.8 845.452L20160.2 1184.35" stroke="#700209" stroke-width="38.2342"/>
<path d="M20192.3 1268.63L20536.4 1366.39L20899.7 1334.68L21270.3 1344.67L21617.4 1300.35L21987.6 1190.86L22352.6 998.255C22355 996.972 22357.9 996.915 22360.4 998.1L23061.6 1333.37L23248.5 1484" stroke="#700209" stroke-width="31.2825"/>
<path d="M20793.2 1031.84L20841.9 1200.86L20894.5 1333.37L20961.4 1486.74L21035.4 1611.89" stroke="#700209" stroke-width="35.6273" stroke-linecap="square"/>
<path d="M21132.5 854.576L21192.9 1133.95L21266.8 1348.58L21333.3 1483.7L21427.5 1622.51" stroke="#700209" stroke-width="37.3652"/>
<path d="M21983.7 1189.99L22100.1 1357.7L22215.5 1632.17" stroke="#700209" stroke-width="38.2342"/>
<path d="M21843.8 962.762L21943.3 1189.56" stroke="#700209" stroke-width="27.8067"/>
<path d="M21610.9 1134.38L21478.4 1086.15L21524.9 1154.8L21604.4 1159.58L21610.9 1134.38Z" fill="#700209"/>
<path d="M22346 901.5L22449 970.582L22500.3 1068.77" stroke="#700209" stroke-width="33.8894"/>
<path d="M22693.6 1157.41L22850 1340.76L23000.7 1627.34" stroke="#700209" stroke-width="33.8894"/>
<path d="M22445.1 965.803L22748.4 892.81L23054.3 803.308L23223.7 858.921" stroke="#700209" stroke-width="19.3152"/>
<path d="M17389.5 771.156L17500.3 893.245L17481.2 994.479" stroke="#700209" stroke-width="27.8067"/>
<path d="M17497.1 893.365L17660.4 835.419" stroke="#700209" stroke-width="25.1098"/>
<g filter="url(#filter0_f_737_2313)">
<path d="M19733.1 743.785L19779.9 686.84C19786 679.404 19793.5 673.279 19802.1 668.832L19902.5 616.482" stroke="#700209" stroke-width="38.2342"/>
<path d="M18866.3 710.763V724.232H18893.2V710.763H18866.3ZM18879.8 698.598L18867.9 692.209L18866.3 695.2V698.598H18879.8ZM19195.8 140.599C19199.3 134.05 19196.8 125.881 19190.3 122.353C19183.8 118.824 19175.6 121.272 19172.1 127.82L19195.8 140.599ZM18893.2 710.763V698.598H18866.3V710.763H18893.2ZM18891.6 704.987L19195.8 140.599L19172.1 127.82L18867.9 692.209L18891.6 704.987Z" fill="#700209"/>
<path d="M18383.2 833.721L18641.2 609.096" stroke="#700209" stroke-width="28.6756"/>
<path d="M15533 710.5L15902.5 826.124H16150" stroke="#700209" stroke-width="29.3724"/>
<path d="M16411.6 536.034L16036.7 970.887" stroke="#700209" stroke-width="8.3921"/>
<path d="M16413.7 540.448L16680.8 104.403" stroke="#700209" stroke-width="16.7842"/>
<path d="M16689.2 81.3247L16884.3 381.342" stroke="#700209" stroke-width="25.1763"/>
<path d="M16909.5 343.578L17069 568.066L17241 782.065" stroke="#700209" stroke-width="25.1763"/>
<path d="M17688.4 788.101L17973.9 458.34C17976.9 454.858 17982.3 454.769 17985.4 458.148L18293.7 791.143" stroke="#700209" stroke-width="20.855"/>
<path d="M18283.2 788.536L18583.5 938.865" stroke="#700209" stroke-width="24.3308"/>
<path d="M18655.6 619.088L18841.1 738.135L18872.8 726.839L18661.8 584.632C18656.6 581.141 18649.7 581.653 18645.1 585.871L18627.3 602.144L18655.6 619.088Z" fill="#700209"/>
<path d="M19183.5 133.341L19482.8 656.888" stroke="#700209" stroke-width="26.9377"/>
<path d="M19783.1 775.501L20104.6 339.718" stroke="#700209" stroke-width="38.2342"/>
<path d="M20098.9 336.121L20436.1 821.869" stroke="#700209" stroke-width="25.1998" stroke-linecap="round"/>
<path d="M20654.6 956.679L20446.5 833.287V811.563L20654.6 956.679Z" fill="#700209"/>
<path d="M20915.3 744.219L20921.9 757.91L20923.3 757.225L20924.6 756.264L20915.3 744.219ZM21214.4 532.942C21221 527.815 21222.3 518.267 21217.2 511.614C21212 504.962 21202.5 503.725 21195.8 508.851L21214.4 532.942ZM20620 903.895L20921.9 757.91L20908.7 730.528L20606.7 876.513L20620 903.895ZM20924.6 756.264L21214.4 532.942L21195.8 508.851L20906 732.174L20924.6 756.264Z" fill="#700209"/>
<path d="M20603.4 884.555L20555.6 889.769L20525.6 868.914L20642.5 860.224L20649.8 953.203L20611.2 928.872L20603.4 884.555Z" fill="#700209"/>
<path d="M21850.7 966.672L22148.4 922.355L22448.2 962.762" stroke="#700209" stroke-width="23.4619"/>
<path d="M21726.9 892.376L21987.2 947.121" stroke="#700209" stroke-width="23.4619"/>
<path d="M22354.7 906.714L22356.3 922.71L22360.1 922.339L22363.3 920.347L22354.7 906.714ZM22648.9 722.929L22657.4 736.562L22659 735.555L22660.3 734.2L22648.9 722.929ZM22966.7 422.678C22972.9 416.347 22972.8 406.169 22966.5 399.944C22960.1 393.72 22950 393.806 22943.7 400.136L22966.7 422.678ZM22150.8 943.131L22356.3 922.71L22353.1 890.717L22147.6 911.137L22150.8 943.131ZM22363.3 920.347L22657.4 736.562L22640.4 709.296L22346.2 893.08L22363.3 920.347ZM22660.3 734.2L22966.7 422.678L22943.7 400.136L22637.4 711.658L22660.3 734.2Z" fill="#700209"/>
<path d="M22960.4 408.366L23225.9 713.371" stroke="#700209" stroke-width="18.2481"/>
<path d="M17094.5 600.406L17386.9 770.722L17659.8 826.335" stroke="#700209" stroke-width="27.8067"/>
<path d="M19477.2 649.068L19787.8 765.943" stroke="#700209" stroke-width="27.8067"/>
<path d="M22151.8 923.659L22211.4 1069.21" stroke="#700209" stroke-width="32.1515"/>
<path d="M21205.5 530.02L21280.7 962.327" stroke="#700209" stroke-width="29.5446"/>
<path d="M18547 1013.16L18592.6 941.907L18613 854.142L18622.6 840.238L18645.6 603.447" stroke="#700209" stroke-width="24.3308"/>
<path d="M17982.6 459.2L17937.4 855.879L17884.8 1170.88" stroke="#700209" stroke-width="34.7583"/>
<path d="M16701.7 83.4075C16702.8 75.3785 16697.2 67.9372 16689.2 66.787C16681.2 65.6367 16673.7 71.213 16672.6 79.2419L16701.7 83.4075ZM16596.8 815.618L16701.7 83.4075L16672.6 79.2419L16567.7 811.453L16596.8 815.618Z" fill="#700209"/>
<path d="M19070.5 1585.61L19125 1281.4L19141.8 872.281L19160.7 691.851L19181.3 150.286" stroke="#700209" stroke-width="30.4135"/>
<path d="M20123.7 854.576L20102.8 351.884" stroke="#700209" stroke-width="31.2825"/>
<path d="M20910.1 744.653L20957 922.789L20960.9 954.941" stroke="#700209" stroke-width="29.5446"/>
<path d="M22643.2 731.619L22750.5 892.811L22853.5 1151.76L23018.6 1312.95" stroke="#700209" stroke-width="26.0688"/>
<path d="M23218 1189.13L23159 1144.37L23051.6 791.577L22953 417.49" stroke="#700209" stroke-width="33.0204"/>
<path d="M21208.6 519.616C21324 613.381 21499.3 756.818 21499.3 756.818M21499.3 756.818L21553.6 904.541L21622.6 1163.06M21499.3 756.818L21856.8 970.582" stroke="#700209" stroke-width="23.4619"/>
</g>
<path d="M19733.1 743.785L19779.9 686.84C19786 679.404 19793.5 673.279 19802.1 668.832L19902.5 616.482" stroke="#700209" stroke-width="38.2342"/>
<path d="M18866.3 710.763V724.232H18893.2V710.763H18866.3ZM18879.8 698.598L18867.9 692.209L18866.3 695.2V698.598H18879.8ZM19195.8 140.599C19199.3 134.05 19196.8 125.881 19190.3 122.353C19183.7 118.824 19175.6 121.272 19172.1 127.82L19195.8 140.599ZM18893.2 710.763V698.598H18866.3V710.763H18893.2ZM18891.6 704.987L19195.8 140.599L19172.1 127.82L18867.9 692.209L18891.6 704.987Z" fill="#700209"/>
<path d="M18383.2 833.721L18641.2 609.096" stroke="#700209" stroke-width="28.6756"/>
<path d="M15525.5 710.5L15902.5 826.124L16151.8 820.933" stroke="#700209" stroke-width="19.3152"/>
<path d="M15915.1 828.222L15791.3 970.888L15658 1041L15581.5 1315.5" stroke="#700209" stroke-width="19.3152"/>
<path d="M15526.5 858.5L15793.4 968.789H16047.2" stroke="#700209" stroke-width="19.3152"/>
<path d="M15403.5 935L16024 1204" stroke="#700209" stroke-width="19.3152"/>
<path d="M15447 1085L15864.7 1184.89L15602.5 1293" stroke="#700209" stroke-width="19.3152"/>
<path d="M16194.1 1224.75L15864.7 1184.89" stroke="#700209" stroke-width="20.9803"/>
<path d="M15957 1163.91L16055.6 962.496" stroke="#700209" stroke-width="20.9803"/>
<path d="M16051.4 964.594L16332.6 767.379" stroke="#700209" stroke-width="20.9803"/>
<path d="M15517 1186.5L15782.9 1273L16034.6 1314.96L16292.7 1340.14L16410.2 1260.42L16508.8 989.77" stroke="#700209" stroke-width="33"/>
<path d="M15774.5 1291.89L16127 1386.3" stroke="#700209" stroke-width="29.3724"/>
<path d="M15489.5 1418.5L15603 1293.5L15772.4 1281.4" stroke="#700209" stroke-width="19.3152"/>
<path d="M16411.6 536.034L16036.7 970.887" stroke="#700209" stroke-width="8.3921"/>
<g filter="url(#filter1_f_737_2313)">
<path d="M15915.1 828.222L15791.3 970.888L15658 1041L15574.5 1320.5" stroke="#700209" stroke-width="19.3152"/>
<path d="M15539.5 858.5C15643.5 901.18 15793.4 968.789 15793.4 968.789H16047.2" stroke="#700209" stroke-width="19.3152"/>
<path d="M15419.5 944L16024.2 1203.77" stroke="#700209" stroke-width="19.3152"/>
<path d="M15447 1081L15864.7 1184.89L15602.5 1293" stroke="#700209" stroke-width="19.3152"/>
<path d="M16194.1 1224.75L15864.7 1184.89" stroke="#700209" stroke-width="20.9803"/>
<path d="M15957 1163.91L16055.6 962.496" stroke="#700209" stroke-width="20.9803"/>
<path d="M16051.4 964.594L16332.6 767.379" stroke="#700209" stroke-width="20.9803"/>
<path d="M15521.5 1185.5L15782.9 1273L16034.6 1314.96L16292.7 1340.14L16410.2 1260.42L16508.8 989.77" stroke="#700209" stroke-width="33"/>
<path d="M15774.5 1291.89L16127 1386.3" stroke="#700209" stroke-width="29.3724"/>
<path d="M15482.5 1421L15603 1293.5L15772.4 1281.4" stroke="#700209" stroke-width="19.3152"/>
<path d="M16411.6 536.034L16036.7 970.887" stroke="#700209" stroke-width="8.3921"/>
</g>
<path d="M16413.7 540.448L16680.8 104.403" stroke="#700209" stroke-width="16.7842"/>
<path d="M16689.2 81.3247L16884.3 381.342" stroke="#700209" stroke-width="25.1763"/>
<path d="M16909.5 343.578L17069 568.066L17241 782.065" stroke="#700209" stroke-width="25.1763"/>
<path d="M17688.4 788.101L17973.9 458.34C17976.9 454.858 17982.3 454.769 17985.4 458.148L18293.7 791.143" stroke="#700209" stroke-width="20.855"/>
<path d="M18283.2 788.536L18583.5 938.865" stroke="#700209" stroke-width="24.3308"/>
<path d="M18655.6 619.088L18841.1 738.135L18872.8 726.839L18661.8 584.632C18656.6 581.141 18649.7 581.653 18645.1 585.871L18627.3 602.144L18655.6 619.088Z" fill="#700209"/>
<path d="M19183.5 133.341L19482.8 656.888" stroke="#700209" stroke-width="26.9377"/>
<path d="M19783.1 775.501L20104.6 339.718" stroke="#700209" stroke-width="38.2342"/>
<path d="M20098.9 336.121L20436.1 821.869" stroke="#700209" stroke-width="25.1998" stroke-linecap="round"/>
<path d="M20654.6 956.679L20446.5 833.287V811.563L20654.6 956.679Z" fill="#700209"/>
<path d="M20915.3 744.219L20921.9 757.91L20923.3 757.225L20924.6 756.264L20915.3 744.219ZM21214.4 532.942C21221 527.815 21222.3 518.267 21217.2 511.614C21212 504.962 21202.5 503.725 21195.8 508.851L21214.4 532.942ZM20620 903.895L20921.9 757.91L20908.7 730.528L20606.7 876.513L20620 903.895ZM20924.6 756.264L21214.4 532.942L21195.8 508.851L20906 732.174L20924.6 756.264Z" fill="#700209"/>
<path d="M20603.4 884.555L20555.6 889.769L20525.6 868.914L20642.5 860.224L20649.8 953.203L20611.2 928.872L20603.4 884.555Z" fill="#700209"/>
<path d="M21850.7 966.672L22148.4 922.355L22448.1 962.762" stroke="#700209" stroke-width="23.4619"/>
<path d="M21726.9 892.376L21987.2 947.121" stroke="#700209" stroke-width="23.4619"/>
<path d="M22354.7 906.714L22356.3 922.71L22360.1 922.339L22363.3 920.347L22354.7 906.714ZM22648.9 722.929L22657.4 736.562L22659 735.555L22660.3 734.2L22648.9 722.929ZM22966.7 422.678C22972.9 416.347 22972.8 406.169 22966.5 399.944C22960.1 393.72 22949.9 393.806 22943.7 400.136L22966.7 422.678ZM22150.8 943.131L22356.3 922.71L22353.1 890.717L22147.6 911.137L22150.8 943.131ZM22363.3 920.347L22657.4 736.562L22640.4 709.296L22346.2 893.08L22363.3 920.347ZM22660.3 734.2L22966.7 422.678L22943.7 400.136L22637.4 711.658L22660.3 734.2Z" fill="#700209"/>
<path d="M22960.4 408.366L23225.9 713.371" stroke="#700209" stroke-width="19.3152"/>
<path d="M17094.5 600.406L17386.9 770.722L17659.8 826.335" stroke="#700209" stroke-width="27.8067"/>
<path d="M19477.2 649.068L19787.8 765.943" stroke="#700209" stroke-width="27.8067"/>
<path d="M22151.8 923.659L22211.4 1069.21" stroke="#700209" stroke-width="32.1515"/>
<path d="M21205.5 530.02L21280.7 962.327" stroke="#700209" stroke-width="29.5446"/>
<path d="M18547 1013.16L18592.6 941.907L18613 854.142L18622.6 840.238L18645.6 603.447" stroke="#700209" stroke-width="24.3308"/>
<path d="M17982.6 459.2L17937.4 855.879L17884.8 1170.88" stroke="#700209" stroke-width="34.7583"/>
<path d="M16701.7 83.4075C16702.8 75.3785 16697.2 67.9372 16689.2 66.787C16681.2 65.6367 16673.7 71.213 16672.6 79.2419L16701.7 83.4075ZM16596.8 815.618L16701.7 83.4075L16672.6 79.2419L16567.7 811.453L16596.8 815.618Z" fill="#700209"/>
<path d="M19070.1 1608.03L19125 1281.4L19141.8 872.281L19160.7 691.851L19181.3 150.286" stroke="#700209" stroke-width="30.4135"/>
<path d="M20123.7 854.576L20102.8 351.884" stroke="#700209" stroke-width="31.2825"/>
<path d="M20910.1 744.653L20957 922.789L20960.9 954.941" stroke="#700209" stroke-width="29.5446"/>
<path d="M22643.2 731.619L22750.5 892.811L22853.5 1151.76L23018.6 1312.95" stroke="#700209" stroke-width="26.0688"/>
<path d="M23218 1189.13L23159 1144.37L23051.6 791.577L22953 417.49" stroke="#700209" stroke-width="33.0204"/>
<path d="M21208.6 519.616C21324 613.381 21499.3 756.818 21499.3 756.818M21499.3 756.818L21553.6 904.541L21622.6 1163.06M21499.3 756.818L21856.8 970.582" stroke="#700209" stroke-width="23.4619"/>
<g filter="url(#filter2_f_737_2313)">
<path d="M20208.3 1268.63L20552.4 1366.39L20915.7 1334.68L21286.3 1344.67L21633.4 1300.35L22003.6 1190.86L22368.6 998.255C22371 996.972 22373.9 996.915 22376.4 998.1L23077.6 1333.37L23264.5 1484" stroke="#700209" stroke-width="31.2825"/>
</g>
<g filter="url(#filter3_f_737_2313)">
<path d="M22461.1 965.803L22764.4 892.81L23070.3 803.308L23239.7 858.921" stroke="#700209" stroke-width="19.3152"/>
</g>
<path d="M16302.5 1099.07L16256.1 1097.14L16245.5 1115.49H16289L16302.5 1099.07Z" fill="#700209"/>
<path d="M18620.3 842.18L18855 731.117" stroke="#700209" stroke-width="25.1098"/>
<path d="M16492.7 891.433L16419.3 993.804L16589.3 816.104L16584.5 794.857L16571.9 805.481L16492.7 891.433Z" fill="#700209"/>
<path d="M15600.5 1621.5H23297" stroke="#700209" stroke-width="50"/>
<g filter="url(#filter4_f_737_2313)">
<path d="M15600.5 1621.5H23297" stroke="#700209" stroke-width="50"/>
</g>
<path d="M11778.5 727.254L11458.9 879.844L11447.3 1064.3L11767 1039.19L11778.5 727.254Z" fill="#59080D" fill-opacity="0.4"/>
<path d="M12401.5 348.676L12092.4 761.055L12106.9 906.885L12434.3 838.316L12401.5 348.676Z" fill="#4C080C"/>
<path d="M10872.7 1010.22L10559.8 954.207L10507.6 1165.71L10805.1 1079.76L10872.7 1010.22Z" fill="#59080D" fill-opacity="0.4"/>
<path d="M9121.74 860.529L8820.43 996.701L8812.7 979.317L8892.86 818.035V793.891L9222.18 340.95L9121.74 860.529Z" fill="#4C080C"/>
<path d="M10239.1 849.905L9935.88 903.988L9877.93 1074.93L10191.8 1162.81L10239.1 849.905Z" fill="#4C080C" fill-opacity="0.8"/>
<path d="M15254.3 416.279L14948.2 728.219L15061.2 889.501L15356.7 797.754L15254.3 416.279Z" fill="#59080D" fill-opacity="0.4"/>
<path d="M13499.5 1123.22L13444.5 888.536L13828.9 1113.56L13840.4 1150.26L13499.5 1123.22Z" fill="#59080D" fill-opacity="0.4"/>
<path d="M13565.2 834.453L13505.3 533.136L13540.1 541.828L13809.5 761.055L13857.8 898.193L13565.2 834.453Z" fill="#4C080C"/>
<path d="M13220.4 742.706C13129.3 788.74 12944.2 880.423 12932.6 878.878L12935.5 940.687L13057.2 1011.19L13090.1 987.043L13267.8 905.919L13220.4 742.706Z" fill="#4C080C"/>
<path d="M11177.8 715.665L10903.6 955.173L10878.5 999.598L11154.7 828.658L11177.8 760.09V715.665Z" fill="#59080D" fill-opacity="0.4"/>
<path d="M8984.6 114.962L8915.07 613.294L8635.96 766.85L8720.95 536.999L8984.6 114.962Z" fill="#59080D" fill-opacity="0.4"/>
<path d="M9380.57 1269.05L9470.38 1003.46L9800.67 1223.65L9716.65 1344.37L9380.57 1269.05Z" fill="#59080D" fill-opacity="0.4"/>
<path d="M8592.5 1333.75L8482.41 1373.35L8804.97 1438.05L8929.56 1373.35L8592.5 1333.75Z" fill="#59080D" fill-opacity="0.4"/>
<path d="M8555.81 1101.97L8293.12 1157.02L8271.87 1167.64V1150.26L8361.69 959.036L8637.9 770.713L8555.81 1101.97Z" fill="#4C080C" fill-opacity="0.6"/>
<path d="M14664.5 998.389C14669.7 1010.55 14751.6 1187.39 14783.1 1271.24L14921.8 1627.34" stroke="#700209" stroke-width="33.8894"/>
<path d="M13569.1 834.155L13846.8 898.893L14154.8 967.106" stroke="#700209" stroke-width="23.4619"/>
<path d="M13449.2 875.431L13802 1116.13L14127 1622.51" stroke="#700209" stroke-width="30.4135"/>
<path d="M13099.9 1027.5L13428.4 863.266" stroke="#700209" stroke-width="27.8067"/>
<path d="M13026.5 1023.59L13087.3 989.265L13262.8 910.624L13431.4 863.266L13555.2 821.121" stroke="#700209" stroke-width="27.8067"/>
<path d="M12734.9 809.391L12769.3 993.176L12798.8 1231.27L12846.2 1365.96L12885.3 1451.99L12942 1617.68" stroke="#700209" stroke-width="25.1998"/>
<path d="M12466 1163.93L12803.1 1232.14L13144.2 1188.26L13494.4 1122.22L13835.5 1157.84L14289.5 1189.56" stroke="#700209" stroke-width="31.2825"/>
<path d="M12131.4 1099.62L12307 1155.67L12462.5 1173.05L12488.6 1280.8L12519.4 1394.63L12545.1 1615.75" stroke="#700209" stroke-width="38.2342"/>
<path d="M11770 1392.9L12126.7 1348.14L12509.4 1392.9L12881.3 1451.55L13267.2 1483.7H13634.3L14015.3 1451.55L14399 1334.68L14771.8 1273.85L15130.6 1334.68L15517.3 1451.55" stroke="#700209" stroke-width="28.6756"/>
<path d="M12123.6 1093.54L12163.6 1614.79" stroke="#700209" stroke-width="46.0548"/>
<path d="M12091.9 757.688L12117.5 1113.96" stroke="#700209" stroke-width="46.0548"/>
<path d="M11154.7 834.591L11463.6 685.564" stroke="#700209" stroke-width="26.9377"/>
<path d="M10884.5 973.623L11190.8 707.722" stroke="#700209" stroke-width="18.2481"/>
<path d="M10702.9 838.066L10914 859.356" stroke="#700209" stroke-width="24.3308"/>
<path d="M11428.5 1133.51L11478.9 699.033L11471 993.61L11446.7 1227.36L11428.5 1133.51Z" fill="#700209"/>
<path d="M11767.8 1606.1V1405.5V1237.35V1026.63L11787.3 649.502" stroke="#700209" stroke-width="39.1031"/>
<path d="M11420.2 1372.48L11776.5 1275.59" stroke="#700209" stroke-width="20.855"/>
<path d="M11408.9 1461.98L11770.8 1395.94" stroke="#700209" stroke-width="20.855"/>
<path d="M10197.1 1163.49L10225.4 1172.61L10503.9 1163.49" stroke="#700209" stroke-width="24.3308"/>
<path d="M10592.9 782.887L10508.7 1169.14L10466.5 1259.51" stroke="#700209" stroke-width="29.5446"/>
<path d="M9923.15 903.751C9931.54 903.751 10143.4 868.783 10242.1 853.398" stroke="#700209" stroke-width="20.9803"/>
<path d="M10249.7 855.445L10551.7 955.376L10855.8 1009.69L10818.9 1076.6L10790.2 1160.88L10728.5 1200.86" stroke="#700209" stroke-width="22.5929"/>
<path d="M8454.53 838.712V811.438H8479.71L8454.53 838.712Z" fill="#700209"/>
<path d="M8719.04 538.71L8634.96 773.674" stroke="#700209" stroke-width="16.7842"/>
<path d="M8381.1 1312.87L8807 991.868" stroke="#700209" stroke-width="20.9803"/>
<path d="M8634.96 773.673L8555.24 1111.45" stroke="#700209" stroke-width="16.7842"/>
<path d="M8274.11 1163.91L8553.14 1107.26" stroke="#700209" stroke-width="16.7842"/>
<path d="M8804.9 998.162L9132.2 849.202" stroke="#700209" stroke-width="29.3724"/>
<path d="M9228.54 347.746C9229.68 340.888 9225.05 334.402 9218.19 333.259C9211.33 332.116 9204.84 336.749 9203.7 343.607L9228.54 347.746ZM9132.2 849.202L9144.37 852.412L9144.52 851.848L9144.61 851.272L9132.2 849.202ZM9031.49 1231.04L9041.62 1238.53L9043.05 1236.59L9043.66 1234.25L9031.49 1231.04ZM8960.16 1327.55L8950.04 1320.07L8949.39 1320.95L8948.9 1321.92L8960.16 1327.55ZM8939.18 1369.51L8944.74 1380.81L8948.54 1378.93L8950.44 1375.14L8939.18 1369.51ZM8798.61 1438.75L8793.05 1427.45L8790.69 1428.61L8789 1430.62L8798.61 1438.75ZM9203.7 343.607L9119.78 847.133L9144.61 851.272L9228.54 347.746L9203.7 343.607ZM9120.03 845.992L9019.32 1227.83L9043.66 1234.25L9144.37 852.412L9120.03 845.992ZM9021.37 1223.56L8950.04 1320.07L8970.28 1335.03L9041.62 1238.53L9021.37 1223.56ZM8948.9 1321.92L8927.92 1363.88L8950.44 1375.14L8971.42 1333.18L8948.9 1321.92ZM8933.62 1358.22L8793.05 1427.45L8804.17 1450.04L8944.74 1380.81L8933.62 1358.22ZM8789 1430.62L8640.39 1606.37L8659.61 1622.63L8808.22 1446.88L8789 1430.62Z" fill="#700209"/>
<path d="M8714.69 1260.41L9025.2 1226.85" stroke="#700209" stroke-width="29.3724"/>
<path d="M8590.91 1340.14L8932.88 1371.61" stroke="#700209" stroke-width="29.3724"/>
<path d="M8082.58 1284.5L7936 1509.5" stroke="#700209" stroke-width="19.3152"/>
<path d="M8181.5 1624L7852.5 1481.5" stroke="#700209" stroke-width="31.28"/>
<path d="M8588.81 1340.14L8431.46 1382.1L8267 1625.5" stroke="#700209" stroke-width="29.3724"/>
<path d="M8446.14 1377.9L8804.9 1436.65" stroke="#700209" stroke-width="29.3724"/>
<path d="M8907.71 786.261L9211.92 345.676" stroke="#700209" stroke-width="16.7842"/>
<path d="M8920.29 769.477L8802.8 998.162" stroke="#700209" stroke-width="12.5882"/>
<path d="M8634.96 771.576L8922.39 616.322L9000.02 654.086" stroke="#700209" stroke-width="20.9803"/>
<path d="M9138.49 849.202L9469.98 1004.46L9377.67 1277.2L9276.96 1371.61L9174.16 1434.55L9034.5 1608" stroke="#700209" stroke-width="25.1763"/>
<path d="M8928.69 1371.61L9268.57 1375.81" stroke="#700209" stroke-width="25.1763"/>
<path d="M8792.32 1440.85C8795.67 1442.52 9046.88 1437.35 9172.06 1434.55" stroke="#700209" stroke-width="25.1763"/>
<path d="M9541.31 771.575L9469.98 1008.65" stroke="#700209" stroke-width="25.1763"/>
<path d="M9023.1 1224.75L9373.47 1270.91" stroke="#700209" stroke-width="20.9803"/>
<path d="M9541.31 775.771L9874.9 1077.89" stroke="#700209" stroke-width="20.9803"/>
<path d="M9476.27 1002.36L9803.56 1226.85" stroke="#700209" stroke-width="20.9803"/>
<path d="M9381.86 1273L9725.94 1344.34" stroke="#700209" stroke-width="20.9803"/>
<path d="M9700.76 1367.41L9803.56 1226.85L9876.99 1071.59L9933.64 901.653" stroke="#700209" stroke-width="29.3724"/>
<path d="M9264.37 1377.91L9711.25 1361.12" stroke="#700209" stroke-width="29.3724"/>
<path d="M9163.67 1449.24L9711.25 1359.02" stroke="#700209" stroke-width="29.3724"/>
<path d="M9547.61 1384.2L9424.69 1609.96" stroke="#700209" stroke-width="46.1566"/>
<path d="M9686.07 1363.22L10009.2 1367.41" stroke="#700209" stroke-width="29.3724"/>
<path d="M9553.9 1390.49L9918.96 1440.85" stroke="#700209" stroke-width="29.3724"/>
<path d="M10040.6 1367.41L9910.57 1438.75L9819.69 1607.06" stroke="#700209" stroke-width="33.5684"/>
<path d="M9807.76 1226.85L10133 1335.94" stroke="#700209" stroke-width="29.3724"/>
<path d="M9992.39 1367.41H10046.9L10126.7 1338.04" stroke="#700209" stroke-width="29.3724"/>
<path d="M9921.05 1432.45L10300.8 1405.18" stroke="#700209" stroke-width="29.3724"/>
<path d="M9874.9 1073.69L10210.2 1174.79" stroke="#700209" stroke-width="29.3724"/>
<path d="M10118.3 1346.43L10192.8 1182.17" stroke="#700209" stroke-width="29.3724"/>
<path d="M10207.9 1604.16L10284 1403.08L10357.4 1300.28" stroke="#700209" stroke-width="29.3724"/>
<path d="M10114.1 1340.14C10122.4 1338.07 10282.6 1314.8 10357.4 1304.47" stroke="#700209" stroke-width="29.3724"/>
<path d="M10275.6 1415.67L10649.1 1373.71" stroke="#700209" stroke-width="16.7842"/>
<path d="M10714.1 1198.71C10716.8 1187.45 10709.9 1176.09 10698.7 1173.34C10687.4 1170.58 10676.1 1177.47 10673.3 1188.73L10714.1 1198.71ZM10673.3 1188.73L10570 1610.76L10610.7 1620.74L10714.1 1198.71L10673.3 1188.73Z" fill="#700209"/>
<path d="M10344.9 1308.67L10691 1189.08" stroke="#700209" stroke-width="29.3724"/>
<path d="M10707.2 1198.54L11062.4 1319.16" stroke="#700209" stroke-width="29.3724"/>
<path d="M11134.3 835.025L11110.6 1082.08L11087.6 1247.83L11022.5 1428.26L10983.4 1614.79" stroke="#700209" stroke-width="41.9605"/>
<path d="M10661.7 1375.81L11016.2 1434.55" stroke="#700209" stroke-width="25.1763"/>
<path d="M11033 1430.35L11398.1 1466.02" stroke="#700209" stroke-width="25.1763"/>
<path d="M11066.6 1319.16L11412.8 1365.32" stroke="#700209" stroke-width="25.1763"/>
<path d="M11087.6 1241.53L11433.7 1287.69" stroke="#700209" stroke-width="25.1763"/>
<path d="M11077.1 1245.73L10789.6 1222.65" stroke="#700209" stroke-width="25.1763"/>
<path d="M9928.63 902.369L9994.49 786.262" stroke="#700209" stroke-width="20.9803"/>
<path d="M10513.9 1167.84L10817.6 1074.86" stroke="#700209" stroke-width="24.3308"/>
<path d="M11113.9 832.852C11026.1 888.9 10880.1 982.4 10878.4 984.485L10822.4 1086.15L11110 879.776L11113.9 832.852Z" fill="#700209"/>
<path d="M10792.8 1158.71L11095.6 1085.72" stroke="#700209" stroke-width="20.855"/>
<path d="M11123 1077.58L11446.7 1068.77" stroke="#700209" stroke-width="20.855"/>
<path d="M11447.1 1066.67L11777.3 1040.53" stroke="#700209" stroke-width="20.855"/>
<path d="M11435.4 1286.01L11774.3 1241.26" stroke="#700209" stroke-width="20.855"/>
<path d="M11140.4 850.232L11437.1 872.825" stroke="#700209" stroke-width="28.6756"/>
<path d="M11448.4 882.817L11773.9 729.881" stroke="#700209" stroke-width="21.724"/>
<path d="M11472.8 699.467L11759.5 733.356L11802.5 726.405L11480.2 671.226L11472.8 699.467Z" fill="#700209"/>
<path d="M11111.3 862.397L11122.6 843.714L11163 825.032L11184.7 720.322" stroke="#700209" stroke-width="26.9377"/>
<path d="M11973.7 1169.14L11786.5 1229.53L11779.1 1293.83L12114.1 1134.82L12138 1092.67L11973.7 1169.14Z" fill="#700209"/>
<path d="M11766.9 1036.62L12108.4 903.673L12441.2 840.673L12771.9 1008.38L13096.9 1027.93" stroke="#700209" stroke-width="28.6756"/>
<path d="M12116.7 1092.24C12124.3 1093.97 12372.1 1217.51 12495.1 1279.06" stroke="#700209" stroke-width="28.6756"/>
<path d="M12434.3 845.452L12464.7 1184.35" stroke="#700209" stroke-width="38.2342"/>
<path d="M12496.8 1268.63L12840.9 1366.39L13204.2 1334.68L13574.8 1344.67L13921.9 1300.35L14292.1 1190.86L14657.1 998.255C14659.5 996.972 14662.4 996.915 14664.9 998.1L15366.1 1333.37L15553 1484" stroke="#700209" stroke-width="31.2825"/>
<path d="M13097.7 1031.84L13146.4 1200.86L13199 1333.37L13265.9 1486.74L13339.9 1611.89" stroke="#700209" stroke-width="35.6273" stroke-linecap="square"/>
<path d="M13437 854.576L13497.4 1133.95L13571.3 1348.58L13637.8 1483.7L13732 1622.51" stroke="#700209" stroke-width="37.3652"/>
<path d="M14288.2 1189.99L14404.6 1357.7L14520 1632.17" stroke="#700209" stroke-width="38.2342"/>
<path d="M14148.3 962.762L14247.8 1189.56" stroke="#700209" stroke-width="27.8067"/>
<path d="M13915.4 1134.38L13782.9 1086.15L13829.4 1154.8L13908.9 1159.58L13915.4 1134.38Z" fill="#700209"/>
<path d="M14650.5 901.5L14753.5 970.582L14804.8 1068.77" stroke="#700209" stroke-width="33.8894"/>
<path d="M14998.1 1157.41L15154.5 1340.76L15305.2 1627.34" stroke="#700209" stroke-width="33.8894"/>
<path d="M14749.6 965.803L15052.9 892.81L15358.8 803.308L15528.2 858.921" stroke="#700209" stroke-width="19.3152"/>
<path d="M9694.01 771.156L9804.8 893.245L9785.68 994.479" stroke="#700209" stroke-width="27.8067"/>
<path d="M9801.64 893.365L9964.85 835.419" stroke="#700209" stroke-width="25.1098"/>
<g filter="url(#filter5_f_737_2313)">
<path d="M12037.6 743.785L12084.4 686.84C12090.5 679.404 12098 673.279 12106.6 668.832L12207 616.482" stroke="#700209" stroke-width="38.2342"/>
<path d="M11170.8 710.763V724.232H11197.7V710.763H11170.8ZM11184.3 698.598L11172.4 692.209L11170.8 695.2V698.598H11184.3ZM11500.3 140.599C11503.8 134.05 11501.3 125.881 11494.8 122.353C11488.3 118.824 11480.1 121.272 11476.6 127.82L11500.3 140.599ZM11197.7 710.763V698.598H11170.8V710.763H11197.7ZM11196.1 704.987L11500.3 140.599L11476.6 127.82L11172.4 692.209L11196.1 704.987Z" fill="#700209"/>
<path d="M10687.7 833.721L10945.7 609.096" stroke="#700209" stroke-width="28.6756"/>
<path d="M7837.5 710.5L8206.97 826.124H8454.54" stroke="#700209" stroke-width="29.3724"/>
<path d="M8716.12 536.034L8341.24 970.887" stroke="#700209" stroke-width="8.3921"/>
<path d="M8718.17 540.448L8985.34 104.403" stroke="#700209" stroke-width="16.7842"/>
<path d="M8993.73 81.3247L9188.84 381.342" stroke="#700209" stroke-width="25.1763"/>
<path d="M9214.02 343.578L9373.47 568.066L9545.51 782.065" stroke="#700209" stroke-width="25.1763"/>
<path d="M9992.93 788.101L10278.4 458.34C10281.4 454.858 10286.8 454.769 10289.9 458.148L10598.2 791.143" stroke="#700209" stroke-width="20.855"/>
<path d="M10587.7 788.536L10888 938.865" stroke="#700209" stroke-width="24.3308"/>
<path d="M10960.1 619.088L11145.6 738.135L11177.3 726.839L10966.3 584.632C10961.1 581.141 10954.2 581.653 10949.6 585.871L10931.8 602.144L10960.1 619.088Z" fill="#700209"/>
<path d="M11488 133.341L11787.3 656.888" stroke="#700209" stroke-width="26.9377"/>
<path d="M12087.6 775.501L12409.1 339.718" stroke="#700209" stroke-width="38.2342"/>
<path d="M12403.4 336.121L12740.6 821.869" stroke="#700209" stroke-width="25.1998" stroke-linecap="round"/>
<path d="M12959.1 956.679L12751 833.287V811.563L12959.1 956.679Z" fill="#700209"/>
<path d="M13219.8 744.219L13226.4 757.91L13227.8 757.225L13229.1 756.264L13219.8 744.219ZM13518.9 532.942C13525.5 527.815 13526.8 518.267 13521.7 511.614C13516.5 504.962 13507 503.725 13500.3 508.851L13518.9 532.942ZM12924.5 903.895L13226.4 757.91L13213.2 730.528L12911.2 876.513L12924.5 903.895ZM13229.1 756.264L13518.9 532.942L13500.3 508.851L13210.5 732.174L13229.1 756.264Z" fill="#700209"/>
<path d="M12907.9 884.555L12860.1 889.769L12830.1 868.914L12947 860.224L12954.3 953.203L12915.7 928.872L12907.9 884.555Z" fill="#700209"/>
<path d="M14155.2 966.672L14452.9 922.355L14752.7 962.762" stroke="#700209" stroke-width="23.4619"/>
<path d="M14031.4 892.376L14291.7 947.121" stroke="#700209" stroke-width="23.4619"/>
<path d="M14659.2 906.714L14660.8 922.71L14664.6 922.339L14667.8 920.347L14659.2 906.714ZM14953.4 722.929L14961.9 736.562L14963.5 735.555L14964.8 734.2L14953.4 722.929ZM15271.2 422.678C15277.4 416.347 15277.3 406.169 15271 399.944C15264.6 393.72 15254.5 393.806 15248.2 400.136L15271.2 422.678ZM14455.3 943.131L14660.8 922.71L14657.6 890.717L14452.1 911.137L14455.3 943.131ZM14667.8 920.347L14961.9 736.562L14944.9 709.296L14650.7 893.08L14667.8 920.347ZM14964.8 734.2L15271.2 422.678L15248.2 400.136L14941.9 711.658L14964.8 734.2Z" fill="#700209"/>
<path d="M15264.9 408.366L15530.4 713.371" stroke="#700209" stroke-width="18.2481"/>
<path d="M9399 600.406L9691.4 770.722L9964.26 826.335" stroke="#700209" stroke-width="27.8067"/>
<path d="M11781.7 649.068L12092.3 765.943" stroke="#700209" stroke-width="27.8067"/>
<path d="M14456.3 923.659L14515.9 1069.21" stroke="#700209" stroke-width="32.1515"/>
<path d="M13510 530.02L13585.2 962.327" stroke="#700209" stroke-width="29.5446"/>
<path d="M10851.5 1013.16L10897.1 941.907L10917.5 854.142L10927.1 840.238L10950.1 603.447" stroke="#700209" stroke-width="24.3308"/>
<path d="M10287.1 459.2L10241.9 855.879L10189.3 1170.88" stroke="#700209" stroke-width="34.7583"/>
<path d="M9006.17 83.4075C9007.32 75.3785 9001.74 67.9372 8993.71 66.787C8985.69 65.6367 8978.24 71.213 8977.09 79.2419L9006.17 83.4075ZM8901.27 815.618L9006.17 83.4075L8977.09 79.2419L8872.19 811.453L8901.27 815.618Z" fill="#700209"/>
<path d="M11375 1585.61L11429.5 1281.4L11446.3 872.281L11465.2 691.851L11485.8 150.286" stroke="#700209" stroke-width="30.4135"/>
<path d="M12428.2 854.576L12407.3 351.884" stroke="#700209" stroke-width="31.2825"/>
<path d="M13214.6 744.653L13261.5 922.789L13265.4 954.941" stroke="#700209" stroke-width="29.5446"/>
<path d="M14947.7 731.619L15055 892.811L15158 1151.76L15323.1 1312.95" stroke="#700209" stroke-width="26.0688"/>
<path d="M15522.5 1189.13L15463.5 1144.37L15356.1 791.577L15257.5 417.49" stroke="#700209" stroke-width="33.0204"/>
<path d="M13513.1 519.616C13628.5 613.381 13803.8 756.818 13803.8 756.818M13803.8 756.818L13858.1 904.541L13927.1 1163.06M13803.8 756.818L14161.3 970.582" stroke="#700209" stroke-width="23.4619"/>
</g>
<path d="M12037.6 743.785L12084.4 686.84C12090.5 679.404 12098 673.279 12106.6 668.832L12207 616.482" stroke="#700209" stroke-width="38.2342"/>
<path d="M11170.8 710.763V724.232H11197.7V710.763H11170.8ZM11184.3 698.598L11172.4 692.209L11170.8 695.2V698.598H11184.3ZM11500.3 140.599C11503.8 134.05 11501.3 125.881 11494.8 122.353C11488.2 118.824 11480.1 121.272 11476.6 127.82L11500.3 140.599ZM11197.7 710.763V698.598H11170.8V710.763H11197.7ZM11196.1 704.987L11500.3 140.599L11476.6 127.82L11172.4 692.209L11196.1 704.987Z" fill="#700209"/>
<path d="M10687.7 833.721L10945.7 609.096" stroke="#700209" stroke-width="28.6756"/>
<path d="M7830 710.5L8206.97 826.124L8456.33 820.933" stroke="#700209" stroke-width="19.3152"/>
<path d="M8219.56 828.222L8095.77 970.888L7962.5 1041L7886 1315.5" stroke="#700209" stroke-width="19.3152"/>
<path d="M7831 858.5L8097.87 968.789H8351.73" stroke="#700209" stroke-width="19.3152"/>
<path d="M7708 935L8328.5 1204" stroke="#700209" stroke-width="19.3152"/>
<path d="M7751.5 1085L8169.2 1184.89L7907 1293" stroke="#700209" stroke-width="19.3152"/>
<path d="M8498.59 1224.75L8169.2 1184.89" stroke="#700209" stroke-width="20.9803"/>
<path d="M8261.52 1163.91L8360.12 962.496" stroke="#700209" stroke-width="20.9803"/>
<path d="M8355.93 964.594L8637.06 767.379" stroke="#700209" stroke-width="20.9803"/>
<path d="M7821.5 1186.5L8087.38 1273L8339.14 1314.96L8597.2 1340.14L8714.69 1260.42L8813.3 989.77" stroke="#700209" stroke-width="33"/>
<path d="M8078.99 1291.89L8431.46 1386.3" stroke="#700209" stroke-width="29.3724"/>
<path d="M7794 1418.5L7907.5 1293.5L8076.89 1281.4" stroke="#700209" stroke-width="19.3152"/>
<path d="M8716.12 536.034L8341.24 970.887" stroke="#700209" stroke-width="8.3921"/>
<g filter="url(#filter6_f_737_2313)">
<path d="M8219.56 828.222L8095.77 970.888L7962.5 1041L7879 1320.5" stroke="#700209" stroke-width="19.3152"/>
<path d="M7842 858C7946.02 900.68 8097.87 968.789 8097.87 968.789H8351.73" stroke="#700209" stroke-width="19.3152"/>
<path d="M7724 944L8328.65 1203.77" stroke="#700209" stroke-width="19.3152"/>
<path d="M7751.5 1081L8169.2 1184.89L7907 1293" stroke="#700209" stroke-width="19.3152"/>
<path d="M8498.59 1224.75L8169.2 1184.89" stroke="#700209" stroke-width="20.9803"/>
<path d="M8261.52 1163.91L8360.12 962.496" stroke="#700209" stroke-width="20.9803"/>
<path d="M8355.93 964.594L8637.06 767.379" stroke="#700209" stroke-width="20.9803"/>
<path d="M7826 1185.5L8087.38 1273L8339.14 1314.96L8597.2 1340.14L8714.69 1260.42L8813.3 989.77" stroke="#700209" stroke-width="33"/>
<path d="M8078.99 1291.89L8431.46 1386.3" stroke="#700209" stroke-width="29.3724"/>
<path d="M7787 1421L7907.5 1293.5L8076.89 1281.4" stroke="#700209" stroke-width="19.3152"/>
<path d="M8716.12 536.034L8341.24 970.887" stroke="#700209" stroke-width="8.3921"/>
</g>
<path d="M8718.17 540.448L8985.34 104.403" stroke="#700209" stroke-width="16.7842"/>
<path d="M8993.73 81.3247L9188.84 381.342" stroke="#700209" stroke-width="25.1763"/>
<path d="M9214.02 343.578L9373.47 568.066L9545.51 782.065" stroke="#700209" stroke-width="25.1763"/>
<path d="M9992.93 788.101L10278.4 458.34C10281.4 454.858 10286.8 454.769 10289.9 458.148L10598.2 791.143" stroke="#700209" stroke-width="20.855"/>
<path d="M10587.7 788.536L10888 938.865" stroke="#700209" stroke-width="24.3308"/>
<path d="M10960.1 619.088L11145.6 738.135L11177.3 726.839L10966.3 584.632C10961.1 581.141 10954.2 581.653 10949.6 585.871L10931.8 602.144L10960.1 619.088Z" fill="#700209"/>
<path d="M11488 133.341L11787.3 656.888" stroke="#700209" stroke-width="26.9377"/>
<path d="M12087.6 775.501L12409.1 339.718" stroke="#700209" stroke-width="38.2342"/>
<path d="M12403.4 336.121L12740.6 821.869" stroke="#700209" stroke-width="25.1998" stroke-linecap="round"/>
<path d="M12959.1 956.679L12751 833.287V811.563L12959.1 956.679Z" fill="#700209"/>
<path d="M13219.8 744.219L13226.4 757.91L13227.8 757.225L13229.1 756.264L13219.8 744.219ZM13518.9 532.942C13525.5 527.815 13526.8 518.267 13521.7 511.614C13516.5 504.962 13507 503.725 13500.3 508.851L13518.9 532.942ZM12924.5 903.895L13226.4 757.91L13213.2 730.528L12911.2 876.513L12924.5 903.895ZM13229.1 756.264L13518.9 532.942L13500.3 508.851L13210.5 732.174L13229.1 756.264Z" fill="#700209"/>
<path d="M12907.9 884.555L12860.1 889.769L12830.1 868.914L12947 860.224L12954.3 953.203L12915.7 928.872L12907.9 884.555Z" fill="#700209"/>
<path d="M14155.2 966.672L14452.9 922.355L14752.6 962.762" stroke="#700209" stroke-width="23.4619"/>
<path d="M14031.4 892.376L14291.7 947.121" stroke="#700209" stroke-width="23.4619"/>
<path d="M14659.2 906.714L14660.8 922.71L14664.6 922.339L14667.8 920.347L14659.2 906.714ZM14953.4 722.929L14961.9 736.562L14963.5 735.555L14964.8 734.2L14953.4 722.929ZM15271.2 422.678C15277.4 416.347 15277.3 406.169 15271 399.944C15264.6 393.72 15254.4 393.806 15248.2 400.136L15271.2 422.678ZM14455.3 943.131L14660.8 922.71L14657.6 890.717L14452.1 911.137L14455.3 943.131ZM14667.8 920.347L14961.9 736.562L14944.9 709.296L14650.7 893.08L14667.8 920.347ZM14964.8 734.2L15271.2 422.678L15248.2 400.136L14941.9 711.658L14964.8 734.2Z" fill="#700209"/>
<path d="M15264.9 408.366L15530.4 713.371" stroke="#700209" stroke-width="19.3152"/>
<path d="M9399 600.406L9691.4 770.722L9964.26 826.335" stroke="#700209" stroke-width="27.8067"/>
<path d="M11781.7 649.068L12092.3 765.943" stroke="#700209" stroke-width="27.8067"/>
<path d="M14456.3 923.659L14515.9 1069.21" stroke="#700209" stroke-width="32.1515"/>
<path d="M13510 530.02L13585.2 962.327" stroke="#700209" stroke-width="29.5446"/>
<path d="M10851.5 1013.16L10897.1 941.907L10917.5 854.142L10927.1 840.238L10950.1 603.447" stroke="#700209" stroke-width="24.3308"/>
<path d="M10287.1 459.2L10241.9 855.879L10189.3 1170.88" stroke="#700209" stroke-width="34.7583"/>
<path d="M9006.17 83.4075C9007.32 75.3785 9001.74 67.9372 8993.71 66.787C8985.68 65.6367 8978.24 71.213 8977.09 79.2419L9006.17 83.4075ZM8901.27 815.618L9006.17 83.4075L8977.09 79.2419L8872.19 811.453L8901.27 815.618Z" fill="#700209"/>
<path d="M11374.6 1608.03L11429.5 1281.4L11446.3 872.281L11465.2 691.851L11485.8 150.286" stroke="#700209" stroke-width="30.4135"/>
<path d="M12428.2 854.576L12407.3 351.884" stroke="#700209" stroke-width="31.2825"/>
<path d="M13214.6 744.653L13261.5 922.789L13265.4 954.941" stroke="#700209" stroke-width="29.5446"/>
<path d="M14947.7 731.619L15055 892.811L15158 1151.76L15323.1 1312.95" stroke="#700209" stroke-width="26.0688"/>
<path d="M15522.5 1189.13L15463.5 1144.37L15356.1 791.577L15257.5 417.49" stroke="#700209" stroke-width="33.0204"/>
<path d="M13513.1 519.616C13628.5 613.381 13803.8 756.818 13803.8 756.818M13803.8 756.818L13858.1 904.541L13927.1 1163.06M13803.8 756.818L14161.3 970.582" stroke="#700209" stroke-width="23.4619"/>
<g filter="url(#filter7_f_737_2313)">
<path d="M12512.8 1268.63L12856.9 1366.39L13220.2 1334.68L13590.8 1344.67L13937.9 1300.35L14308.1 1190.86L14673.1 998.255C14675.5 996.972 14678.4 996.915 14680.9 998.1L15382.1 1333.37L15569 1484" stroke="#700209" stroke-width="31.2825"/>
</g>
<g filter="url(#filter8_f_737_2313)">
<path d="M14765.6 965.803L15068.9 892.81L15374.8 803.308L15544.2 858.921" stroke="#700209" stroke-width="19.3152"/>
</g>
<path d="M8606.99 1099.07L8560.64 1097.14L8550.01 1115.49H8593.47L8606.99 1099.07Z" fill="#700209"/>
<path d="M10924.8 842.18L11159.5 731.117" stroke="#700209" stroke-width="25.1098"/>
<path d="M8797.25 891.433L8723.85 993.804L8893.82 816.104L8888.99 794.857L8876.44 805.481L8797.25 891.433Z" fill="#700209"/>
<path d="M7905 1621.5H15601.5" stroke="#700209" stroke-width="50"/>
<g filter="url(#filter9_f_737_2313)">
<path d="M7905 1621.5H15601.5" stroke="#700209" stroke-width="50"/>
</g>
<path d="M4082.55 727.254L3762.88 879.844L3751.29 1064.3L4070.96 1039.19L4082.55 727.254Z" fill="#59080D" fill-opacity="0.4"/>
<path d="M4705.46 348.676L4396.42 761.055L4410.91 906.885L4738.3 838.316L4705.46 348.676Z" fill="#4C080C"/>
<path d="M3176.67 1010.22L2863.76 954.207L2811.61 1165.71L3109.06 1079.76L3176.67 1010.22Z" fill="#59080D" fill-opacity="0.4"/>
<path d="M1425.74 860.529L1124.42 996.701L1116.7 979.317L1196.86 818.035V793.891L1526.18 340.95L1425.74 860.529Z" fill="#4C080C"/>
<path d="M2543.13 849.905L2239.88 903.988L2181.93 1074.93L2495.8 1162.81L2543.13 849.905Z" fill="#4C080C" fill-opacity="0.8"/>
<path d="M7558.32 416.279L7252.18 728.219L7365.17 889.501L7660.69 797.754L7558.32 416.279Z" fill="#59080D" fill-opacity="0.4"/>
<path d="M5803.53 1123.22L5748.49 888.536L6132.86 1113.56L6144.45 1150.26L5803.53 1123.22Z" fill="#59080D" fill-opacity="0.4"/>
<path d="M5869.21 834.453L5809.33 533.136L5844.1 541.828L6113.54 761.055L6161.83 898.193L5869.21 834.453Z" fill="#4C080C"/>
<path d="M5524.43 742.706C5433.32 788.74 5248.22 880.423 5236.63 878.878L5239.53 940.687L5361.21 1011.19L5394.05 987.043L5571.75 905.919L5524.43 742.706Z" fill="#4C080C"/>
<path d="M3481.85 715.665L3207.57 955.173L3182.46 999.598L3458.67 828.658L3481.85 760.09V715.665Z" fill="#59080D" fill-opacity="0.4"/>
<path d="M1288.6 114.962L1219.07 613.294L939.965 766.85L1024.95 536.999L1288.6 114.962Z" fill="#59080D" fill-opacity="0.4"/>
<path d="M1684.57 1269.05L1774.38 1003.46L2104.67 1223.65L2020.65 1344.37L1684.57 1269.05Z" fill="#59080D" fill-opacity="0.4"/>
<path d="M896.506 1333.75L786.409 1373.35L1108.97 1438.05L1233.56 1373.35L896.506 1333.75Z" fill="#59080D" fill-opacity="0.4"/>
<path d="M859.806 1101.97L597.12 1157.02L575.873 1167.64V1150.26L665.689 959.036L941.896 770.713L859.806 1101.97Z" fill="#4C080C" fill-opacity="0.6"/>
<path d="M6968.45 998.389C6973.67 1010.55 7055.64 1187.39 7087.07 1271.24L7225.8 1627.34" stroke="#700209" stroke-width="33.8894"/>
<path d="M5873.13 834.155L6150.76 898.893L6458.81 967.106" stroke="#700209" stroke-width="23.4619"/>
<path d="M5753.21 875.431L6106.01 1116.13L6430.98 1622.51" stroke="#700209" stroke-width="30.4135"/>
<path d="M5403.89 1027.5L5732.36 863.266" stroke="#700209" stroke-width="27.8067"/>
<path d="M5330.47 1023.59L5391.29 989.265L5566.82 910.624L5735.4 863.266L5859.23 821.121" stroke="#700209" stroke-width="27.8067"/>
<path d="M5038.93 809.391L5073.26 993.176L5102.8 1231.27L5150.16 1365.96L5189.26 1451.99L5245.99 1617.68" stroke="#700209" stroke-width="25.1998"/>
<path d="M4769.99 1163.93L5107.14 1232.14L5448.21 1188.26L5798.4 1122.22L6139.47 1157.84L6593.5 1189.56" stroke="#700209" stroke-width="31.2825"/>
<path d="M4435.44 1099.62L4610.97 1155.67L4766.51 1173.05L4792.58 1280.8L4823.43 1394.63L4849.06 1615.75" stroke="#700209" stroke-width="38.2342"/>
<path d="M4073.95 1392.9L4430.66 1348.14L4813.43 1392.9L5185.35 1451.55L5571.17 1483.7H5938.3L6319.34 1451.55L6702.98 1334.68L7075.77 1273.85L7434.65 1334.68L7821.33 1451.55" stroke="#700209" stroke-width="28.6756"/>
<path d="M4427.62 1093.54L4467.59 1614.79" stroke="#700209" stroke-width="46.0548"/>
<path d="M4395.9 757.688L4421.54 1113.96" stroke="#700209" stroke-width="46.0548"/>
<path d="M3458.73 834.591L3767.65 685.564" stroke="#700209" stroke-width="26.9377"/>
<path d="M3188.48 973.623L3494.79 707.722" stroke="#700209" stroke-width="18.2481"/>
<path d="M3006.87 838.066L3218.03 859.356" stroke="#700209" stroke-width="24.3308"/>
<path d="M3732.45 1133.51L3782.85 699.033L3775.03 993.61L3750.7 1227.36L3732.45 1133.51Z" fill="#700209"/>
<path d="M4071.78 1606.1V1405.5V1237.35V1026.63L4091.33 649.502" stroke="#700209" stroke-width="39.1031"/>
<path d="M3724.2 1372.48L4080.47 1275.59" stroke="#700209" stroke-width="20.855"/>
<path d="M3712.9 1461.98L4074.82 1395.94" stroke="#700209" stroke-width="20.855"/>
<path d="M2501.14 1163.49L2529.38 1172.61L2807.88 1163.49" stroke="#700209" stroke-width="24.3308"/>
<path d="M2896.95 782.887L2812.66 1169.14L2770.51 1259.51" stroke="#700209" stroke-width="29.5446"/>
<path d="M2227.15 903.751C2235.54 903.751 2447.45 868.783 2546.05 853.398" stroke="#700209" stroke-width="20.9803"/>
<path d="M2553.71 855.445L2855.67 955.376L3159.81 1009.69L3122.88 1076.6L3094.2 1160.88L3032.51 1200.86" stroke="#700209" stroke-width="22.5929"/>
<path d="M758.534 838.712V811.438H783.71L758.534 838.712Z" fill="#700209"/>
<path d="M1023.04 538.71L938.965 773.674" stroke="#700209" stroke-width="16.7842"/>
<path d="M685.104 1312.87L1111 991.868" stroke="#700209" stroke-width="20.9803"/>
<path d="M938.964 773.673L859.239 1111.45" stroke="#700209" stroke-width="16.7842"/>
<path d="M578.104 1163.91L857.142 1107.26" stroke="#700209" stroke-width="16.7842"/>
<path d="M1108.91 998.162L1436.2 849.202" stroke="#700209" stroke-width="29.3724"/>
<path d="M1532.53 347.746C1533.68 340.888 1529.04 334.402 1522.19 333.259C1515.33 332.116 1508.84 336.749 1507.7 343.607L1532.53 347.746ZM1436.2 849.202L1448.37 852.412L1448.52 851.848L1448.61 851.272L1436.2 849.202ZM1335.49 1231.04L1345.61 1238.53L1347.05 1236.59L1347.66 1234.25L1335.49 1231.04ZM1264.16 1327.55L1254.04 1320.07L1253.39 1320.95L1252.9 1321.92L1264.16 1327.55ZM1243.18 1369.51L1248.74 1380.81L1252.54 1378.93L1254.44 1375.14L1243.18 1369.51ZM1102.61 1438.75L1097.05 1427.45L1094.69 1428.61L1093 1430.62L1102.61 1438.75ZM1507.7 343.607L1423.78 847.133L1448.61 851.272L1532.53 347.746L1507.7 343.607ZM1424.02 845.992L1323.32 1227.83L1347.66 1234.25L1448.37 852.412L1424.02 845.992ZM1325.37 1223.56L1254.04 1320.07L1274.28 1335.03L1345.61 1238.53L1325.37 1223.56ZM1252.9 1321.92L1231.92 1363.88L1254.44 1375.14L1275.42 1333.18L1252.9 1321.92ZM1237.62 1358.22L1097.05 1427.45L1108.17 1450.04L1248.74 1380.81L1237.62 1358.22ZM1093 1430.62L944.387 1606.37L963.611 1622.63L1112.22 1446.88L1093 1430.62Z" fill="#700209"/>
<path d="M1018.69 1260.41L1329.2 1226.85" stroke="#700209" stroke-width="29.3724"/>
<path d="M894.906 1340.14L1236.88 1371.61" stroke="#700209" stroke-width="29.3724"/>
<path d="M386.584 1284.5L240 1509.5" stroke="#700209" stroke-width="19.3152"/>
<path d="M485.499 1624L156.499 1481.5" stroke="#700209" stroke-width="31.28"/>
<path d="M892.808 1340.14L735.456 1382.1L571 1625.5" stroke="#700209" stroke-width="29.3724"/>
<path d="M750.141 1377.9L1108.9 1436.65" stroke="#700209" stroke-width="29.3724"/>
<path d="M1211.71 786.261L1515.92 345.676" stroke="#700209" stroke-width="16.7842"/>
<path d="M1224.3 769.477L1106.81 998.162" stroke="#700209" stroke-width="12.5882"/>
<path d="M938.965 771.576L1226.39 616.322L1304.02 654.086" stroke="#700209" stroke-width="20.9803"/>
<path d="M1442.49 849.202L1773.98 1004.46L1681.67 1277.2L1580.96 1371.61L1478.16 1434.55L1338.5 1608" stroke="#700209" stroke-width="25.1763"/>
<path d="M1232.69 1371.61L1572.57 1375.81" stroke="#700209" stroke-width="25.1763"/>
<path d="M1096.32 1440.85C1099.67 1442.52 1350.88 1437.35 1476.06 1434.55" stroke="#700209" stroke-width="25.1763"/>
<path d="M1845.31 771.575L1773.98 1008.65" stroke="#700209" stroke-width="25.1763"/>
<path d="M1327.1 1224.75L1677.47 1270.91" stroke="#700209" stroke-width="20.9803"/>
<path d="M1845.31 775.771L2178.9 1077.89" stroke="#700209" stroke-width="20.9803"/>
<path d="M1780.27 1002.36L2107.56 1226.85" stroke="#700209" stroke-width="20.9803"/>
<path d="M1685.86 1273L2029.94 1344.34" stroke="#700209" stroke-width="20.9803"/>
<path d="M2004.76 1367.41L2107.56 1226.85L2180.99 1071.59L2237.64 901.653" stroke="#700209" stroke-width="29.3724"/>
<path d="M1568.37 1377.91L2015.25 1361.12" stroke="#700209" stroke-width="29.3724"/>
<path d="M1467.67 1449.24L2015.25 1359.02" stroke="#700209" stroke-width="29.3724"/>
<path d="M1851.61 1384.2L1728.69 1609.96" stroke="#700209" stroke-width="46.1566"/>
<path d="M1990.07 1363.22L2313.17 1367.41" stroke="#700209" stroke-width="29.3724"/>
<path d="M1857.9 1390.49L2222.96 1440.85" stroke="#700209" stroke-width="29.3724"/>
<path d="M2344.64 1367.41L2214.56 1438.75L2123.69 1607.06" stroke="#700209" stroke-width="33.5684"/>
<path d="M2111.76 1226.85L2436.96 1335.94" stroke="#700209" stroke-width="29.3724"/>
<path d="M2296.39 1367.41H2350.94L2430.66 1338.04" stroke="#700209" stroke-width="29.3724"/>
<path d="M2225.05 1432.45L2604.8 1405.18" stroke="#700209" stroke-width="29.3724"/>
<path d="M2178.9 1073.69L2514.17 1174.79" stroke="#700209" stroke-width="29.3724"/>
<path d="M2422.27 1346.43L2496.79 1182.17" stroke="#700209" stroke-width="29.3724"/>
<path d="M2511.92 1604.16L2588.01 1403.08L2661.44 1300.28" stroke="#700209" stroke-width="29.3724"/>
<path d="M2418.07 1340.14C2426.39 1338.07 2586.58 1314.8 2661.44 1304.47" stroke="#700209" stroke-width="29.3724"/>
<path d="M2579.62 1415.67L2953.07 1373.71" stroke="#700209" stroke-width="16.7842"/>
<path d="M3018.08 1198.71C3020.83 1187.45 3013.94 1176.09 3002.69 1173.34C2991.43 1170.58 2980.08 1177.47 2977.32 1188.73L3018.08 1198.71ZM2977.32 1188.73L2873.98 1610.76L2914.74 1620.74L3018.08 1198.71L2977.32 1188.73Z" fill="#700209"/>
<path d="M2648.86 1308.67L2995.03 1189.08" stroke="#700209" stroke-width="29.3724"/>
<path d="M3011.22 1198.54L3366.38 1319.16" stroke="#700209" stroke-width="29.3724"/>
<path d="M3438.31 835.025L3414.64 1082.08L3391.56 1247.83L3326.52 1428.26L3287.43 1614.79" stroke="#700209" stroke-width="41.9605"/>
<path d="M2965.66 1375.81L3320.22 1434.55" stroke="#700209" stroke-width="25.1763"/>
<path d="M3337.01 1430.35L3702.06 1466.02" stroke="#700209" stroke-width="25.1763"/>
<path d="M3370.58 1319.16L3716.75 1365.32" stroke="#700209" stroke-width="25.1763"/>
<path d="M3391.56 1241.53L3737.73 1287.69" stroke="#700209" stroke-width="25.1763"/>
<path d="M3381.07 1245.73L3093.64 1222.65" stroke="#700209" stroke-width="25.1763"/>
<path d="M2232.63 902.369L2298.49 786.262" stroke="#700209" stroke-width="20.9803"/>
<path d="M2817.87 1167.84L3121.57 1074.86" stroke="#700209" stroke-width="24.3308"/>
<path d="M3417.89 832.852C3330.12 888.9 3184.14 982.4 3182.4 984.485L3126.35 1086.15L3413.98 879.776L3417.89 832.852Z" fill="#700209"/>
<path d="M3096.81 1158.71L3399.64 1085.72" stroke="#700209" stroke-width="20.855"/>
<path d="M3427.01 1077.58L3750.7 1068.77" stroke="#700209" stroke-width="20.855"/>
<path d="M3751.13 1066.67L4081.34 1040.53" stroke="#700209" stroke-width="20.855"/>
<path d="M3739.4 1286.01L4078.3 1241.26" stroke="#700209" stroke-width="20.855"/>
<path d="M3444.39 850.232L3741.14 872.825" stroke="#700209" stroke-width="28.6756"/>
<path d="M3752.44 882.817L4077.86 729.881" stroke="#700209" stroke-width="21.724"/>
<path d="M3776.77 699.467L4063.52 733.356L4106.54 726.405L3784.15 671.226L3776.77 699.467Z" fill="#700209"/>
<path d="M3415.28 862.397L3426.58 843.714L3466.98 825.032L3488.71 720.322" stroke="#700209" stroke-width="26.9377"/>
<path d="M4277.72 1169.14L4090.46 1229.53L4083.08 1293.83L4418.06 1134.82L4441.96 1092.67L4277.72 1169.14Z" fill="#700209"/>
<path d="M4070.91 1036.62L4412.41 903.673L4745.22 840.673L5075.86 1008.38L5400.85 1027.93" stroke="#700209" stroke-width="28.6756"/>
<path d="M4420.67 1092.24C4428.31 1093.97 4676.14 1217.51 4799.1 1279.06" stroke="#700209" stroke-width="28.6756"/>
<path d="M4738.27 845.452L4768.68 1184.35" stroke="#700209" stroke-width="38.2342"/>
<path d="M4800.84 1268.63L5144.95 1366.39L5508.17 1334.68L5878.78 1344.67L6225.93 1300.35L6596.11 1190.86L6961.12 998.255C6963.55 996.972 6966.44 996.915 6968.92 998.1L7670.14 1333.37L7857 1484" stroke="#700209" stroke-width="31.2825"/>
<path d="M5401.72 1031.84L5450.38 1200.86L5502.95 1333.37L5569.86 1486.74L5643.88 1611.89" stroke="#700209" stroke-width="35.6273" stroke-linecap="square"/>
<path d="M5741.05 854.576L5801.44 1133.95L5875.3 1348.58L5941.78 1483.7L6035.98 1622.51" stroke="#700209" stroke-width="37.3652"/>
<path d="M6592.19 1189.99L6708.63 1357.7L6824.04 1632.17" stroke="#700209" stroke-width="38.2342"/>
<path d="M6452.29 962.762L6551.79 1189.56" stroke="#700209" stroke-width="27.8067"/>
<path d="M6219.41 1134.38L6086.9 1086.15L6133.39 1154.8L6212.9 1159.58L6219.41 1134.38Z" fill="#700209"/>
<path d="M6954.55 901.5L7057.52 970.582L7108.79 1068.77" stroke="#700209" stroke-width="33.8894"/>
<path d="M7302.13 1157.41L7458.54 1340.76L7609.2 1627.34" stroke="#700209" stroke-width="33.8894"/>
<path d="M7053.61 965.803L7356.88 892.81L7662.75 803.308L7832.2 858.921" stroke="#700209" stroke-width="19.3152"/>
<path d="M1998.01 771.156L2108.8 893.245L2089.68 994.479" stroke="#700209" stroke-width="27.8067"/>
<path d="M2105.64 893.365L2268.85 835.419" stroke="#700209" stroke-width="25.1098"/>
<g filter="url(#filter10_f_737_2313)">
<path d="M4341.59 743.785L4388.38 686.84C4394.49 679.404 4402.04 673.279 4410.57 668.832L4511.04 616.482" stroke="#700209" stroke-width="38.2342"/>
<path d="M3474.81 710.763V724.232H3501.74V710.763H3474.81ZM3488.28 698.598L3476.42 692.209L3474.81 695.2V698.598H3488.28ZM3804.27 140.599C3807.8 134.05 3805.35 125.881 3798.8 122.353C3792.25 118.824 3784.08 121.272 3780.55 127.82L3804.27 140.599ZM3501.74 710.763V698.598H3474.81V710.763H3501.74ZM3500.13 704.987L3804.27 140.599L3780.55 127.82L3476.42 692.209L3500.13 704.987Z" fill="#700209"/>
<path d="M2991.67 833.721L3249.75 609.096" stroke="#700209" stroke-width="28.6756"/>
<path d="M141.5 710.5L510.969 826.124H758.536" stroke="#700209" stroke-width="29.3724"/>
<path d="M1020.12 536.034L645.24 970.887" stroke="#700209" stroke-width="8.3921"/>
<path d="M1022.17 540.448L1289.34 104.403" stroke="#700209" stroke-width="16.7842"/>
<path d="M1297.73 81.3247L1492.84 381.342" stroke="#700209" stroke-width="25.1763"/>
<path d="M1518.02 343.578L1677.47 568.066L1849.51 782.065" stroke="#700209" stroke-width="25.1763"/>
<path d="M2296.93 788.101L2582.39 458.34C2585.4 454.858 2590.77 454.769 2593.9 458.148L2902.16 791.143" stroke="#700209" stroke-width="20.855"/>
<path d="M2891.73 788.536L3191.96 938.865" stroke="#700209" stroke-width="24.3308"/>
<path d="M3264.08 619.088L3449.61 738.135L3481.32 726.839L3270.31 584.632C3265.13 581.141 3258.23 581.653 3253.62 585.871L3235.84 602.144L3264.08 619.088Z" fill="#700209"/>
<path d="M3791.97 133.341L4091.33 656.888" stroke="#700209" stroke-width="26.9377"/>
<path d="M4391.56 775.501L4713.07 339.718" stroke="#700209" stroke-width="38.2342"/>
<path d="M4707.4 336.121L5044.55 821.869" stroke="#700209" stroke-width="25.1998" stroke-linecap="round"/>
<path d="M5263.12 956.679L5055.01 833.287V811.563L5263.12 956.679Z" fill="#700209"/>
<path d="M5523.81 744.219L5530.43 757.91L5531.85 757.225L5533.09 756.264L5523.81 744.219ZM5822.89 532.942C5829.54 527.815 5830.78 518.267 5825.65 511.614C5820.53 504.962 5810.98 503.725 5804.33 508.851L5822.89 532.942ZM5228.47 903.895L5530.43 757.91L5517.19 730.528L5215.23 876.513L5228.47 903.895ZM5533.09 756.264L5822.89 532.942L5804.33 508.851L5514.53 732.174L5533.09 756.264Z" fill="#700209"/>
<path d="M5211.85 884.555L5164.06 889.769L5134.08 868.914L5250.96 860.224L5258.34 953.203L5219.67 928.872L5211.85 884.555Z" fill="#700209"/>
<path d="M6459.24 966.672L6756.86 922.355L7056.65 962.762" stroke="#700209" stroke-width="23.4619"/>
<path d="M6335.42 892.376L6595.67 947.121" stroke="#700209" stroke-width="23.4619"/>
<path d="M6963.24 906.714L6964.83 922.71L6968.57 922.339L6971.76 920.347L6963.24 906.714ZM7257.38 722.929L7265.9 736.562L7267.51 735.555L7268.84 734.2L7257.38 722.929ZM7575.15 422.678C7581.38 416.347 7581.29 406.169 7574.96 399.944C7568.63 393.72 7558.45 393.806 7552.23 400.136L7575.15 422.678ZM6759.32 943.131L6964.83 922.71L6961.65 890.717L6756.14 911.137L6759.32 943.131ZM6971.76 920.347L7265.9 736.562L7248.86 709.296L6954.72 893.08L6971.76 920.347ZM7268.84 734.2L7575.15 422.678L7552.23 400.136L7245.92 711.658L7268.84 734.2Z" fill="#700209"/>
<path d="M7568.9 408.366L7834.37 713.371" stroke="#700209" stroke-width="18.2481"/>
<path d="M1703 600.406L1995.4 770.722L2268.26 826.335" stroke="#700209" stroke-width="27.8067"/>
<path d="M4085.68 649.068L4396.34 765.943" stroke="#700209" stroke-width="27.8067"/>
<path d="M6760.34 923.659L6819.86 1069.21" stroke="#700209" stroke-width="32.1515"/>
<path d="M5814.04 530.02L5889.2 962.327" stroke="#700209" stroke-width="29.5446"/>
<path d="M3155.46 1013.16L3201.08 941.907L3221.5 854.142L3231.06 840.238L3254.09 603.447" stroke="#700209" stroke-width="24.3308"/>
<path d="M2591.07 459.2L2545.89 855.879L2493.32 1170.88" stroke="#700209" stroke-width="34.7583"/>
<path d="M1310.17 83.4075C1311.32 75.3785 1305.74 67.9372 1297.71 66.787C1289.68 65.6367 1282.24 71.213 1281.09 79.2419L1310.17 83.4075ZM1205.27 815.618L1310.17 83.4075L1281.09 79.2419L1176.19 811.453L1205.27 815.618Z" fill="#700209"/>
<path d="M3678.99 1585.61L3733.54 1281.4L3750.32 872.281L3769.2 691.851L3789.8 150.286" stroke="#700209" stroke-width="30.4135"/>
<path d="M4732.19 854.576L4711.33 351.884" stroke="#700209" stroke-width="31.2825"/>
<path d="M5518.59 744.653L5565.52 922.789L5569.43 954.941" stroke="#700209" stroke-width="29.5446"/>
<path d="M7251.73 731.619L7359.05 892.811L7462.02 1151.76L7627.12 1312.95" stroke="#700209" stroke-width="26.0688"/>
<path d="M7826.55 1189.13L7767.46 1144.37L7660.14 791.577L7561.52 417.49" stroke="#700209" stroke-width="33.0204"/>
<path d="M5817.06 519.616C5932.47 613.381 6107.75 756.818 6107.75 756.818M6107.75 756.818L6162.06 904.541L6231.14 1163.06M6107.75 756.818L6465.33 970.582" stroke="#700209" stroke-width="23.4619"/>
</g>
<path d="M4341.59 743.785L4388.38 686.84C4394.49 679.404 4402.04 673.279 4410.57 668.832L4511.04 616.482" stroke="#700209" stroke-width="38.2342"/>
<path d="M3474.8 710.763V724.232H3501.74V710.763H3474.8ZM3488.27 698.598L3476.42 692.209L3474.8 695.2V698.598H3488.27ZM3804.27 140.599C3807.79 134.05 3805.35 125.881 3798.8 122.353C3792.25 118.824 3784.08 121.272 3780.55 127.82L3804.27 140.599ZM3501.74 710.763V698.598H3474.8V710.763H3501.74ZM3500.13 704.987L3804.27 140.599L3780.55 127.82L3476.42 692.209L3500.13 704.987Z" fill="#700209"/>
<path d="M2991.66 833.721L3249.74 609.096" stroke="#700209" stroke-width="28.6756"/>
<path d="M134 710.5L510.967 826.124L760.334 820.933" stroke="#700209" stroke-width="19.3152"/>
<path d="M523.557 828.222L399.773 970.888L266.5 1041L190 1315.5" stroke="#700209" stroke-width="19.3152"/>
<path d="M135 858.5L401.871 968.789H655.732" stroke="#700209" stroke-width="19.3152"/>
<path d="M12 935L632.5 1204" stroke="#700209" stroke-width="19.3152"/>
<path d="M55.5 1085L473.204 1184.89L211 1293" stroke="#700209" stroke-width="19.3152"/>
<path d="M802.593 1224.75L473.203 1184.89" stroke="#700209" stroke-width="20.9803"/>
<path d="M565.516 1163.91L664.123 962.496" stroke="#700209" stroke-width="20.9803"/>
<path d="M659.928 964.594L941.063 767.379" stroke="#700209" stroke-width="20.9803"/>
<path d="M125.5 1186.5L391.382 1273L643.145 1314.96L901.202 1340.14L1018.69 1260.42L1117.3 989.77" stroke="#700209" stroke-width="33"/>
<path d="M382.988 1291.89L735.457 1386.3" stroke="#700209" stroke-width="29.3724"/>
<path d="M98 1418.5L211.5 1293.5L380.891 1281.4" stroke="#700209" stroke-width="19.3152"/>
<path d="M1020.12 536.034L645.24 970.887" stroke="#700209" stroke-width="8.3921"/>
<g filter="url(#filter11_f_737_2313)">
<path d="M523.557 828.222L399.773 970.888L266.5 1041L183 1320.5" stroke="#700209" stroke-width="19.3152"/>
<path d="M135.5 859.5C239.524 902.18 401.871 968.789 401.871 968.789H655.732" stroke="#700209" stroke-width="19.3152"/>
<path d="M28 944L632.653 1203.77" stroke="#700209" stroke-width="19.3152"/>
<path d="M55.5 1081L473.204 1184.89L211 1293" stroke="#700209" stroke-width="19.3152"/>
<path d="M802.593 1224.75L473.203 1184.89" stroke="#700209" stroke-width="20.9803"/>
<path d="M565.516 1163.91L664.123 962.496" stroke="#700209" stroke-width="20.9803"/>
<path d="M659.928 964.594L941.063 767.379" stroke="#700209" stroke-width="20.9803"/>
<path d="M130 1185.5L391.382 1273L643.145 1314.96L901.202 1340.14L1018.69 1260.42L1117.3 989.77" stroke="#700209" stroke-width="33"/>
<path d="M382.988 1291.89L735.457 1386.3" stroke="#700209" stroke-width="29.3724"/>
<path d="M91 1421L211.5 1293.5L380.891 1281.4" stroke="#700209" stroke-width="19.3152"/>
<path d="M1020.12 536.034L645.24 970.887" stroke="#700209" stroke-width="8.3921"/>
</g>
<path d="M1022.17 540.448L1289.34 104.403" stroke="#700209" stroke-width="16.7842"/>
<path d="M1297.73 81.3247L1492.84 381.342" stroke="#700209" stroke-width="25.1763"/>
<path d="M1518.02 343.578L1677.47 568.066L1849.51 782.065" stroke="#700209" stroke-width="25.1763"/>
<path d="M2296.93 788.101L2582.38 458.34C2585.4 454.858 2590.77 454.769 2593.9 458.148L2902.16 791.143" stroke="#700209" stroke-width="20.855"/>
<path d="M2891.73 788.536L3191.96 938.865" stroke="#700209" stroke-width="24.3308"/>
<path d="M3264.08 619.088L3449.6 738.135L3481.32 726.839L3270.31 584.632C3265.13 581.141 3258.23 581.653 3253.62 585.871L3235.84 602.144L3264.08 619.088Z" fill="#700209"/>
<path d="M3791.97 133.341L4091.33 656.888" stroke="#700209" stroke-width="26.9377"/>
<path d="M4391.56 775.501L4713.07 339.718" stroke="#700209" stroke-width="38.2342"/>
<path d="M4707.39 336.121L5044.55 821.869" stroke="#700209" stroke-width="25.1998" stroke-linecap="round"/>
<path d="M5263.12 956.679L5055 833.287V811.563L5263.12 956.679Z" fill="#700209"/>
<path d="M5523.81 744.219L5530.43 757.91L5531.84 757.225L5533.09 756.264L5523.81 744.219ZM5822.89 532.942C5829.54 527.815 5830.78 518.267 5825.65 511.614C5820.53 504.962 5810.98 503.725 5804.32 508.851L5822.89 532.942ZM5228.46 903.895L5530.43 757.91L5517.19 730.528L5215.23 876.513L5228.46 903.895ZM5533.09 756.264L5822.89 532.942L5804.32 508.851L5514.53 732.174L5533.09 756.264Z" fill="#700209"/>
<path d="M5211.85 884.555L5164.06 889.769L5134.08 868.914L5250.95 860.224L5258.34 953.203L5219.67 928.872L5211.85 884.555Z" fill="#700209"/>
<path d="M6459.24 966.672L6756.86 922.355L7056.65 962.762" stroke="#700209" stroke-width="23.4619"/>
<path d="M6335.42 892.376L6595.67 947.121" stroke="#700209" stroke-width="23.4619"/>
<path d="M6963.24 906.714L6964.83 922.71L6968.57 922.339L6971.76 920.347L6963.24 906.714ZM7257.38 722.929L7265.9 736.562L7267.51 735.555L7268.84 734.2L7257.38 722.929ZM7575.15 422.678C7581.38 416.347 7581.29 406.169 7574.96 399.944C7568.63 393.72 7558.45 393.806 7552.22 400.136L7575.15 422.678ZM6759.32 943.131L6964.83 922.71L6961.65 890.717L6756.14 911.137L6759.32 943.131ZM6971.76 920.347L7265.9 736.562L7248.86 709.296L6954.72 893.08L6971.76 920.347ZM7268.84 734.2L7575.15 422.678L7552.22 400.136L7245.92 711.658L7268.84 734.2Z" fill="#700209"/>
<path d="M7568.9 408.366L7834.37 713.371" stroke="#700209" stroke-width="19.3152"/>
<path d="M1703 600.406L1995.4 770.722L2268.26 826.335" stroke="#700209" stroke-width="27.8067"/>
<path d="M4085.68 649.068L4396.33 765.943" stroke="#700209" stroke-width="27.8067"/>
<path d="M6760.34 923.659L6819.86 1069.21" stroke="#700209" stroke-width="32.1515"/>
<path d="M5814.04 530.02L5889.2 962.327" stroke="#700209" stroke-width="29.5446"/>
<path d="M3155.46 1013.16L3201.08 941.907L3221.5 854.142L3231.06 840.238L3254.09 603.447" stroke="#700209" stroke-width="24.3308"/>
<path d="M2591.07 459.2L2545.89 855.879L2493.32 1170.88" stroke="#700209" stroke-width="34.7583"/>
<path d="M1310.17 83.4075C1311.32 75.3785 1305.74 67.9372 1297.71 66.787C1289.68 65.6367 1282.24 71.213 1281.09 79.2419L1310.17 83.4075ZM1205.27 815.618L1310.17 83.4075L1281.09 79.2419L1176.19 811.453L1205.27 815.618Z" fill="#700209"/>
<path d="M3678.56 1608.03L3733.53 1281.4L3750.32 872.281L3769.2 691.851L3789.8 150.286" stroke="#700209" stroke-width="30.4135"/>
<path d="M4732.19 854.576L4711.33 351.884" stroke="#700209" stroke-width="31.2825"/>
<path d="M5518.59 744.653L5565.52 922.789L5569.43 954.941" stroke="#700209" stroke-width="29.5446"/>
<path d="M7251.73 731.619L7359.05 892.811L7462.02 1151.76L7627.12 1312.95" stroke="#700209" stroke-width="26.0688"/>
<path d="M7826.55 1189.13L7767.46 1144.37L7660.14 791.577L7561.52 417.49" stroke="#700209" stroke-width="33.0204"/>
<path d="M5817.06 519.616C5932.47 613.381 6107.75 756.818 6107.75 756.818M6107.75 756.818L6162.06 904.541L6231.14 1163.06M6107.75 756.818L6465.33 970.582" stroke="#700209" stroke-width="23.4619"/>
<g filter="url(#filter12_f_737_2313)">
<path d="M4818.84 1268.63L5162.95 1366.39L5526.17 1334.68L5896.78 1344.67L6243.93 1300.35L6614.11 1190.86L6979.12 998.255C6981.55 996.972 6984.44 996.915 6986.92 998.1L7688.14 1333.37L7875 1484" stroke="#700209" stroke-width="31.2825"/>
</g>
<g filter="url(#filter13_f_737_2313)">
<path d="M7071.61 965.803L7374.88 892.81L7680.75 803.308L7850.2 858.921" stroke="#700209" stroke-width="19.3152"/>
</g>
<path d="M910.992 1099.07L864.635 1097.14L854.012 1115.49H897.471L910.992 1099.07Z" fill="#700209"/>
<path d="M3228.82 842.18L3463.5 731.117" stroke="#700209" stroke-width="25.1098"/>
<path d="M1101.25 891.433L1027.85 993.804L1197.82 816.104L1192.99 794.857L1180.44 805.481L1101.25 891.433Z" fill="#700209"/>
<path d="M209 1621.5H7905.5" stroke="#700209" stroke-width="50"/>
<g filter="url(#filter14_f_737_2313)">
<path d="M209 1621.5H7905.5" stroke="#700209" stroke-width="50"/>
</g>
<defs>
<filter id="filter0_f_737_2313" x="15462.9" y="0.965042" width="7835.48" height="1653" filterUnits="userSpaceOnUse" color-interpolation-filters="sRGB">
<feFlood flood-opacity="0" result="BackgroundImageFix"/>
<feBlend mode="normal" in="SourceGraphic" in2="BackgroundImageFix" result="shape"/>
<feGaussianBlur stdDeviation="32.8358" result="effect1_foregroundBlur_737_2313"/>
</filter>
<filter id="filter1_f_737_2313" x="15391.7" y="509.294" width="1156.61" height="942.34" filterUnits="userSpaceOnUse" color-interpolation-filters="sRGB">
<feFlood flood-opacity="0" result="BackgroundImageFix"/>
<feBlend mode="normal" in="SourceGraphic" in2="BackgroundImageFix" result="shape"/>
<feGaussianBlur stdDeviation="12" result="effect1_foregroundBlur_737_2313"/>
</filter>
<filter id="filter2_f_737_2313" x="20180.1" y="957.609" width="3118.25" height="562.568" filterUnits="userSpaceOnUse" color-interpolation-filters="sRGB">
<feFlood flood-opacity="0" result="BackgroundImageFix"/>
<feBlend mode="normal" in="SourceGraphic" in2="BackgroundImageFix" result="shape"/>
<feGaussianBlur stdDeviation="12" result="effect1_foregroundBlur_737_2313"/>
</filter>
<filter id="filter3_f_737_2313" x="22434.9" y="769.197" width="831.857" height="229.995" filterUnits="userSpaceOnUse" color-interpolation-filters="sRGB">
<feFlood flood-opacity="0" result="BackgroundImageFix"/>
<feBlend mode="normal" in="SourceGraphic" in2="BackgroundImageFix" result="shape"/>
<feGaussianBlur stdDeviation="12" result="effect1_foregroundBlur_737_2313"/>
</filter>
<filter id="filter4_f_737_2313" x="15506.5" y="1502.5" width="7884.5" height="238" filterUnits="userSpaceOnUse" color-interpolation-filters="sRGB">
<feFlood flood-opacity="0" result="BackgroundImageFix"/>
<feBlend mode="normal" in="SourceGraphic" in2="BackgroundImageFix" result="shape"/>
<feGaussianBlur stdDeviation="47" result="effect1_foregroundBlur_737_2313"/>
</filter>
<filter id="filter5_f_737_2313" x="7767.44" y="0.965042" width="7835.48" height="1653" filterUnits="userSpaceOnUse" color-interpolation-filters="sRGB">
<feFlood flood-opacity="0" result="BackgroundImageFix"/>
<feBlend mode="normal" in="SourceGraphic" in2="BackgroundImageFix" result="shape"/>
<feGaussianBlur stdDeviation="32.8358" result="effect1_foregroundBlur_737_2313"/>
</filter>
<filter id="filter6_f_737_2313" x="7696.19" y="509.294" width="1156.61" height="942.34" filterUnits="userSpaceOnUse" color-interpolation-filters="sRGB">
<feFlood flood-opacity="0" result="BackgroundImageFix"/>
<feBlend mode="normal" in="SourceGraphic" in2="BackgroundImageFix" result="shape"/>
<feGaussianBlur stdDeviation="12" result="effect1_foregroundBlur_737_2313"/>
</filter>
<filter id="filter7_f_737_2313" x="12484.6" y="957.609" width="3118.25" height="562.568" filterUnits="userSpaceOnUse" color-interpolation-filters="sRGB">
<feFlood flood-opacity="0" result="BackgroundImageFix"/>
<feBlend mode="normal" in="SourceGraphic" in2="BackgroundImageFix" result="shape"/>
<feGaussianBlur stdDeviation="12" result="effect1_foregroundBlur_737_2313"/>
</filter>
<filter id="filter8_f_737_2313" x="14739.4" y="769.197" width="831.857" height="229.995" filterUnits="userSpaceOnUse" color-interpolation-filters="sRGB">
<feFlood flood-opacity="0" result="BackgroundImageFix"/>
<feBlend mode="normal" in="SourceGraphic" in2="BackgroundImageFix" result="shape"/>
<feGaussianBlur stdDeviation="12" result="effect1_foregroundBlur_737_2313"/>
</filter>
<filter id="filter9_f_737_2313" x="7811" y="1502.5" width="7884.5" height="238" filterUnits="userSpaceOnUse" color-interpolation-filters="sRGB">
<feFlood flood-opacity="0" result="BackgroundImageFix"/>
<feBlend mode="normal" in="SourceGraphic" in2="BackgroundImageFix" result="shape"/>
<feGaussianBlur stdDeviation="47" result="effect1_foregroundBlur_737_2313"/>
</filter>
<filter id="filter10_f_737_2313" x="71.4426" y="0.965042" width="7835.48" height="1653" filterUnits="userSpaceOnUse" color-interpolation-filters="sRGB">
<feFlood flood-opacity="0" result="BackgroundImageFix"/>
<feBlend mode="normal" in="SourceGraphic" in2="BackgroundImageFix" result="shape"/>
<feGaussianBlur stdDeviation="32.8358" result="effect1_foregroundBlur_737_2313"/>
</filter>
<filter id="filter11_f_737_2313" x="0.1875" y="509.294" width="1156.61" height="942.34" filterUnits="userSpaceOnUse" color-interpolation-filters="sRGB">
<feFlood flood-opacity="0" result="BackgroundImageFix"/>
<feBlend mode="normal" in="SourceGraphic" in2="BackgroundImageFix" result="shape"/>
<feGaussianBlur stdDeviation="12" result="effect1_foregroundBlur_737_2313"/>
</filter>
<filter id="filter12_f_737_2313" x="4790.56" y="957.609" width="3118.25" height="562.568" filterUnits="userSpaceOnUse" color-interpolation-filters="sRGB">
<feFlood flood-opacity="0" result="BackgroundImageFix"/>
<feBlend mode="normal" in="SourceGraphic" in2="BackgroundImageFix" result="shape"/>
<feGaussianBlur stdDeviation="12" result="effect1_foregroundBlur_737_2313"/>
</filter>
<filter id="filter13_f_737_2313" x="7045.35" y="769.197" width="831.858" height="229.995" filterUnits="userSpaceOnUse" color-interpolation-filters="sRGB">
<feFlood flood-opacity="0" result="BackgroundImageFix"/>
<feBlend mode="normal" in="SourceGraphic" in2="BackgroundImageFix" result="shape"/>
<feGaussianBlur stdDeviation="12" result="effect1_foregroundBlur_737_2313"/>
</filter>
<filter id="filter14_f_737_2313" x="115" y="1502.5" width="7884.5" height="238" filterUnits="userSpaceOnUse" color-interpolation-filters="sRGB">
<feFlood flood-opacity="0" result="BackgroundImageFix"/>
<feBlend mode="normal" in="SourceGraphic" in2="BackgroundImageFix" result="shape"/>
<feGaussianBlur stdDeviation="47" result="effect1_foregroundBlur_737_2313"/>
</filter>
</defs>
</svg>
