<svg width="1749" height="1749" viewBox="0 0 1749 1749" fill="none" xmlns="http://www.w3.org/2000/svg">
<path fill-rule="evenodd" clip-rule="evenodd" d="M1702.15 890.971C1702.26 885.511 1702.31 880.038 1702.31 874.553C1702.31 854.745 1701.62 835.101 1700.25 815.641H49.0643C47.6958 835.101 47 854.745 47 874.553C47 880.038 47.0534 885.511 47.1596 890.971H1702.15ZM48.9307 931.533C50.7056 957.637 53.691 983.409 57.8311 1008.79H1691.48C1695.62 983.409 1698.61 957.637 1700.38 931.533H48.9307ZM77.9566 1099.57C73.1184 1082.41 68.82 1065.02 65.0809 1047.42H1684.23C1680.49 1065.02 1676.19 1082.41 1671.36 1099.57H77.9566ZM91.8496 1144C99.7682 1167.01 108.673 1189.56 118.513 1211.6H1630.8C1640.64 1189.56 1649.54 1167.01 1657.46 1144H91.8496ZM171.945 1312.04C160.584 1293.83 149.911 1275.15 139.963 1256.03H1609.35C1599.4 1275.15 1588.73 1293.83 1577.37 1312.04H171.945ZM213.052 1371.92C364.086 1572.51 604.224 1702.21 874.656 1702.21C1145.09 1702.21 1385.23 1572.51 1536.26 1371.92H213.052ZM61.5822 719.065C58.3127 736.266 55.5754 753.656 53.3883 771.216H1695.92C1693.74 753.656 1691 736.266 1687.73 719.065H61.5822ZM69.8905 680.435C157.242 316.986 484.408 46.8965 874.656 46.8965C1264.9 46.8965 1592.07 316.986 1679.42 680.435H69.8905Z" fill="url(#paint0_linear_698_2609)"/>
<g filter="url(#filter0_f_698_2609)">
<path fill-rule="evenodd" clip-rule="evenodd" d="M1702.15 890.971C1702.26 885.511 1702.31 880.038 1702.31 874.553C1702.31 854.745 1701.62 835.101 1700.25 815.641H49.0643C47.6958 835.101 47 854.745 47 874.553C47 880.038 47.0534 885.511 47.1596 890.971H1702.15ZM48.9307 931.533C50.7056 957.637 53.691 983.409 57.8311 1008.79H1691.48C1695.62 983.409 1698.61 957.637 1700.38 931.533H48.9307ZM77.9566 1099.57C73.1184 1082.41 68.82 1065.02 65.0809 1047.42H1684.23C1680.49 1065.02 1676.19 1082.41 1671.36 1099.57H77.9566ZM91.8496 1144C99.7682 1167.01 108.673 1189.56 118.513 1211.6H1630.8C1640.64 1189.56 1649.54 1167.01 1657.46 1144H91.8496ZM171.945 1312.04C160.584 1293.83 149.911 1275.15 139.963 1256.03H1609.35C1599.4 1275.15 1588.73 1293.83 1577.37 1312.04H171.945ZM213.052 1371.92C364.086 1572.51 604.224 1702.21 874.656 1702.21C1145.09 1702.21 1385.23 1572.51 1536.26 1371.92H213.052ZM61.5822 719.065C58.3127 736.266 55.5754 753.656 53.3883 771.216H1695.92C1693.74 753.656 1691 736.266 1687.73 719.065H61.5822ZM69.8905 680.435C157.242 316.986 484.408 46.8965 874.656 46.8965C1264.9 46.8965 1592.07 316.986 1679.42 680.435H69.8905Z" fill="url(#paint1_linear_698_2609)"/>
</g>
<defs>
<filter id="filter0_f_698_2609" x="0.64352" y="0.540005" width="1748.03" height="1748.03" filterUnits="userSpaceOnUse" color-interpolation-filters="sRGB">
<feFlood flood-opacity="0" result="BackgroundImageFix"/>
<feBlend mode="normal" in="SourceGraphic" in2="BackgroundImageFix" result="shape"/>
<feGaussianBlur stdDeviation="23.1782" result="effect1_foregroundBlur_698_2609"/>
</filter>
<linearGradient id="paint0_linear_698_2609" x1="874.656" y1="46.8965" x2="874.656" y2="1702.21" gradientUnits="userSpaceOnUse">
<stop stop-color="#AB000A"/>
<stop offset="0.565308" stop-color="#AB000A" stop-opacity="0.90425"/>
<stop offset="1" stop-color="#AB000A" stop-opacity="0"/>
</linearGradient>
<linearGradient id="paint1_linear_698_2609" x1="874.656" y1="46.8965" x2="874.656" y2="1702.21" gradientUnits="userSpaceOnUse">
<stop stop-color="#AB000A"/>
<stop offset="0.565308" stop-color="#AB000A" stop-opacity="0.90425"/>
<stop offset="1" stop-color="#AB000A" stop-opacity="0"/>
</linearGradient>
</defs>
</svg>
