<svg width="1749" height="1749" viewBox="0 0 1749 1749" fill="none" xmlns="http://www.w3.org/2000/svg">
<circle cx="874.655" cy="874.655" r="827.655" fill="#0D0D0D"/>
<path fill-rule="evenodd" clip-rule="evenodd" d="M1702.15 891.074C1702.26 885.614 1702.31 880.142 1702.31 874.656C1702.31 854.849 1701.62 835.204 1700.25 815.745H49.0643C47.6958 835.204 47 854.849 47 874.656C47 880.142 47.0534 885.614 47.1596 891.074H1702.15ZM48.9307 931.636C50.7056 957.741 53.691 983.513 57.8311 1008.9H1691.48C1695.62 983.513 1698.61 957.741 1700.38 931.636H48.9307ZM77.9566 1099.68C73.1184 1082.51 68.82 1065.12 65.0809 1047.53H1684.23C1680.49 1065.12 1676.19 1082.51 1671.36 1099.68H77.9566ZM91.8496 1144.1C99.7682 1167.11 108.673 1189.66 118.513 1211.71H1630.8C1640.64 1189.66 1649.54 1167.11 1657.46 1144.1H91.8496ZM171.945 1312.15C160.584 1293.94 149.911 1275.25 139.963 1256.13H1609.35C1599.4 1275.25 1588.73 1293.94 1577.37 1312.15H171.945ZM213.052 1372.02C364.086 1572.61 604.224 1702.31 874.656 1702.31C1145.09 1702.31 1385.23 1572.61 1536.26 1372.02H213.052ZM61.5822 719.169C58.3127 736.37 55.5754 753.76 53.3883 771.32H1695.92C1693.74 753.76 1691 736.37 1687.73 719.169H61.5822ZM69.8905 680.539C157.242 317.09 484.408 47 874.656 47C1264.9 47 1592.07 317.09 1679.42 680.539H69.8905Z" fill="url(#paint0_linear_698_2609)"/>
<g filter="url(#filter0_f_698_2609)">
<path fill-rule="evenodd" clip-rule="evenodd" d="M1702.15 891.074C1702.26 885.614 1702.31 880.142 1702.31 874.656C1702.31 854.849 1701.62 835.204 1700.25 815.745H49.0643C47.6958 835.204 47 854.849 47 874.656C47 880.142 47.0534 885.614 47.1596 891.074H1702.15ZM48.9307 931.636C50.7056 957.741 53.691 983.513 57.8311 1008.9H1691.48C1695.62 983.513 1698.61 957.741 1700.38 931.636H48.9307ZM77.9566 1099.68C73.1184 1082.51 68.82 1065.12 65.0809 1047.53H1684.23C1680.49 1065.12 1676.19 1082.51 1671.36 1099.68H77.9566ZM91.8496 1144.1C99.7682 1167.11 108.673 1189.66 118.513 1211.71H1630.8C1640.64 1189.66 1649.54 1167.11 1657.46 1144.1H91.8496ZM171.945 1312.15C160.584 1293.94 149.911 1275.25 139.963 1256.13H1609.35C1599.4 1275.25 1588.73 1293.94 1577.37 1312.15H171.945ZM213.052 1372.02C364.086 1572.61 604.224 1702.31 874.656 1702.31C1145.09 1702.31 1385.23 1572.61 1536.26 1372.02H213.052ZM61.5822 719.169C58.3127 736.37 55.5754 753.76 53.3883 771.32H1695.92C1693.74 753.76 1691 736.37 1687.73 719.169H61.5822ZM69.8905 680.539C157.242 317.09 484.408 47 874.656 47C1264.9 47 1592.07 317.09 1679.42 680.539H69.8905Z" fill="url(#paint1_linear_698_2609)"/>
</g>
<defs>
<filter id="filter0_f_698_2609" x="0.64352" y="0.64352" width="1748.03" height="1748.03" filterUnits="userSpaceOnUse" color-interpolation-filters="sRGB">
<feFlood flood-opacity="0" result="BackgroundImageFix"/>
<feBlend mode="normal" in="SourceGraphic" in2="BackgroundImageFix" result="shape"/>
<feGaussianBlur stdDeviation="23.1782" result="effect1_foregroundBlur_698_2609"/>
</filter>
<linearGradient id="paint0_linear_698_2609" x1="874.656" y1="47" x2="874.656" y2="1702.31" gradientUnits="userSpaceOnUse">
<stop stop-color="#AB000A"/>
<stop offset="0.565308" stop-color="#AB000A" stop-opacity="0.90425"/>
<stop offset="1" stop-color="#AB000A" stop-opacity="0"/>
</linearGradient>
<linearGradient id="paint1_linear_698_2609" x1="874.656" y1="47" x2="874.656" y2="1702.31" gradientUnits="userSpaceOnUse">
<stop stop-color="#AB000A"/>
<stop offset="0.565308" stop-color="#AB000A" stop-opacity="0.90425"/>
<stop offset="1" stop-color="#AB000A" stop-opacity="0"/>
</linearGradient>
</defs>
</svg>
