<svg width="64" height="64" viewBox="0 0 64 64" fill="none" xmlns="http://www.w3.org/2000/svg">
<path d="M49.8832 36.5254V59.5573C49.8832 60.3857 49.2116 61.0573 48.3832 61.0573H4.5C3.67157 61.0573 3 60.3857 3 59.5573V15.6741C3 14.8456 3.67157 14.1741 4.5 14.1741H26.4416" stroke="#700007" stroke-width="4.2" stroke-linecap="round"/>
<rect x="19.295" y="34.0363" width="44.6925" height="14.9332" rx="1.5" transform="rotate(-45.5698 19.295 34.0363)" stroke="#D93434" stroke-width="3"/>
<path d="M15.2857 48.0714L19.684 33.777C19.7936 33.4209 20.2403 33.3054 20.5087 33.5639L30.4048 43.0935C30.6755 43.3542 30.5726 43.8091 30.2161 43.928L15.9217 48.6928C15.5359 48.8214 15.1661 48.4601 15.2857 48.0714Z" stroke="#D93434" stroke-width="3" stroke-linecap="round"/>
<path d="M45.522 9.81299L54.2444 17.9903" stroke="#D93434" stroke-width="3" stroke-linecap="round"/>
</svg>
