<svg width="25" height="25" viewBox="0 0 25 25" fill="none">
    <path d="M17.7085 2.08337H7.29183C4.41535 2.08337 2.0835 4.41522 2.0835 7.29171V17.7084C2.0835 20.5849 4.41535 22.9167 7.29183 22.9167H17.7085C20.585 22.9167 22.9168 20.5849 22.9168 17.7084V7.29171C22.9168 4.41522 20.585 2.08337 17.7085 2.08337Z" stroke="#737373" stroke-width="2.08333" stroke-linecap="round" stroke-linejoin="round"/>
    <path d="M16.6667 11.8438C16.7952 12.7107 16.6472 13.5961 16.2435 14.374C15.8399 15.152 15.2012 15.7828 14.4184 16.1768C13.6355 16.5708 12.7484 16.708 11.8831 16.5688C11.0179 16.4295 10.2185 16.021 9.59881 15.4013C8.9791 14.7816 8.57057 13.9822 8.43134 13.117C8.29211 12.2517 8.42926 11.3645 8.82328 10.5817C9.2173 9.79888 9.84813 9.16022 10.626 8.75657C11.404 8.35293 12.2893 8.20485 13.1563 8.3334C14.0406 8.46453 14.8592 8.87659 15.4914 9.50872C16.1235 10.1409 16.5356 10.9595 16.6667 11.8438Z" stroke="#737373" stroke-width="2.08333" stroke-linecap="round" stroke-linejoin="round"/>
    <path d="M18.229 6.77087H18.2403" stroke="#737373" stroke-width="2.08333" stroke-linecap="round" stroke-linejoin="round"/>
</svg>
