<svg width="94" height="56" viewBox="0 0 94 56" fill="none" xmlns="http://www.w3.org/2000/svg">
<path d="M36.4895 47.6914H3.53988C2.66806 47.6914 1.89654 48.3347 2.18052 49.159C2.88713 51.2099 5.80019 53.8917 13.2084 53.8917C22.6328 53.8917 42.3496 53.8917 51.0301 53.8917" stroke="#700007" stroke-width="2.85214" stroke-linecap="round"/>
<path d="M57.5105 47.6914H90.4601C91.3319 47.6914 92.1035 48.3347 91.8195 49.159C91.1129 51.2099 88.1998 53.8917 80.7916 53.8917C71.3672 53.8917 51.6504 53.8917 42.9699 53.8917" stroke="#700007" stroke-width="2.85214" stroke-linecap="round"/>
<path d="M16.5825 42.8308V3.45824C16.5825 2.65287 17.2354 2 18.0408 2H76.3704C77.1758 2 77.8287 2.65288 77.8287 3.45824V42.8308" stroke="#700007" stroke-width="3.88864" stroke-linecap="round"/>
<path d="M36.5119 17.0684L28.491 24.245C27.8431 24.8246 27.8431 25.8388 28.491 26.4185L36.5119 33.5951" stroke="#D93434" stroke-width="2.72205" stroke-linecap="round"/>
<path d="M57.8992 17.0684L65.9202 24.245C66.568 24.8246 66.568 25.8388 65.9202 26.4185L57.8992 33.5951" stroke="#D93434" stroke-width="2.72205" stroke-linecap="round"/>
<path d="M44.2891 36.0257L51.0942 14.6382" stroke="#D93434" stroke-width="2.72205" stroke-linecap="round"/>
</svg>
