<svg width="59" height="59" viewBox="0 0 59 59" fill="none" xmlns="http://www.w3.org/2000/svg">
<path d="M56.8017 27.8787C56.8121 31.897 55.8733 35.8611 54.0616 39.4479C51.9135 43.746 48.6111 47.3612 44.5244 49.8885C40.4377 52.4158 35.7281 53.7554 30.9231 53.7572C26.9047 53.7677 22.9407 52.8288 19.3539 51.0171L2 56.8018L7.78462 39.4479C5.97291 35.8611 5.03406 31.897 5.04454 27.8787C5.0464 23.0736 6.386 18.364 8.91329 14.2773C11.4406 10.1907 15.0558 6.8883 19.3539 4.74017C22.9407 2.92846 26.9047 1.98961 30.9231 2.00009H32.4454C38.7912 2.35018 44.785 5.02867 49.279 9.52271C53.7731 14.0167 56.4516 20.0105 56.8017 26.3564V27.8787Z" stroke="#700007" stroke-width="3" stroke-linecap="round" stroke-linejoin="round"/>
<path d="M37.6297 22.9604C37.6297 21.1803 36.9226 19.4731 35.6639 18.2144C34.4052 16.9557 32.698 16.2485 30.9179 16.2485C29.1378 16.2485 27.4306 16.9557 26.1719 18.2144C24.9132 19.4731 24.206 21.1803 24.206 22.9604C24.206 30.7909 20.8501 33.0282 20.8501 33.0282H40.9857C40.9857 33.0282 37.6297 30.7909 37.6297 22.9604Z" stroke="#D93434" stroke-width="2.70341" stroke-linecap="round" stroke-linejoin="round"/>
<path d="M32.8524 37.5029C32.6558 37.842 32.3735 38.1234 32.0338 38.319C31.6942 38.5146 31.3091 38.6176 30.9172 38.6176C30.5252 38.6176 30.1402 38.5146 29.8005 38.319C29.4609 38.1234 29.1786 37.842 28.9819 37.5029" stroke="#D93434" stroke-width="2.70341" stroke-linecap="round" stroke-linejoin="round"/>
</svg>
