<svg width="351" height="399" viewBox="0 0 351 399" fill="none" xmlns="http://www.w3.org/2000/svg">
<path d="M338.852 11.9856H13.3243C13.2947 11.9856 13.2744 12.0155 13.2854 12.0431L163.045 387.91C163.058 387.944 163.106 387.945 163.122 387.912L338.89 12.0453C338.903 12.0175 338.883 11.9856 338.852 11.9856Z" stroke="#E40000" stroke-width="5.87523"/>
<path d="M327.102 19.5396H24.2363C24.2066 19.5396 24.1863 19.5695 24.1973 19.5971L163.532 368.396C163.545 368.43 163.593 368.431 163.609 368.398L327.14 19.5993C327.153 19.5715 327.133 19.5396 327.102 19.5396Z" stroke="#790007" stroke-width="2.51795"/>
<g filter="url(#filter0_f_710_3456)">
<path d="M66 146.5L139 327" stroke="#E60404" stroke-width="7.86"/>
</g>
<g filter="url(#filter1_f_710_3456)">
<circle cx="189.305" cy="189.136" r="128.835" transform="rotate(-12.9847 189.305 189.136)" fill="#C1000B"/>
</g>
<circle cx="189.305" cy="189.136" r="126.737" transform="rotate(-12.9847 189.305 189.136)" fill="#0D0D0D" stroke="#C1000B" stroke-width="4.19659"/>
<g opacity="0.59">
<path d="M128.931 78.5938L193.951 63.6011" stroke="#C9000C" stroke-width="0.839318"/>
<path d="M103.953 97.2734L224.996 69.3626" stroke="#C9000C" stroke-width="0.839318"/>
<path d="M152.797 309.098L276.293 280.621" stroke="#C9000C" stroke-width="0.839318"/>
<path d="M82.1086 122.794L256.312 82.6249" stroke="#C9000C" stroke-width="0.839318"/>
<path d="M122.1 295.504L296.303 255.335" stroke="#C9000C" stroke-width="0.839318"/>
<path d="M67.7073 153.005L281.168 103.784" stroke="#C9000C" stroke-width="0.839318"/>
<path d="M95.8069 274.865L309.268 225.644" stroke="#C9000C" stroke-width="0.839318"/>
<path d="M63.8643 184.9L300.225 130.398" stroke="#C9000C" stroke-width="0.839318"/>
<path d="M67.1304 217.738L311.67 161.351" stroke="#C9000C" stroke-width="0.839318"/>
<path d="M76.75 248.251L314.746 193.373" stroke="#C9000C" stroke-width="0.839318"/>
</g>
<g opacity="0.59">
<path d="M159.697 66.3316C135.474 82.6839 150.162 269.654 216.556 312.915" stroke="#C9000C" stroke-width="0.839318"/>
<path d="M161.144 65.1366C90.2398 95.6983 121.721 305.067 216.556 312.915" stroke="#C9000C" stroke-width="0.839318"/>
<path d="M160.388 67.4642C61.395 97.612 84.7275 318.334 217.247 314.048" stroke="#C9000C" stroke-width="0.839318"/>
<path d="M160.923 66.0487C32.3918 108.176 63.3678 328.427 217.876 313.041" stroke="#C9000C" stroke-width="0.839318"/>
<path d="M160.316 65.9999C6.6807 122.529 59.1107 333.096 217.457 313.811" stroke="#C9000C" stroke-width="0.839318"/>
<path d="M161.789 65.8493C190.727 69.9434 259.394 244.466 218.648 312.433" stroke="#C9000C" stroke-width="0.839318"/>
<path d="M159.965 65.4087C237.092 61.8362 300.47 263.85 218.648 312.433" stroke="#C9000C" stroke-width="0.839318"/>
<path d="M161.663 67.1705C263.862 50.9262 339.537 259.579 218.521 313.754" stroke="#C9000C" stroke-width="0.839318"/>
<path d="M160.562 66.132C294.562 47.7228 363.16 259.299 217.515 313.125" stroke="#C9000C" stroke-width="0.839318"/>
<path d="M160.971 66.0379C323.847 49.5839 368.916 261.848 218.113 313.848" stroke="#C9000C" stroke-width="0.839318"/>
<path d="M161.018 66.4575L217.5 311.406" stroke="#C9000C" stroke-width="0.839318"/>
</g>
<g filter="url(#filter2_f_710_3456)">
<path d="M189.231 215.959C192.326 217.542 192.921 216.819 192.864 215.597C192.764 213.462 191.615 210.752 192.917 209.058C194.273 207.294 196.905 210.46 198.931 211.378C199.184 211.493 199.465 211.64 199.776 211.834C202.261 213.378 195.244 206.951 200.096 205.833C202.522 205.273 197.703 204.691 207.314 202.051C216.925 199.412 209.269 204.988 214.087 205.57C218.905 206.153 216.546 203.31 216.672 202.01L216.672 202.01C216.799 200.711 216.799 200.711 219.662 198.357C222.526 196.003 229.577 200.728 226.932 202.185C224.165 203.709 225.096 203.455 228.608 203.915C232.121 204.376 232.685 201.282 234.547 203.816C236.409 206.351 244.091 204.579 249.347 203.367C254.603 202.155 251.646 204.107 253.23 205.436C254.814 206.764 254.721 206.362 255.833 211.187C256.946 216.011 259.843 211.956 261.553 211.985C263.263 212.014 263.263 212.014 264.509 210.033C265.756 208.052 267.154 208.576 268.923 210.709C270.692 212.841 272.032 211.262 276.42 208.133C280.808 205.004 278.846 207.574 283.757 208.558C288.667 209.543 285.618 211.093 285.989 212.701C286.36 214.309 287.169 214.123 287.851 215.236C288.533 216.349 287.009 217.123 286.386 218.114C285.763 219.104 286.757 219.722 285.914 221.61C285.072 223.498 286.285 223.218 284.23 225.386C282.175 227.553 282.335 224.552 283.447 229.377C284.56 234.201 281.032 244.753 280.653 248.651C280.274 252.549 279.314 250.23 276.669 251.687C274.024 253.143 273.872 250.638 273.089 254.629C272.729 256.467 271.465 258.224 270.153 259.588C268.623 261.179 267.417 263.118 266.937 265.272C264.473 276.326 257.203 281.232 254.427 282.643C251.377 284.193 252.22 282.305 250.788 283.482C249.356 284.659 255.472 290.87 250.654 290.288C248.56 290.034 247.103 290.767 246.152 291.729C244.851 293.043 243.906 294.791 242.203 295.513C241.717 295.719 241.101 296.002 240.167 296.516C237.523 297.973 237.927 297.88 236.462 300.758C234.996 303.636 236.74 301.964 234.061 305.122C231.62 308.001 229.57 307.975 226.801 307.223C226.449 307.881 223.706 306.309 225.975 306.987C226.258 307.071 226.533 307.15 226.801 307.223C226.945 306.953 226.686 306.308 225.512 304.976C221.476 300.403 224.778 296.254 225.375 291.459C225.973 286.664 227.338 288.889 226.874 286.879C226.411 284.869 226.503 285.271 223.959 281.624C221.415 277.976 224.304 279.427 224 274.416C223.697 269.405 221.515 272.872 218.845 270.524C216.174 268.176 218.727 266.317 211.853 267.902C204.98 269.487 199.261 268.689 198.334 264.669C197.407 260.648 200.077 262.997 198.341 259.163C196.605 255.329 196.665 257.432 190.263 255.521C183.861 253.61 187.5 252.771 186.884 248.256C186.269 243.74 187.541 245.564 190.346 241.106C193.15 236.649 189.975 239.498 188.862 234.674C187.75 229.85 189.89 233.59 190.361 230.094C190.832 226.598 182.955 212.749 189.231 215.959Z" fill="#0D0D0D" stroke="#C1000B" stroke-width="1.67864"/>
<path d="M308.462 158.646C312.422 158.53 309.267 156.364 308.901 153.623C308.842 153.18 308.845 152.728 308.784 152.284C304.994 124.769 282.812 102.13 269.971 92.4752C269.056 91.7872 268.455 92.357 269.25 93.1814C270.948 94.9431 268.809 95.0057 268.872 97.1446C268.934 99.2835 264.247 99.5029 268.462 102.838C272.676 106.173 276.293 108.784 276.103 113.565C275.914 118.346 276.606 119.479 279.122 121.052C281.638 122.625 280.537 121.587 280.065 125.141C279.592 128.696 279.812 127.783 282.611 130.583C283.792 131.764 284.989 132.845 285.985 133.7C287.277 134.81 288.246 136.278 288.698 137.92C292.282 150.942 292.252 142.194 295.19 149.647C298.303 157.543 296.479 151.503 300.914 153.926C305.349 156.349 301.921 154.555 302.36 158.33C302.8 162.105 304.185 158.771 308.462 158.646Z" fill="#0D0D0D" stroke="#C1000B" stroke-width="1.67864"/>
<path d="M222.025 75.3895C217.057 72.8505 213.699 70.765 211.66 69.1906C209.635 67.627 210.694 65.7693 213.252 65.7728C232.197 65.7981 260.82 85.8602 263.336 88.0847C266.041 90.4758 265.599 97.899 262.737 98.5591C259.874 99.2191 261.416 98.433 259.435 95.4445C257.454 92.4559 258.649 93.9031 254.591 93.116C250.534 92.3289 253.081 92.1721 250 88.1453C246.918 84.1186 249.622 86.5096 249.151 84.465C248.679 82.4203 248.679 82.4203 245.849 81.3504C243.018 80.2804 244.183 77.8585 242.044 77.9211C240.785 77.9579 231.913 86.2864 228.549 81.0328C226.986 78.5933 225.941 77.35 225.114 76.732C224.217 76.0621 223.022 75.8988 222.025 75.3895Z" fill="#0D0D0D" stroke="#C1000B" stroke-width="1.67864"/>
<path d="M135.913 92.0575C130.989 96.5227 121.157 94.1604 111.938 91.4577C109.97 90.8806 107.836 91.096 106.255 92.4025C103.233 94.8999 99.4937 98.906 96.1411 102.785C93.8214 105.469 98.0597 113.244 95.7725 115.956C94.4196 117.56 91.9324 131.054 93.0322 137.691C94.132 144.328 91.585 138.886 88.1232 150.02C85.6874 157.855 89.3669 166.589 92.2714 171.248C92.9722 172.372 93.4803 173.635 93.6603 174.948C97.459 202.64 108.683 192.663 107.177 193.431C105.169 194.455 97.9941 183.49 103.687 183.9C107.806 184.196 110.759 189.316 112.023 192.565C112.269 193.197 112.381 193.874 112.418 194.551C112.694 199.589 113.267 202.619 113.92 204.346C114.766 206.583 117.946 205.993 120.301 206.41C128.628 207.885 119.677 210.113 130.608 209.131C136.879 208.568 141.935 210.453 145.335 212.578C148.051 214.275 151.655 215.322 154.598 216.585C160.424 219.085 167.86 225.951 177.064 223.829C182.38 222.603 179.016 217.349 179.456 215.525C179.897 213.701 178.985 213.48 176.185 216.279C173.385 219.078 175.681 221.564 171.687 217.317C167.693 213.07 167.88 219.486 164.138 212.597C160.396 205.708 166.027 203.979 157.157 204.732C148.286 205.486 152.472 193.754 152.409 191.615C152.347 189.476 148.573 184.317 146.558 194.256C145.175 201.081 140.558 202.137 137.507 201.708C136.59 201.58 135.755 201.082 135.058 200.473C115.606 183.495 135.5 172.28 137.786 173.022C140.114 173.778 143.762 174.659 144.644 171.011C145.019 169.456 148.162 168.655 151.44 168.269C154.231 167.94 156.755 169.601 158.599 171.722C163.982 177.912 170.684 177.391 172.915 175.662C174.246 174.63 172.276 173.444 170.628 173.099C160.688 171.018 159.613 162.308 165.407 154.595C170.504 147.809 168.491 147.424 164.245 140.22C160 133.016 175.003 142.046 171.104 132.609C168.183 125.538 172.261 123.049 175.108 122.581C175.478 122.52 175.859 122.469 176.224 122.383C191.457 118.795 196.769 114.403 197.959 111.643C198.4 110.622 197.874 109.49 197.024 108.773C192.402 104.874 187.117 111.025 183.563 113.801C178.981 117.381 176.891 113.446 177.771 111.737C178.112 111.074 178.956 110.868 179.61 110.511C187.453 106.232 188.457 108.512 188.881 101.377C189.323 93.9541 179.886 97.8528 177.432 98.4186C174.979 98.9844 166.865 91.8113 167.116 94.7681C167.413 98.273 163.198 97.7305 160.413 95.5815C159.358 94.7678 158.168 94.5474 156.515 95.4897C153.739 97.0724 152.866 100.207 153.997 105.114C155.129 110.022 155.349 109.109 153.273 111.311C151.196 113.512 154.342 114.079 152.863 117.004C151.384 119.929 146.73 112.82 146.667 110.681C146.605 108.542 141.571 116.593 139.401 112.787C137.121 108.786 133.531 102.966 136.414 99.3754C137.724 97.7437 139.063 96.5945 140.41 96.6193C146.254 96.7265 149.155 97.187 147.017 91.6505C144.879 86.1141 155.511 83.6625 152.773 88.6004C150.036 93.5384 157.868 93.8857 163.939 90.3324C167.93 87.9969 165.583 86.2506 163.026 85.3526C161.971 84.9821 160.747 85.2052 159.732 84.7346C156.265 83.126 155.624 74.1818 135.913 92.0575Z" fill="#0D0D0D" stroke="#C1000B" stroke-width="1.67864"/>
</g>
<path d="M189.232 215.959C192.327 217.542 192.922 216.819 192.865 215.597C192.765 213.463 191.616 210.752 192.918 209.058C194.274 207.295 196.906 210.46 198.932 211.379C199.185 211.493 199.466 211.641 199.777 211.834C202.262 213.378 195.245 206.952 200.097 205.833C202.523 205.273 197.704 204.691 207.315 202.051C216.926 199.412 209.27 204.988 214.088 205.571C218.906 206.153 216.547 203.31 216.673 202.011L216.673 202.01C216.8 200.711 216.8 200.711 219.663 198.357C222.527 196.003 229.578 200.729 226.933 202.185C224.166 203.709 225.097 203.455 228.609 203.916C232.122 204.376 232.686 201.282 234.548 203.816C236.41 206.351 244.092 204.58 249.348 203.368C254.604 202.156 251.647 204.108 253.231 205.436C254.815 206.764 254.722 206.362 255.834 211.187C256.947 216.011 259.844 211.956 261.554 211.985C263.264 212.014 263.264 212.014 264.51 210.033C265.757 208.052 267.155 208.576 268.924 210.709C270.693 212.841 272.033 211.262 276.421 208.133C280.809 205.005 278.847 207.574 283.758 208.559C288.668 209.543 285.619 211.093 285.99 212.701C286.361 214.309 287.17 214.123 287.852 215.236C288.534 216.349 287.01 217.124 286.387 218.114C285.763 219.105 286.758 219.722 285.915 221.61C285.073 223.498 286.286 223.218 284.231 225.386C282.176 227.553 282.336 224.553 283.448 229.377C284.561 234.201 281.032 244.753 280.654 248.651C280.275 252.549 279.315 250.23 276.67 251.687C274.025 253.143 273.873 250.638 273.09 254.629C272.73 256.467 271.466 258.224 270.154 259.588C268.624 261.179 267.418 263.118 266.938 265.272C264.473 276.326 257.204 281.232 254.427 282.643C251.378 284.193 252.221 282.305 250.789 283.482C249.357 284.659 255.473 290.87 250.655 290.288C248.561 290.035 247.104 290.767 246.153 291.729C244.852 293.044 243.907 294.791 242.204 295.513C241.718 295.72 241.102 296.002 240.168 296.516C237.524 297.973 237.928 297.88 236.463 300.758C234.997 303.636 236.741 301.964 234.062 305.122C231.621 308.001 229.571 307.975 226.802 307.223C226.45 307.881 223.707 306.309 225.976 306.987C226.259 307.071 226.534 307.151 226.802 307.223C226.946 306.954 226.687 306.308 225.513 304.977C221.477 300.403 224.779 296.254 225.376 291.459C225.974 286.664 227.339 288.89 226.875 286.879C226.412 284.869 226.504 285.271 223.96 281.624C221.416 277.977 224.305 279.427 224.001 274.417C223.698 269.406 221.516 272.873 218.846 270.524C216.175 268.176 218.728 266.318 211.854 267.903C204.981 269.487 199.262 268.689 198.335 264.669C197.407 260.649 200.078 262.997 198.342 259.163C196.606 255.329 196.666 257.432 190.264 255.521C183.862 253.61 187.501 252.771 186.885 248.256C186.27 243.74 187.542 245.564 190.346 241.107C193.151 236.649 189.976 239.498 188.863 234.674C187.751 229.85 189.891 233.59 190.362 230.094C190.833 226.599 182.956 212.749 189.232 215.959Z" fill="#C1000B" stroke="#C1000B" stroke-width="1.25898"/>
<path d="M308.462 158.646C312.422 158.53 309.267 156.365 308.901 153.623C308.842 153.18 308.845 152.728 308.784 152.285C304.994 124.77 282.812 102.13 269.971 92.4753C269.056 91.7873 268.455 92.3571 269.25 93.1815C270.948 94.9432 268.809 95.0058 268.872 97.1447C268.934 99.2837 264.247 99.503 268.462 102.838C272.676 106.173 276.293 108.784 276.103 113.565C275.914 118.346 276.606 119.479 279.122 121.052C281.638 122.625 280.537 121.587 280.065 125.141C279.592 128.696 279.812 127.784 282.611 130.584C283.792 131.764 284.989 132.845 285.985 133.7C287.277 134.81 288.246 136.278 288.698 137.921C292.282 150.942 292.252 142.194 295.19 149.647C298.303 157.543 296.479 151.503 300.914 153.926C305.349 156.349 301.921 154.555 302.36 158.33C302.8 162.105 304.185 158.771 308.462 158.646Z" fill="#C1000B" stroke="#C1000B" stroke-width="1.25898"/>
<path d="M222.031 75.3874C215.909 72.2214 210.982 68.907 208.157 66.5564C206.19 64.92 207.079 63.1573 209.637 63.1973C229.014 63.5004 260.819 85.8588 263.337 88.0852C266.042 90.4762 265.6 97.8995 262.738 98.5595C259.875 99.2196 261.417 98.4335 259.435 95.4449C257.454 92.4564 258.649 93.9035 254.592 93.1165C250.534 92.3294 253.082 92.1725 250 88.1458C246.918 84.1191 249.623 86.5101 249.152 84.4654C248.68 82.4208 248.68 82.4208 245.849 81.3508C243.019 80.2809 244.183 77.859 242.044 77.9215C240.786 77.9583 231.914 86.2868 228.549 81.0333C226.987 78.5937 225.942 77.3504 225.115 76.7325C224.218 76.0626 223.025 75.9015 222.031 75.3874Z" fill="#C1000B" stroke="#C1000B" stroke-width="1.25898"/>
<path d="M135.914 92.0575C130.99 96.5227 121.158 94.1604 111.939 91.4577C109.971 90.8806 107.837 91.096 106.256 92.4025C103.234 94.8999 99.4947 98.906 96.1421 102.785C93.8224 105.469 98.0607 113.244 95.7734 115.956C94.4206 117.56 91.9333 131.054 93.0331 137.691C94.133 144.328 91.586 138.886 88.1242 150.02C85.6883 157.855 89.3678 166.589 92.2724 171.248C92.9732 172.372 93.4812 173.635 93.6613 174.948C97.46 202.64 108.684 192.663 107.178 193.431C105.17 194.455 97.995 183.49 103.688 183.9C107.807 184.196 110.76 189.316 112.024 192.565C112.27 193.197 112.382 193.874 112.419 194.551C112.695 199.589 113.268 202.619 113.921 204.346C114.767 206.583 117.947 205.993 120.302 206.41C128.629 207.885 119.678 210.113 130.609 209.131C136.88 208.568 141.936 210.453 145.336 212.578C148.052 214.275 151.742 215.031 154.542 216.585C158.286 218.663 162.227 223.424 170.963 223.513C183.198 223.638 178.356 220.086 178.796 218.262C179.237 216.437 179.804 213.292 177.004 216.091C174.204 218.89 175.682 221.564 171.688 217.317C167.694 213.07 167.881 219.486 164.139 212.597C160.397 205.708 166.028 203.979 157.158 204.732C148.287 205.486 152.473 193.754 152.41 191.615C152.348 189.476 148.574 184.317 146.559 194.256C145.176 201.081 140.559 202.137 137.508 201.708C136.591 201.58 135.756 201.082 135.059 200.473C115.607 183.495 135.501 172.28 137.787 173.022C140.115 173.778 143.763 174.659 144.645 171.011C145.02 169.456 148.163 168.655 151.441 168.269C154.232 167.94 156.756 169.601 158.6 171.722C163.983 177.912 170.685 177.391 172.916 175.662C174.247 174.63 172.277 173.444 170.629 173.099C160.689 171.018 159.614 162.308 165.408 154.595C170.505 147.809 168.491 147.424 164.246 140.22C160.001 133.016 175.004 142.046 171.105 132.609C168.184 125.538 172.262 123.049 175.109 122.581C175.479 122.52 175.86 122.469 176.225 122.383C191.458 118.795 196.77 114.403 197.96 111.643C198.401 110.622 197.875 109.49 197.025 108.773C192.403 104.874 187.118 111.025 183.564 113.801C178.982 117.381 176.892 113.446 177.772 111.737C178.112 111.074 178.957 110.868 179.611 110.511C187.454 106.232 188.458 108.512 188.882 101.377C189.324 93.9541 179.887 97.8528 177.433 98.4186C174.98 98.9844 166.865 91.8113 167.117 94.7681C167.414 98.273 163.199 97.7305 160.414 95.5815C159.359 94.7678 158.169 94.5474 156.516 95.4897C153.74 97.0724 152.867 100.207 153.998 105.114C155.13 110.022 155.35 109.109 153.274 111.311C151.197 113.512 154.343 114.079 152.864 117.004C151.385 119.929 146.731 112.82 146.668 110.681C146.606 108.542 141.572 116.593 139.402 112.787C137.121 108.786 133.532 102.966 136.415 99.3754C137.725 97.7437 139.064 96.5945 140.411 96.6193C146.255 96.7265 149.156 97.187 147.018 91.6505C144.88 86.1141 155.512 83.6625 152.774 88.6004C150.037 93.5384 157.869 93.8857 163.94 90.3324C167.931 87.9969 165.584 86.2506 163.027 85.3526C161.972 84.9821 160.748 85.2052 159.733 84.7346C156.266 83.126 155.625 74.1818 135.914 92.0575Z" fill="#C1000B" stroke="#C1000B" stroke-width="1.25898"/>
<path d="M298.5 105L194 329.5L256.5 316.5L289.75 277L323 237.5L329 156L298.5 105Z" fill="#0D0D0D"/>
<path d="M291 98.0002L180.5 333L190 339.5L302 102.5L291 98.0002Z" fill="#0D0D0D"/>
<path d="M164.885 383.163L338.206 12.547" stroke="#E60404" stroke-width="6.84185"/>
<path d="M163.833 367.874L327.124 19.519" stroke="#790007" stroke-width="2.44631"/>
<g filter="url(#filter3_f_710_3456)">
<path d="M162.833 367.874L326.124 19.519H23.5L69.5 133.5" stroke="#AB000A" stroke-width="2"/>
</g>
<g filter="url(#filter4_f_710_3456)">
<path d="M66.5 147.5L11 9H339.968L163.466 384.387L137 323.5" stroke="#E60404" stroke-width="7.86"/>
</g>
<circle cx="278.645" cy="54.6456" r="0.645326" fill="#FF5A64"/>
<circle cx="295.645" cy="46.6456" r="0.645326" fill="#FF5A64"/>
<circle cx="267.645" cy="40.6456" r="0.645326" fill="#FF5A64"/>
<circle cx="252.645" cy="56.6456" r="0.645326" fill="#FF5A64"/>
<circle cx="234.411" cy="30.296" r="0.645326" fill="#FF5A64"/>
<circle cx="173.751" cy="20.2288" r="0.645326" fill="#FF5A64"/>
<circle cx="150.003" cy="25.3915" r="0.645326" fill="#FF5A64"/>
<circle cx="158.005" cy="33.1353" r="0.645326" fill="#FF5A64"/>
<circle cx="87.0198" cy="75.9849" r="0.645326" fill="#FF5A64"/>
<circle cx="70.6453" cy="106.646" r="0.645326" fill="#FF5A64"/>
<circle cx="85.6453" cy="42.6456" r="0.645326" fill="#FF5A64"/>
<circle cx="40.6453" cy="31.6456" r="0.645326" fill="#FF5A64"/>
<circle cx="136.645" cy="50.6456" r="0.645326" fill="#FF5A64"/>
<circle cx="301.42" cy="29.42" r="1.41972" fill="#700209"/>
<circle cx="295.42" cy="47.42" r="1.41972" fill="#700209"/>
<circle cx="216.42" cy="38.42" r="1.41972" fill="#700209"/>
<circle cx="110.251" cy="64.1112" r="1.41972" fill="#700209"/>
<circle cx="76.6941" cy="68.4992" r="1.41972" fill="#700209"/>
<circle cx="51.3977" cy="59.7227" r="1.41972" fill="#700209"/>
<circle cx="96.0535" cy="91.2146" r="1.41972" fill="#700209"/>
<g filter="url(#filter5_f_710_3456)">
<circle cx="281.42" cy="81.42" r="1.41972" fill="#700209"/>
</g>
<g filter="url(#filter6_f_710_3456)">
<circle cx="301.42" cy="29.42" r="1.41972" fill="#700209"/>
</g>
<g filter="url(#filter7_f_710_3456)">
<circle cx="294.42" cy="47.42" r="1.41972" fill="#700209"/>
</g>
<g filter="url(#filter8_f_710_3456)">
<circle cx="216.42" cy="38.42" r="1.41972" fill="#700209"/>
</g>
<g filter="url(#filter9_f_710_3456)">
<circle cx="110.251" cy="64.1112" r="1.41972" fill="#700209"/>
</g>
<g filter="url(#filter10_f_710_3456)">
<circle cx="76.6941" cy="68.4992" r="1.41972" fill="#700209"/>
</g>
<g filter="url(#filter11_f_710_3456)">
<circle cx="51.3977" cy="59.7227" r="1.41972" fill="#700209"/>
</g>
<g filter="url(#filter12_f_710_3456)">
<circle cx="96.0535" cy="91.2146" r="1.41972" fill="#700209"/>
</g>
<circle cx="63.6453" cy="81.6456" r="0.645326" fill="#FF5A64"/>
<circle cx="62.6453" cy="38.6456" r="0.645326" fill="#FF5A64"/>
<g filter="url(#filter13_f_710_3456)">
<circle cx="96.4197" cy="90.42" r="1.41972" fill="#700209"/>
</g>
<circle cx="282.42" cy="81.42" r="1.41972" fill="#700209"/>
<circle cx="69.0691" cy="93.0694" r="1.06912" fill="#700209"/>
<defs>
<filter id="filter0_f_710_3456" x="55.1367" y="137.806" width="94.7266" height="197.887" filterUnits="userSpaceOnUse" color-interpolation-filters="sRGB">
<feFlood flood-opacity="0" result="BackgroundImageFix"/>
<feBlend mode="normal" in="SourceGraphic" in2="BackgroundImageFix" result="shape"/>
<feGaussianBlur stdDeviation="3.61" result="effect1_foregroundBlur_710_3456"/>
</filter>
<filter id="filter1_f_710_3456" x="54.4417" y="54.2725" width="269.728" height="269.728" filterUnits="userSpaceOnUse" color-interpolation-filters="sRGB">
<feFlood flood-opacity="0" result="BackgroundImageFix"/>
<feBlend mode="normal" in="SourceGraphic" in2="BackgroundImageFix" result="shape"/>
<feGaussianBlur stdDeviation="3" result="effect1_foregroundBlur_710_3456"/>
</filter>
<filter id="filter2_f_710_3456" x="83.9718" y="62.4155" width="229.824" height="248.594" filterUnits="userSpaceOnUse" color-interpolation-filters="sRGB">
<feFlood flood-opacity="0" result="BackgroundImageFix"/>
<feBlend mode="normal" in="SourceGraphic" in2="BackgroundImageFix" result="shape"/>
<feGaussianBlur stdDeviation="1.25898" result="effect1_foregroundBlur_710_3456"/>
</filter>
<filter id="filter3_f_710_3456" x="18.3981" y="14.899" width="312.919" height="357.019" filterUnits="userSpaceOnUse" color-interpolation-filters="sRGB">
<feFlood flood-opacity="0" result="BackgroundImageFix"/>
<feBlend mode="normal" in="SourceGraphic" in2="BackgroundImageFix" result="shape"/>
<feGaussianBlur stdDeviation="1.81" result="effect1_foregroundBlur_710_3456"/>
</filter>
<filter id="filter4_f_710_3456" x="0.971406" y="0.849946" width="349.407" height="397.292" filterUnits="userSpaceOnUse" color-interpolation-filters="sRGB">
<feFlood flood-opacity="0" result="BackgroundImageFix"/>
<feBlend mode="normal" in="SourceGraphic" in2="BackgroundImageFix" result="shape"/>
<feGaussianBlur stdDeviation="2.11" result="effect1_foregroundBlur_710_3456"/>
</filter>
<filter id="filter5_f_710_3456" x="275.763" y="75.7636" width="11.3126" height="11.3128" filterUnits="userSpaceOnUse" color-interpolation-filters="sRGB">
<feFlood flood-opacity="0" result="BackgroundImageFix"/>
<feBlend mode="normal" in="SourceGraphic" in2="BackgroundImageFix" result="shape"/>
<feGaussianBlur stdDeviation="2.11832" result="effect1_foregroundBlur_710_3456"/>
</filter>
<filter id="filter6_f_710_3456" x="295.763" y="23.7636" width="11.3126" height="11.3128" filterUnits="userSpaceOnUse" color-interpolation-filters="sRGB">
<feFlood flood-opacity="0" result="BackgroundImageFix"/>
<feBlend mode="normal" in="SourceGraphic" in2="BackgroundImageFix" result="shape"/>
<feGaussianBlur stdDeviation="2.11832" result="effect1_foregroundBlur_710_3456"/>
</filter>
<filter id="filter7_f_710_3456" x="288.763" y="41.7636" width="11.3126" height="11.3128" filterUnits="userSpaceOnUse" color-interpolation-filters="sRGB">
<feFlood flood-opacity="0" result="BackgroundImageFix"/>
<feBlend mode="normal" in="SourceGraphic" in2="BackgroundImageFix" result="shape"/>
<feGaussianBlur stdDeviation="2.11832" result="effect1_foregroundBlur_710_3456"/>
</filter>
<filter id="filter8_f_710_3456" x="210.763" y="32.7636" width="11.3126" height="11.3128" filterUnits="userSpaceOnUse" color-interpolation-filters="sRGB">
<feFlood flood-opacity="0" result="BackgroundImageFix"/>
<feBlend mode="normal" in="SourceGraphic" in2="BackgroundImageFix" result="shape"/>
<feGaussianBlur stdDeviation="2.11832" result="effect1_foregroundBlur_710_3456"/>
</filter>
<filter id="filter9_f_710_3456" x="104.595" y="58.4549" width="11.3126" height="11.3128" filterUnits="userSpaceOnUse" color-interpolation-filters="sRGB">
<feFlood flood-opacity="0" result="BackgroundImageFix"/>
<feBlend mode="normal" in="SourceGraphic" in2="BackgroundImageFix" result="shape"/>
<feGaussianBlur stdDeviation="2.11832" result="effect1_foregroundBlur_710_3456"/>
</filter>
<filter id="filter10_f_710_3456" x="71.0378" y="62.8428" width="11.3126" height="11.3128" filterUnits="userSpaceOnUse" color-interpolation-filters="sRGB">
<feFlood flood-opacity="0" result="BackgroundImageFix"/>
<feBlend mode="normal" in="SourceGraphic" in2="BackgroundImageFix" result="shape"/>
<feGaussianBlur stdDeviation="2.11832" result="effect1_foregroundBlur_710_3456"/>
</filter>
<filter id="filter11_f_710_3456" x="45.7414" y="54.0663" width="11.3126" height="11.3128" filterUnits="userSpaceOnUse" color-interpolation-filters="sRGB">
<feFlood flood-opacity="0" result="BackgroundImageFix"/>
<feBlend mode="normal" in="SourceGraphic" in2="BackgroundImageFix" result="shape"/>
<feGaussianBlur stdDeviation="2.11832" result="effect1_foregroundBlur_710_3456"/>
</filter>
<filter id="filter12_f_710_3456" x="90.3972" y="85.5583" width="11.3126" height="11.3128" filterUnits="userSpaceOnUse" color-interpolation-filters="sRGB">
<feFlood flood-opacity="0" result="BackgroundImageFix"/>
<feBlend mode="normal" in="SourceGraphic" in2="BackgroundImageFix" result="shape"/>
<feGaussianBlur stdDeviation="2.11832" result="effect1_foregroundBlur_710_3456"/>
</filter>
<filter id="filter13_f_710_3456" x="90.7634" y="84.7636" width="11.3126" height="11.3128" filterUnits="userSpaceOnUse" color-interpolation-filters="sRGB">
<feFlood flood-opacity="0" result="BackgroundImageFix"/>
<feBlend mode="normal" in="SourceGraphic" in2="BackgroundImageFix" result="shape"/>
<feGaussianBlur stdDeviation="2.11832" result="effect1_foregroundBlur_710_3456"/>
</filter>
</defs>
</svg>
