<svg width="570" height="729" viewBox="0 0 570 729" fill="none" xmlns="http://www.w3.org/2000/svg">
    <path d="M3 440.126L282.41 4.62024M3 440.126L282.41 724.999M3 440.126L282.15 35.016M3 440.126L282.41 77.1367M3 440.126L282.41 119.508M3 440.126L280.84 168.604M3 440.126L282.41 218.933M3 440.126L282.41 265.331M3 440.126L282.41 338.204M3 440.126L282.41 399.111M3 440.126L282.41 458.188M3 440.126L282.41 588.577M3 440.126L282.41 651.874M3 440.126L68.0595 459.689M282.41 4.62024L567.284 440.126M282.41 4.62024V77.1367M282.41 4.62024C244.288 162.695 168.043 481.026 168.043 489.754M282.41 4.62024L68.0595 459.689M567.284 440.126L282.41 724.999M567.284 440.126L282.41 338.204M567.284 440.126L282.41 399.111M567.284 440.126L280.84 168.604M567.284 440.126L282.41 218.933M282.41 724.999V651.874M282.41 724.999L168.043 489.754M282.41 724.999L68.0595 459.689M282.41 77.1367V119.508M282.41 119.508L280.84 168.604M280.84 168.604L282.41 218.933M282.41 218.933V265.331M282.41 338.204V399.111M282.41 338.204V265.331M282.41 399.111V458.188M282.41 458.188V524.144M282.41 524.144V588.577M282.41 524.144L168.043 489.754M282.41 588.577V651.874M168.043 489.754L68.0595 459.689" stroke="#8A0008" stroke-width="4.23904"/>
    <path d="M569.303 439.939L282.586 726.452C282.586 712.909 280.722 697.299 278.654 690.117C267.364 636.411 228.273 613.615 222.727 591.198C218.29 573.264 226.114 563.506 230.58 560.868C290.269 596.472 280.767 558.755 222.727 532.362C176.805 511.48 146.554 505.232 122.256 479.635C130.013 460.941 180.82 445.621 230.58 441.742C270.389 438.64 295.867 424.212 303.631 417.386C348.446 379.629 309.274 335.512 267.27 304.814C241.849 286.235 252.455 252.242 279.623 231.415C306.792 210.588 318.446 163.659 299.384 158.365C280.321 153.071 259.164 173.549 240.102 191.196C221.039 208.842 218.228 180.258 226.702 160.478C233.481 144.654 256.572 110.602 267.27 95.5533C282.648 78.973 282.412 41.8703 282.412 2L569.303 439.939Z" fill="#8A0008"/>
    <path d="M280.983 528L122.294 479.557C119.637 484.483 141.532 500.261 202.965 525.614C298.9 565.204 277.841 589.953 230.615 560.664C230.029 560.3 229.243 560.338 228.741 560.81C214.685 574.011 224.069 599.443 230.832 607.41C277.513 662.39 280.899 718.286 282.363 728.074L570 440.406L284.661 527.997C283.462 528.365 282.182 528.366 280.983 528Z" fill="#630006"/>
</svg>
