<svg width="656" height="347" viewBox="0 0 656 347" fill="none" xmlns="http://www.w3.org/2000/svg">
<rect x="29" y="64" width="764" height="283" fill="#0D0D0D"/>
<path d="M27.4492 71.4041L49.2169 64.7339" stroke="#700007" stroke-width="2.67983"/>
<path d="M27.8262 77.397L68.8281 65.0615" stroke="#700007" stroke-width="2.67983"/>
<path d="M28.1641 86.026L86.7089 65.0615" stroke="#700007" stroke-width="2.67983"/>
<path d="M27.5869 95.1979L110.646 65.0615" stroke="#700007" stroke-width="2.67983"/>
<path d="M27.4492 101.796L126.567 65.4111" stroke="#700007" stroke-width="2.67983"/>
<path d="M27.8262 112.07L143.903 66.2671" stroke="#700007" stroke-width="2.67983"/>
<path d="M27.4492 124.912L165.761 65.4111" stroke="#700007" stroke-width="2.67983"/>
<path d="M28.1641 138.437L186.206 65.0615" stroke="#700007" stroke-width="2.67983"/>
<path d="M27.8262 156.588L206.087 65.4111" stroke="#700007" stroke-width="2.67983"/>
<path d="M28.1641 178.401L227.736 65.7168" stroke="#700007" stroke-width="2.67983"/>
<path d="M27.5869 203.951L246.193 65.7168" stroke="#700007" stroke-width="2.67983"/>
<path d="M27.5869 239.329L266.381 65.7168" stroke="#700007" stroke-width="2.67983"/>
<path d="M27.8262 285.862L287.491 65.4111" stroke="#700007" stroke-width="2.67983"/>
<path d="M42.5244 335.089L306.335 65.4111" stroke="#700007" stroke-width="2.67983"/>
<path d="M116.768 335.089L328.57 65.4111" stroke="#700007" stroke-width="2.67983"/>
<path d="M187.997 335.945L347.037 66.2671" stroke="#700007" stroke-width="2.67983"/>
<path d="M260.365 336.019L368.71 64.5884" stroke="#700007" stroke-width="2.66599"/>
<path d="M334.132 336.892L387.92 64.5884" stroke="#700007" stroke-width="2.67983"/>
<path d="M407.898 336.892L408.667 64.5884" stroke="#700007" stroke-width="2.67983"/>
<path d="M480.827 335.945L427.688 64.127" stroke="#700007" stroke-width="2.67983"/>
<path d="M553.564 335.089L449.17 65.4111" stroke="#700007" stroke-width="2.67983"/>
<path d="M625.169 335.945L468.013 64.127" stroke="#700007" stroke-width="2.67983"/>
<path d="M699.036 335.945L487.611 64.127" stroke="#700007" stroke-width="2.67983"/>
<path d="M772.526 335.945L509.092 65.4111" stroke="#700007" stroke-width="2.67983"/>
<path d="M788.355 287.146L528.313 64.127" stroke="#700007" stroke-width="2.67983"/>
<path d="M788.354 240.488L549.041 64.127" stroke="#700007" stroke-width="2.67983"/>
<path d="M790.239 207.955L569.769 65.4111" stroke="#700007" stroke-width="2.67983"/>
<path d="M790.239 180.131L589.366 64.127" stroke="#700007" stroke-width="2.67983"/>
<path d="M790.239 158.3L608.586 64.127" stroke="#700007" stroke-width="2.67983"/>
<path d="M788.732 139.894L630.445 65.4111" stroke="#700007" stroke-width="2.67983"/>
<path d="M788.355 125.34L648.158 65.4111" stroke="#700007" stroke-width="2.67983"/>
<path d="M28 72H796" stroke="#AD000A" stroke-width="3.12647"/>
<path d="M28.1792 79.9653H795.799" stroke="#700007" stroke-width="3.12647"/>
<path d="M27.9443 88.5264H795.564" stroke="#700007" stroke-width="3.12647"/>
<path d="M27.71 99.228H795.329" stroke="#700007" stroke-width="3.12647"/>
<path d="M27.9443 111.213H795.564" stroke="#700007" stroke-width="3.12647"/>
<path d="M26.7705 126.196H794.39" stroke="#700007" stroke-width="3.12647"/>
<path d="M28.1636 144.333L793.572 144.333" stroke="#700007" stroke-width="3.12647"/>
<path d="M28.1636 166.607L792.995 166.607" stroke="#700007" stroke-width="3.12647"/>
<path d="M27.5869 194.779L792.511 194.685" stroke="#700007" stroke-width="3.12647"/>
<path d="M27.5869 232.777L790.112 232.777" stroke="#700007" stroke-width="3.12647"/>
<path d="M27.5869 285.188L788.381 285.188" stroke="#700007" stroke-width="3.12647"/>
<path d="M28.1636 335.634L788.958 335.634" stroke="#700007" stroke-width="3.12647"/>
<g filter="url(#filter0_f_659_2480)">
<path d="M28.6489 65.4111H796.268" stroke="#A8000A" stroke-width="3.12647"/>
</g>
<path d="M25.4238 79.8574H793.043" stroke="#9A0009" stroke-width="3.12647"/>
<path d="M29 65H796" stroke="#C9000C" stroke-width="3.12647"/>
<path d="M29.8003 70.7677L47.98 65.0444" stroke="url(#paint0_linear_659_2480)" stroke-width="2.6933"/>
<path d="M47.6436 71.4412L69.5266 64.708" stroke="url(#paint1_linear_659_2480)" stroke-width="2.6933"/>
<path d="M26.7705 77.8382L46.2969 71.7783" stroke="url(#paint2_linear_659_2480)" stroke-width="2.6933"/>
<path d="M66.4966 71.7777L88.3796 65.0444" stroke="url(#paint3_linear_659_2480)" stroke-width="2.6933"/>
<path d="M44.2769 79.8582L67.8432 71.7783" stroke="url(#paint4_linear_659_2480)" stroke-width="2.6933"/>
<path d="M91.4097 71.7779C100.218 68.754 103.137 67.7319 111.946 64.708" stroke="url(#paint5_linear_659_2480)" stroke-width="2.6933"/>
<path d="M70.5366 79.5213C79.3454 76.4974 82.6009 75.1387 91.4097 72.1147" stroke="url(#paint6_linear_659_2480)" stroke-width="2.6933"/>
<path d="M107.906 72.1143C116.715 69.0904 121.654 67.395 130.463 64.3711" stroke="url(#paint7_linear_659_2480)" stroke-width="2.6933"/>
<path d="M87.3696 79.5215C96.1784 76.4976 101.117 74.8022 109.926 71.7783" stroke="url(#paint8_linear_659_2480)" stroke-width="2.6933"/>
<path d="M127.769 72.1143C136.578 69.0904 141.517 67.395 150.325 64.3711" stroke="url(#paint9_linear_659_2480)" stroke-width="2.6933"/>
<path d="M109.589 79.858C118.53 76.4396 121.859 74.8597 130.799 71.4414" stroke="url(#paint10_linear_659_2480)" stroke-width="2.6933"/>
<path d="M149.989 71.7781C157.614 68.8857 161.89 67.264 169.515 64.3716" stroke="url(#paint11_linear_659_2480)" stroke-width="2.6933"/>
<path d="M131.136 79.8582C139.287 76.7028 143.857 74.9337 152.009 71.7783" stroke="url(#paint12_linear_659_2480)" stroke-width="2.6933"/>
<path d="M168.168 72.1143C176.977 69.0904 181.916 67.395 190.725 64.3711" stroke="url(#paint13_linear_659_2480)" stroke-width="2.6933"/>
<path d="M154.029 79.8582C160.865 76.7028 164.699 74.9337 171.535 71.7783" stroke="url(#paint14_linear_659_2480)" stroke-width="2.6933"/>
<path d="M178.145 79.6123C190.074 73.7563 195.293 70.5641 207.221 64.7081" stroke="url(#paint15_linear_659_2480)" stroke-width="2.6933"/>
<path d="M200 80.3698C211.898 74.3307 217.103 71.0394 229 65.0002" stroke="url(#paint16_linear_659_2480)" stroke-width="2.6933"/>
<path d="M202.508 79.8582C208.293 76.7028 211.536 74.9337 217.321 71.7783" stroke="url(#paint17_linear_659_2480)" stroke-width="2.6933"/>
<path d="M223 80C228.467 76.8758 231.533 75.1242 237 72" stroke="url(#paint18_linear_659_2480)" stroke-width="2.6933"/>
<path d="M468.471 65.0444L472.847 72.451" stroke="url(#paint19_linear_659_2480)" stroke-width="2.6933"/>
<path d="M428 65L430 75" stroke="url(#paint20_linear_659_2480)" stroke-width="2.6933"/>
<path d="M470.491 68.4111L477.561 80.531" stroke="url(#paint21_linear_659_2480)" stroke-width="2.6933"/>
<path d="M449 65L455 81" stroke="url(#paint22_linear_659_2480)" stroke-width="2.6933"/>
<path d="M488.334 64.7075L494.394 72.7874" stroke="url(#paint23_linear_659_2480)" stroke-width="2.6933"/>
<path d="M493.384 71.7778L500.79 80.531" stroke="url(#paint24_linear_659_2480)" stroke-width="2.6933"/>
<path d="M515.604 72.4429L524.357 80.5309" stroke="url(#paint25_linear_659_2480)" stroke-width="2.6933"/>
<path d="M536.477 71.1045L546.576 79.8577" stroke="url(#paint26_linear_659_2480)" stroke-width="2.6933"/>
<path d="M556.003 69.2295L570.143 79.8574" stroke="url(#paint27_linear_659_2480)" stroke-width="2.6933"/>
<path d="M579.411 71.8179L591.016 79.1845" stroke="url(#paint28_linear_659_2480)" stroke-width="2.6933"/>
<path d="M602 71.3149L617 80" stroke="url(#paint29_linear_659_2480)" stroke-width="2.6933"/>
<path d="M621 71L640 80" stroke="url(#paint30_linear_659_2480)" stroke-width="2.6933"/>
<path d="M508.87 65.3809L515.603 71.7774" stroke="url(#paint31_linear_659_2480)" stroke-width="2.6933"/>
<path d="M528.396 64.3711L537.823 72.451" stroke="url(#paint32_linear_659_2480)" stroke-width="2.6933"/>
<path d="M549.943 65.0444L560.043 71.7777" stroke="url(#paint33_linear_659_2480)" stroke-width="2.6933"/>
<path d="M568.123 64.3711L579.569 71.7777" stroke="url(#paint34_linear_659_2480)" stroke-width="2.6933"/>
<path d="M590 65L604 72" stroke="url(#paint35_linear_659_2480)" stroke-width="2.6933"/>
<path d="M610 65L624 72" stroke="url(#paint36_linear_659_2480)" stroke-width="2.6933"/>
<path d="M630 65L644 72" stroke="url(#paint37_linear_659_2480)" stroke-width="2.6933"/>
<rect x="25" y="63" width="43" height="284" fill="url(#paint38_linear_659_2480)"/>
<rect width="34" height="346" fill="#0D0D0D"/>
<defs>
<filter id="filter0_f_659_2480" x="3.73594" y="38.9347" width="817.445" height="52.9529" filterUnits="userSpaceOnUse" color-interpolation-filters="sRGB">
<feFlood flood-opacity="0" result="BackgroundImageFix"/>
<feBlend mode="normal" in="SourceGraphic" in2="BackgroundImageFix" result="shape"/>
<feGaussianBlur stdDeviation="12.4565" result="effect1_foregroundBlur_659_2480"/>
</filter>
<linearGradient id="paint0_linear_659_2480" x1="45.6234" y1="65.7178" x2="32.1569" y2="70.431" gradientUnits="userSpaceOnUse">
<stop stop-color="#C9000C"/>
<stop offset="1" stop-color="#AC000A"/>
</linearGradient>
<linearGradient id="paint1_linear_659_2480" x1="63.4667" y1="66.3913" x2="50.0002" y2="71.1046" gradientUnits="userSpaceOnUse">
<stop stop-color="#C9000C"/>
<stop offset="1" stop-color="#AC000A"/>
</linearGradient>
<linearGradient id="paint2_linear_659_2480" x1="44.9502" y1="71.7783" x2="30.1087" y2="77.0855" gradientUnits="userSpaceOnUse">
<stop stop-color="#AC000A"/>
<stop offset="0.854234" stop-color="#9A0009"/>
</linearGradient>
<linearGradient id="paint3_linear_659_2480" x1="82.3197" y1="66.7277" x2="68.8532" y2="71.441" gradientUnits="userSpaceOnUse">
<stop stop-color="#C9000C"/>
<stop offset="1" stop-color="#AC000A"/>
</linearGradient>
<linearGradient id="paint4_linear_659_2480" x1="66.1599" y1="72.115" x2="46.4088" y2="78.1187" gradientUnits="userSpaceOnUse">
<stop stop-color="#AC000A"/>
<stop offset="1" stop-color="#9A0009"/>
</linearGradient>
<linearGradient id="paint5_linear_659_2480" x1="105.213" y1="67.4013" x2="91.7463" y2="72.1146" gradientUnits="userSpaceOnUse">
<stop stop-color="#C9000C"/>
<stop offset="1" stop-color="#AC000A"/>
</linearGradient>
<linearGradient id="paint6_linear_659_2480" x1="90.3997" y1="72.4514" x2="70.8733" y2="79.858" gradientUnits="userSpaceOnUse">
<stop stop-color="#AC000A"/>
<stop offset="1" stop-color="#9A0009"/>
</linearGradient>
<linearGradient id="paint7_linear_659_2480" x1="120.699" y1="67.7377" x2="107.233" y2="72.451" gradientUnits="userSpaceOnUse">
<stop stop-color="#C9000C"/>
<stop offset="1" stop-color="#AC000A"/>
</linearGradient>
<linearGradient id="paint8_linear_659_2480" x1="109.926" y1="71.7783" x2="89.7263" y2="78.8482" gradientUnits="userSpaceOnUse">
<stop stop-color="#AC0009"/>
<stop offset="0.987349" stop-color="#9A0009"/>
</linearGradient>
<linearGradient id="paint9_linear_659_2480" x1="140.562" y1="67.7377" x2="127.096" y2="72.451" gradientUnits="userSpaceOnUse">
<stop stop-color="#C9000C"/>
<stop offset="1" stop-color="#AC000A"/>
</linearGradient>
<linearGradient id="paint10_linear_659_2480" x1="123.729" y1="73.798" x2="110.633" y2="78.3026" gradientUnits="userSpaceOnUse">
<stop stop-color="#AC000A"/>
<stop offset="0.980759" stop-color="#9A0009"/>
</linearGradient>
<linearGradient id="paint11_linear_659_2480" x1="161.063" y1="67.5918" x2="149.171" y2="71.3588" gradientUnits="userSpaceOnUse">
<stop stop-color="#C9000C"/>
<stop offset="1" stop-color="#AC000A"/>
</linearGradient>
<linearGradient id="paint12_linear_659_2480" x1="152.009" y1="71.105" x2="129.953" y2="78.5534" gradientUnits="userSpaceOnUse">
<stop stop-color="#AC000A"/>
<stop offset="1" stop-color="#9A0009"/>
</linearGradient>
<linearGradient id="paint13_linear_659_2480" x1="180.962" y1="67.7377" x2="167.495" y2="72.451" gradientUnits="userSpaceOnUse">
<stop stop-color="#C9000C"/>
<stop offset="1" stop-color="#AC000A"/>
</linearGradient>
<linearGradient id="paint14_linear_659_2480" x1="170.525" y1="71.7783" x2="152.557" y2="76.8441" gradientUnits="userSpaceOnUse">
<stop stop-color="#AC000A"/>
<stop offset="1" stop-color="#9A0009"/>
</linearGradient>
<linearGradient id="paint15_linear_659_2480" x1="205.314" y1="65.2359" x2="177.478" y2="71.8621" gradientUnits="userSpaceOnUse">
<stop stop-color="#C9000C"/>
<stop offset="1" stop-color="#9A0009"/>
</linearGradient>
<linearGradient id="paint16_linear_659_2480" x1="227.098" y1="65.5449" x2="199.238" y2="71.9502" gradientUnits="userSpaceOnUse">
<stop stop-color="#C9000C"/>
<stop offset="1" stop-color="#9A0009"/>
</linearGradient>
<linearGradient id="paint17_linear_659_2480" x1="210.909" y1="75.2913" x2="186.834" y2="78.1891" gradientUnits="userSpaceOnUse">
<stop stop-color="#AC000A"/>
<stop offset="1" stop-color="#720007"/>
</linearGradient>
<linearGradient id="paint18_linear_659_2480" x1="230.94" y1="75.4782" x2="208.158" y2="78.0958" gradientUnits="userSpaceOnUse">
<stop stop-color="#AC000A"/>
<stop offset="1" stop-color="#720007"/>
</linearGradient>
<linearGradient id="paint19_linear_659_2480" x1="468.706" y1="65.2689" x2="466.251" y2="69.5571" gradientUnits="userSpaceOnUse">
<stop offset="0.150213" stop-color="#C9000C"/>
<stop offset="1" stop-color="#AC000A"/>
</linearGradient>
<linearGradient id="paint20_linear_659_2480" x1="428.108" y1="65.303" x2="424.74" y2="67.2934" gradientUnits="userSpaceOnUse">
<stop offset="0.150213" stop-color="#C9000C"/>
<stop offset="1" stop-color="#AC000A"/>
</linearGradient>
<linearGradient id="paint21_linear_659_2480" x1="471.703" y1="69.7367" x2="467.131" y2="77.2011" gradientUnits="userSpaceOnUse">
<stop offset="0.00386595" stop-color="#C1000B"/>
<stop offset="0.70428" stop-color="#9A0009"/>
</linearGradient>
<linearGradient id="paint22_linear_659_2480" x1="450.029" y1="66.75" x2="443.261" y2="73.8529" gradientUnits="userSpaceOnUse">
<stop offset="0.00386595" stop-color="#C1000B"/>
<stop offset="0.70428" stop-color="#9A0009"/>
</linearGradient>
<linearGradient id="paint23_linear_659_2480" x1="489.58" y1="64.5953" x2="487.124" y2="68.8835" gradientUnits="userSpaceOnUse">
<stop offset="0.150213" stop-color="#C9000C"/>
<stop offset="1" stop-color="#AC000A"/>
</linearGradient>
<linearGradient id="paint24_linear_659_2480" x1="493.384" y1="71.7778" x2="491.318" y2="77.4836" gradientUnits="userSpaceOnUse">
<stop stop-color="#AC0009"/>
<stop offset="1" stop-color="#9A0009"/>
</linearGradient>
<linearGradient id="paint25_linear_659_2480" x1="515.604" y1="72.4429" x2="514.155" y2="78.4442" gradientUnits="userSpaceOnUse">
<stop stop-color="#AC0009"/>
<stop offset="1" stop-color="#9A0009"/>
</linearGradient>
<linearGradient id="paint26_linear_659_2480" x1="536.477" y1="71.1045" x2="535.015" y2="77.7071" gradientUnits="userSpaceOnUse">
<stop stop-color="#AC0009"/>
<stop offset="1" stop-color="#9A0009"/>
</linearGradient>
<linearGradient id="paint27_linear_659_2480" x1="556.003" y1="69.2295" x2="554.685" y2="78.0944" gradientUnits="userSpaceOnUse">
<stop stop-color="#AC0009"/>
<stop offset="1" stop-color="#9A0009"/>
</linearGradient>
<linearGradient id="paint28_linear_659_2480" x1="579.411" y1="71.8179" x2="578.952" y2="78.8073" gradientUnits="userSpaceOnUse">
<stop stop-color="#AC0009"/>
<stop offset="1" stop-color="#9A0009"/>
</linearGradient>
<linearGradient id="paint29_linear_659_2480" x1="602" y1="71.3149" x2="601.637" y2="79.8534" gradientUnits="userSpaceOnUse">
<stop stop-color="#AC0009"/>
<stop offset="1" stop-color="#9A0009"/>
</linearGradient>
<linearGradient id="paint30_linear_659_2480" x1="621" y1="71" x2="621" y2="80.5658" gradientUnits="userSpaceOnUse">
<stop stop-color="#AC0009"/>
<stop offset="1" stop-color="#9A0009"/>
</linearGradient>
<linearGradient id="paint31_linear_659_2480" x1="507.86" y1="64.7075" x2="506.627" y2="69.9841" gradientUnits="userSpaceOnUse">
<stop offset="0.150213" stop-color="#C9000C"/>
<stop offset="1" stop-color="#AC000A"/>
</linearGradient>
<linearGradient id="paint32_linear_659_2480" x1="526.983" y1="63.5206" x2="525.563" y2="70.2506" gradientUnits="userSpaceOnUse">
<stop offset="0.150213" stop-color="#C9000C"/>
<stop offset="1" stop-color="#AC000A"/>
</linearGradient>
<linearGradient id="paint33_linear_659_2480" x1="548.428" y1="64.3357" x2="547.492" y2="70.04" gradientUnits="userSpaceOnUse">
<stop offset="0.150213" stop-color="#C9000C"/>
<stop offset="1" stop-color="#AC000A"/>
</linearGradient>
<linearGradient id="paint34_linear_659_2480" x1="566.406" y1="63.5915" x2="565.405" y2="69.8758" gradientUnits="userSpaceOnUse">
<stop offset="0.150213" stop-color="#C9000C"/>
<stop offset="1" stop-color="#AC000A"/>
</linearGradient>
<linearGradient id="paint35_linear_659_2480" x1="587.9" y1="64.2632" x2="587.162" y2="70.2623" gradientUnits="userSpaceOnUse">
<stop offset="0.150213" stop-color="#C9000C"/>
<stop offset="1" stop-color="#AC000A"/>
</linearGradient>
<linearGradient id="paint36_linear_659_2480" x1="607.9" y1="64.2632" x2="607.162" y2="70.2623" gradientUnits="userSpaceOnUse">
<stop offset="0.150213" stop-color="#C9000C"/>
<stop offset="1" stop-color="#AC000A"/>
</linearGradient>
<linearGradient id="paint37_linear_659_2480" x1="627.9" y1="64.2632" x2="627.162" y2="70.2623" gradientUnits="userSpaceOnUse">
<stop offset="0.150213" stop-color="#C9000C"/>
<stop offset="1" stop-color="#AC000A"/>
</linearGradient>
<linearGradient id="paint38_linear_659_2480" x1="34" y1="213.226" x2="68" y2="213.226" gradientUnits="userSpaceOnUse">
<stop stop-color="#0D0D0D"/>
<stop offset="1" stop-color="#0D0D0D" stop-opacity="0"/>
</linearGradient>
</defs>
</svg>
