<svg width="588" height="747" viewBox="0 0 588 747" fill="none" xmlns="http://www.w3.org/2000/svg">
<path d="M11 448.126L290.41 12.6202L575.284 448.126L290.41 732.999L11 448.126Z" fill="#0D0D0D"/>
<g filter="url(#filter0_f_817_2312)">
<path d="M11 448.126L290.41 12.6202M11 448.126L290.41 732.999M11 448.126L290.15 43.016M11 448.126L290.41 85.1367M11 448.126L290.41 127.508M11 448.126L288.84 176.604M11 448.126L290.41 226.933M11 448.126L290.41 273.331M11 448.126L290.41 346.204M11 448.126L290.41 407.111M11 448.126L290.41 466.188M11 448.126L290.41 596.577M11 448.126L290.41 659.874M11 448.126L76.0595 467.689M290.41 12.6202L575.284 448.126M290.41 12.6202V85.1367M290.41 12.6202C252.288 170.695 176.043 489.026 176.043 497.754M290.41 12.6202L76.0595 467.689M575.284 448.126L290.41 732.999M575.284 448.126L290.41 346.204M575.284 448.126L290.41 407.111M575.284 448.126L288.84 176.604M575.284 448.126L290.41 226.933M290.41 732.999V659.874M290.41 732.999L176.043 497.754M290.41 732.999L76.0595 467.689M290.41 85.1367V127.508M290.41 127.508L288.84 176.604M288.84 176.604L290.41 226.933M290.41 226.933V273.331M290.41 346.204V407.111M290.41 346.204V273.331M290.41 407.111V466.188M290.41 466.188V532.144M290.41 532.144V596.577M290.41 532.144L176.043 497.754M290.41 596.577V659.874M176.043 497.754L76.0595 467.689" stroke="#8A0008" stroke-width="4.23904"/>
</g>
<path d="M11 448.126L290.41 12.6202M11 448.126L290.41 732.999M11 448.126L290.15 43.016M11 448.126L290.41 85.1367M11 448.126L290.41 127.508M11 448.126L288.84 176.604M11 448.126L290.41 226.933M11 448.126L290.41 273.331M11 448.126L290.41 346.204M11 448.126L290.41 407.111M11 448.126L290.41 466.188M11 448.126L290.41 596.577M11 448.126L290.41 659.874M11 448.126L76.0595 467.689M290.41 12.6202L575.284 448.126M290.41 12.6202V85.1367M290.41 12.6202C252.288 170.695 176.043 489.026 176.043 497.754M290.41 12.6202L76.0595 467.689M575.284 448.126L290.41 732.999M575.284 448.126L290.41 346.204M575.284 448.126L290.41 407.111M575.284 448.126L288.84 176.604M575.284 448.126L290.41 226.933M290.41 732.999V659.874M290.41 732.999L176.043 497.754M290.41 732.999L76.0595 467.689M290.41 85.1367V127.508M290.41 127.508L288.84 176.604M288.84 176.604L290.41 226.933M290.41 226.933V273.331M290.41 346.204V407.111M290.41 346.204V273.331M290.41 407.111V466.188M290.41 466.188V532.144M290.41 532.144V596.577M290.41 532.144L176.043 497.754M290.41 596.577V659.874M176.043 497.754L76.0595 467.689" stroke="#8A0008" stroke-width="4.23904"/>
<g filter="url(#filter1_f_817_2312)">
<path d="M577.303 447.939L290.586 734.452C290.586 720.909 288.722 705.299 286.654 698.117C275.364 644.411 236.273 621.615 230.727 599.198C226.29 581.264 234.114 571.506 238.58 568.868C298.269 604.472 288.767 566.755 230.727 540.362C184.805 519.48 155.298 510.098 131 484.5C138.757 465.806 188.82 453.621 238.58 449.742C278.389 446.64 303.867 432.212 311.631 425.386C356.446 387.629 317.274 343.512 275.27 312.814C249.849 294.235 260.455 260.242 287.623 239.415C314.792 218.588 326.446 171.659 307.384 166.365C288.321 161.07 267.164 181.549 248.102 199.196C229.039 216.842 226.228 188.258 234.702 168.478C241.481 152.654 264.572 118.602 275.27 103.553C290.648 86.973 290.412 49.8703 290.412 10L577.303 447.939Z" fill="#8A0008"/>
</g>
<g filter="url(#filter2_f_817_2312)">
<path d="M288.941 535.954L131 485C128.343 489.926 149.532 508.261 210.965 533.614C306.9 573.204 285.841 597.953 238.615 568.664C238.029 568.3 237.243 568.338 236.741 568.81C222.685 582.011 232.069 607.443 238.832 615.41C285.513 670.39 288.899 726.286 290.363 736.074L578 448.406L292.713 535.981C291.482 536.359 290.165 536.349 288.941 535.954Z" fill="#630006"/>
</g>
<path d="M577.303 447.939L290.586 734.452C290.586 720.909 288.722 705.299 286.654 698.117C275.364 644.411 236.273 621.615 230.727 599.198C226.29 581.264 234.114 571.506 238.58 568.868C298.269 604.472 288.767 566.755 230.727 540.362C184.805 519.48 155.298 510.098 131 484.5C138.757 465.806 188.82 453.621 238.58 449.742C278.389 446.64 303.867 432.212 311.631 425.386C356.446 387.629 317.274 343.512 275.27 312.814C249.849 294.235 260.455 260.242 287.623 239.415C314.792 218.588 326.446 171.659 307.384 166.365C288.321 161.07 267.164 181.549 248.102 199.196C229.039 216.842 226.228 188.258 234.702 168.478C241.481 152.654 264.572 118.602 275.27 103.553C290.648 86.973 290.412 49.8703 290.412 10L577.303 447.939Z" fill="#8A0008"/>
<path d="M288.941 535.954L131 485C128.343 489.926 149.532 508.261 210.965 533.614C306.9 573.204 285.841 597.953 238.615 568.664C238.029 568.3 237.243 568.338 236.741 568.81C222.685 582.011 232.069 607.443 238.832 615.41C285.513 670.39 288.899 726.286 290.363 736.074L578 448.406L292.713 535.981C291.482 536.359 290.165 536.349 288.941 535.954Z" fill="#630006"/>
<defs>
<filter id="filter0_f_817_2312" x="0.303589" y="0.722046" width="585.697" height="743.289" filterUnits="userSpaceOnUse" color-interpolation-filters="sRGB">
<feFlood flood-opacity="0" result="BackgroundImageFix"/>
<feBlend mode="normal" in="SourceGraphic" in2="BackgroundImageFix" result="shape"/>
<feGaussianBlur stdDeviation="4" result="effect1_foregroundBlur_817_2312"/>
</filter>
<filter id="filter1_f_817_2312" x="121" y="0" width="466.303" height="744.452" filterUnits="userSpaceOnUse" color-interpolation-filters="sRGB">
<feFlood flood-opacity="0" result="BackgroundImageFix"/>
<feBlend mode="normal" in="SourceGraphic" in2="BackgroundImageFix" result="shape"/>
<feGaussianBlur stdDeviation="5" result="effect1_foregroundBlur_817_2312"/>
</filter>
<filter id="filter2_f_817_2312" x="120.781" y="438.406" width="467.219" height="307.668" filterUnits="userSpaceOnUse" color-interpolation-filters="sRGB">
<feFlood flood-opacity="0" result="BackgroundImageFix"/>
<feBlend mode="normal" in="SourceGraphic" in2="BackgroundImageFix" result="shape"/>
<feGaussianBlur stdDeviation="5" result="effect1_foregroundBlur_817_2312"/>
</filter>
</defs>
</svg>
