<svg width="89" height="55" viewBox="0 0 89 55" fill="none" xmlns="http://www.w3.org/2000/svg">
<path fill-rule="evenodd" clip-rule="evenodd" d="M61.1554 45.382C61.1554 49.0678 58.1284 52.0561 54.3948 52.0561H8.76057C5.02702 52.0561 1.99995 49.0678 1.99995 45.382V8.67412C1.99995 4.98832 5.02702 1.99996 8.76057 1.99996H54.3948C58.1284 1.99996 61.1554 4.98832 61.1554 8.67412V45.382Z" stroke="#700007" stroke-width="4" stroke-linecap="round"/>
<circle cx="45.5" cy="14.5" r="5.25" stroke="#D93434" stroke-width="4.5"/>
<path fill-rule="evenodd" clip-rule="evenodd" d="M86.8429 9.6613C86.8429 9.35974 86.5219 9.16663 86.2555 9.30793L65.2109 20.4692C65.0801 20.5385 64.9984 20.6745 64.9984 20.8225V33.5819C64.9984 33.7299 65.0801 33.8659 65.2109 33.9353L86.2555 45.0965C86.5219 45.2378 86.8429 45.0447 86.8429 44.7431V9.6613Z" stroke="#D93434" stroke-width="4" stroke-linecap="round"/>
</svg>
