<svg width="76" height="62" viewBox="0 0 76 62" fill="none" xmlns="http://www.w3.org/2000/svg">
<path d="M59 29.5C59 45.7924 45.7924 59 29.5 59C13.2076 59 0 45.7924 0 29.5C0 13.2076 13.2076 0 29.5 0C45.7924 0 59 13.2076 59 29.5ZM4.30443 29.5C4.30443 43.4151 15.5849 54.6956 29.5 54.6956C43.4151 54.6956 54.6956 43.4151 54.6956 29.5C54.6956 15.5849 43.4151 4.30443 29.5 4.30443C15.5849 4.30443 4.30443 15.5849 4.30443 29.5Z" fill="#700007"/>
<path d="M33.6642 28.1316L27.1251 26.2184C26.3683 26.0004 25.8415 25.292 25.8415 24.5049C25.8415 23.518 26.6408 22.7188 27.6277 22.7188H31.6419C32.3806 22.7188 33.1072 22.9428 33.7126 23.3545C34.082 23.6027 34.5785 23.5422 34.8933 23.2334L37.0003 21.1748C37.4302 20.757 37.3697 20.0607 36.8913 19.6914C35.408 18.5289 33.5552 17.8811 31.654 17.875V14.9688C31.654 14.4359 31.2181 14 30.6853 14H28.7478C28.215 14 27.779 14.4359 27.779 14.9688V17.875H27.6277C23.7708 17.875 20.6708 21.1869 21.0281 25.1164C21.2824 27.9076 23.4136 30.1781 26.1019 30.9652L32.308 32.7816C33.0648 33.0057 33.5915 33.708 33.5915 34.4951C33.5915 35.482 32.7923 36.2812 31.8054 36.2812H27.7912C27.0525 36.2812 26.3259 36.0572 25.7205 35.6455C25.3511 35.3973 24.8546 35.4578 24.5398 35.7666L22.4328 37.8252C22.0029 38.243 22.0634 38.9393 22.5417 39.3086C24.0251 40.4711 25.8779 41.1189 27.779 41.125V44.0312C27.779 44.5641 28.215 45 28.7478 45H30.6853C31.2181 45 31.654 44.5641 31.654 44.0312V41.1129C34.4755 41.0584 37.1214 39.3813 38.0539 36.7111C39.3556 32.9814 37.1699 29.1549 33.6642 28.1316Z" fill="#D93434"/>
<path fill-rule="evenodd" clip-rule="evenodd" d="M47.8654 30.9231C47.0238 30.5725 46.0538 30.7644 45.4091 31.4091C44.7644 32.0538 44.5725 33.0238 44.9231 33.8654L55.6153 59.5296C55.9752 60.3936 56.8325 60.9445 57.768 60.913C58.7034 60.8815 59.5217 60.2742 59.8227 59.3879L62.3447 51.9627L69.2731 58.8912C70.2494 59.8675 71.8323 59.8675 72.8087 58.8912C73.785 57.9149 73.785 56.332 72.8087 55.3556L65.8395 48.3865L73.3879 45.8227C74.2742 45.5217 74.8815 44.7034 74.913 43.768C74.9445 42.8325 74.3936 41.9752 73.5296 41.6153L47.8654 30.9231ZM57.4779 52.2992L51.1782 37.1782L66.2992 43.4779L60.7646 45.3577C60.1025 45.5826 59.5826 46.1025 59.3577 46.7646L57.4779 52.2992Z" fill="#D93434"/>
<path d="M45.4091 31.4091L44.7798 30.7798L44.7798 30.7798L45.4091 31.4091ZM47.8654 30.9231L48.2076 30.1016L47.8654 30.9231ZM44.9231 33.8654L44.1016 34.2076L44.9231 33.8654ZM55.6153 59.5296L56.4368 59.1873L55.6153 59.5296ZM57.768 60.913L57.7979 61.8025H57.7979L57.768 60.913ZM59.8227 59.3879L58.98 59.1017L59.8227 59.3879ZM62.3447 51.9627L62.974 51.3334C62.7565 51.1159 62.4422 51.0261 62.1426 51.0959C61.8431 51.1658 61.6009 51.3853 61.5019 51.6765L62.3447 51.9627ZM65.8395 48.3865L65.5533 47.5438C65.2621 47.6427 65.0426 47.885 64.9728 48.1845C64.9029 48.484 64.9927 48.7984 65.2102 49.0158L65.8395 48.3865ZM73.3879 45.8227L73.1017 44.98L73.3879 45.8227ZM74.913 43.768L75.8025 43.7979V43.7979L74.913 43.768ZM73.5296 41.6153L73.1873 42.4368L73.5296 41.6153ZM51.1782 37.1782L51.5205 36.3567C51.1876 36.218 50.8039 36.2939 50.5489 36.5489C50.2939 36.8039 50.218 37.1876 50.3567 37.5205L51.1782 37.1782ZM57.4779 52.2992L56.6563 52.6415C56.7987 52.9833 57.1378 53.2012 57.5078 53.1887C57.8779 53.1763 58.2015 52.936 58.3206 52.5854L57.4779 52.2992ZM66.2992 43.4779L66.5854 44.3206C66.936 44.2015 67.1763 43.8779 67.1887 43.5078C67.2012 43.1378 66.9833 42.7987 66.6415 42.6563L66.2992 43.4779ZM60.7646 45.3577L60.4783 44.515L60.7646 45.3577ZM59.3577 46.7646L58.515 46.4783L59.3577 46.7646ZM46.0384 32.0384C46.4281 31.6487 47.0144 31.5327 47.5231 31.7447L48.2076 30.1016C47.0331 29.6122 45.6794 29.8801 44.7798 30.7798L46.0384 32.0384ZM45.7447 33.5231C45.5327 33.0144 45.6487 32.4281 46.0384 32.0384L44.7798 30.7798C43.8801 31.6794 43.6122 33.0331 44.1016 34.2076L45.7447 33.5231ZM56.4368 59.1873L45.7447 33.5231L44.1016 34.2076L54.7937 59.8719L56.4368 59.1873ZM57.738 60.0235C57.1726 60.0426 56.6544 59.7096 56.4368 59.1873L54.7937 59.8719C55.2961 61.0777 56.4924 61.8465 57.7979 61.8025L57.738 60.0235ZM58.98 59.1017C58.798 59.6374 58.3034 60.0045 57.738 60.0235L57.7979 61.8025C59.1034 61.7586 60.2453 60.911 60.6654 59.6741L58.98 59.1017ZM61.5019 51.6765L58.98 59.1017L60.6654 59.6741L63.1874 52.2489L61.5019 51.6765ZM69.9024 58.2619L62.974 51.3334L61.7153 52.592L68.6438 59.5205L69.9024 58.2619ZM72.1793 58.2619C71.5506 58.8906 70.5312 58.8906 69.9024 58.2619L68.6438 59.5205C69.9677 60.8444 72.1141 60.8444 73.438 59.5205L72.1793 58.2619ZM72.1793 55.985C72.8081 56.6137 72.8081 57.6331 72.1793 58.2619L73.438 59.5205C74.7619 58.1966 74.7619 56.0502 73.438 54.7263L72.1793 55.985ZM65.2102 49.0158L72.1793 55.985L73.438 54.7263L66.4688 47.7572L65.2102 49.0158ZM73.1017 44.98L65.5533 47.5438L66.1257 49.2292L73.6741 46.6654L73.1017 44.98ZM74.0235 43.738C74.0045 44.3034 73.6374 44.798 73.1017 44.98L73.6741 46.6654C74.911 46.2453 75.7586 45.1034 75.8025 43.7979L74.0235 43.738ZM73.1873 42.4368C73.7096 42.6544 74.0426 43.1726 74.0235 43.738L75.8025 43.7979C75.8465 42.4924 75.0777 41.2961 73.8719 40.7937L73.1873 42.4368ZM47.5231 31.7447L73.1873 42.4368L73.8719 40.7937L48.2076 30.1016L47.5231 31.7447ZM50.3567 37.5205L56.6563 52.6415L58.2994 51.9569L51.9998 36.8359L50.3567 37.5205ZM66.6415 42.6563L51.5205 36.3567L50.8359 37.9998L65.9569 44.2994L66.6415 42.6563ZM61.0508 46.2004L66.5854 44.3206L66.013 42.6352L60.4783 44.515L61.0508 46.2004ZM60.2004 47.0508C60.3364 46.6506 60.6506 46.3364 61.0508 46.2004L60.4783 44.515C59.5544 44.8288 58.8288 45.5544 58.515 46.4783L60.2004 47.0508ZM58.3206 52.5854L60.2004 47.0508L58.515 46.4783L56.6352 52.013L58.3206 52.5854Z" fill="#131313"/>
<path d="M59.5 41L52.5 37.5L51 38L55 46.5L59.5 41Z" fill="#131313"/>
</svg>
