<svg width="26" height="26" viewBox="0 0 26 26" fill="none" xmlns="http://www.w3.org/2000/svg">
<path d="M16.9093 8.45459C18.591 8.45459 20.2038 9.12265 21.393 10.3118C22.5821 11.501 23.2502 13.1138 23.2502 14.7955V22.1932H19.0229V14.7955C19.0229 14.2349 18.8002 13.6973 18.4038 13.3009C18.0075 12.9045 17.4698 12.6819 16.9093 12.6819C16.3487 12.6819 15.8111 12.9045 15.4147 13.3009C15.0183 13.6973 14.7956 14.2349 14.7956 14.7955V22.1932H10.5684V14.7955C10.5684 13.1138 11.2364 11.501 12.4256 10.3118C13.6147 9.12265 15.2276 8.45459 16.9093 8.45459Z" stroke="#737373" stroke-width="2.11364" stroke-linecap="round" stroke-linejoin="round"/>
<path d="M6.34104 9.51135H2.11377V22.1932H6.34104V9.51135Z" stroke="#737373" stroke-width="2.11364" stroke-linecap="round" stroke-linejoin="round"/>
<path d="M4.22741 6.34092C5.39473 6.34092 6.34104 5.39461 6.34104 4.22728C6.34104 3.05995 5.39473 2.11365 4.22741 2.11365C3.06008 2.11365 2.11377 3.05995 2.11377 4.22728C2.11377 5.39461 3.06008 6.34092 4.22741 6.34092Z" fill="#737373" stroke="#737373" stroke-width="2.11364" stroke-linecap="round" stroke-linejoin="round"/>
</svg>
